M48
;DRILL file {KiCad (5.0.1)-4} date 11/29/2018 5:53:09 PM
;FORMAT={-:-/ absolute / inch / decimal}
FMAT,2
INCH,TZ
T1C0.0315
T2C0.0394
T3C0.0394
T4C0.0400
%
G90
G05
M72
T1
X4.9882Y-3.2236
X4.9882Y-3.5236
X5.0882Y-3.2236
X5.0882Y-3.5236
X5.1882Y-3.2236
X5.1882Y-3.5236
X5.2882Y-3.2236
X5.2882Y-3.5236
X5.0307Y-3.8374
X5.0307Y-3.9374
X5.0307Y-4.0374
X5.0307Y-4.1374
X5.3307Y-3.8374
X5.3307Y-3.9374
X5.3307Y-4.0374
X5.3307Y-4.1374
T2
X4.6Y-3.45
T3
X4.1819Y-3.2598
X4.5819Y-3.2598
T4
X4.1969Y-3.9945
X4.1969Y-4.0945
X4.6378Y-3.6102
X4.6378Y-3.7102
X4.6378Y-3.8102
X4.7378Y-3.6102
X4.7378Y-3.7102
X4.7378Y-3.8102
T0
M30
