G04 #@! TF.GenerationSoftware,KiCad,Pcbnew,(5.0.1)-4*
G04 #@! TF.CreationDate,2018-11-29T17:47:57-05:00*
G04 #@! TF.ProjectId,MagSpoofTC,4D616753706F6F6654432E6B69636164,1.0*
G04 #@! TF.SameCoordinates,Original*
G04 #@! TF.FileFunction,Legend,Bot*
G04 #@! TF.FilePolarity,Positive*
%FSLAX46Y46*%
G04 Gerber Fmt 4.6, Leading zero omitted, Abs format (unit mm)*
G04 Created by KiCad (PCBNEW (5.0.1)-4) date 11/29/2018 5:47:57 PM*
%MOMM*%
%LPD*%
G01*
G04 APERTURE LIST*
%ADD10C,0.300000*%
%ADD11C,0.150000*%
%ADD12C,0.010000*%
G04 APERTURE END LIST*
D10*
X133864285Y-86178571D02*
X133864285Y-84678571D01*
X133364285Y-85750000D01*
X132864285Y-84678571D01*
X132864285Y-86178571D01*
X131507142Y-86178571D02*
X131507142Y-85392857D01*
X131578571Y-85250000D01*
X131721428Y-85178571D01*
X132007142Y-85178571D01*
X132150000Y-85250000D01*
X131507142Y-86107142D02*
X131650000Y-86178571D01*
X132007142Y-86178571D01*
X132150000Y-86107142D01*
X132221428Y-85964285D01*
X132221428Y-85821428D01*
X132150000Y-85678571D01*
X132007142Y-85607142D01*
X131650000Y-85607142D01*
X131507142Y-85535714D01*
X130150000Y-85178571D02*
X130150000Y-86392857D01*
X130221428Y-86535714D01*
X130292857Y-86607142D01*
X130435714Y-86678571D01*
X130650000Y-86678571D01*
X130792857Y-86607142D01*
X130150000Y-86107142D02*
X130292857Y-86178571D01*
X130578571Y-86178571D01*
X130721428Y-86107142D01*
X130792857Y-86035714D01*
X130864285Y-85892857D01*
X130864285Y-85464285D01*
X130792857Y-85321428D01*
X130721428Y-85250000D01*
X130578571Y-85178571D01*
X130292857Y-85178571D01*
X130150000Y-85250000D01*
X129507142Y-86107142D02*
X129292857Y-86178571D01*
X128935714Y-86178571D01*
X128792857Y-86107142D01*
X128721428Y-86035714D01*
X128650000Y-85892857D01*
X128650000Y-85750000D01*
X128721428Y-85607142D01*
X128792857Y-85535714D01*
X128935714Y-85464285D01*
X129221428Y-85392857D01*
X129364285Y-85321428D01*
X129435714Y-85250000D01*
X129507142Y-85107142D01*
X129507142Y-84964285D01*
X129435714Y-84821428D01*
X129364285Y-84750000D01*
X129221428Y-84678571D01*
X128864285Y-84678571D01*
X128650000Y-84750000D01*
X128007142Y-85178571D02*
X128007142Y-86678571D01*
X128007142Y-85250000D02*
X127864285Y-85178571D01*
X127578571Y-85178571D01*
X127435714Y-85250000D01*
X127364285Y-85321428D01*
X127292857Y-85464285D01*
X127292857Y-85892857D01*
X127364285Y-86035714D01*
X127435714Y-86107142D01*
X127578571Y-86178571D01*
X127864285Y-86178571D01*
X128007142Y-86107142D01*
X126435714Y-86178571D02*
X126578571Y-86107142D01*
X126650000Y-86035714D01*
X126721428Y-85892857D01*
X126721428Y-85464285D01*
X126650000Y-85321428D01*
X126578571Y-85250000D01*
X126435714Y-85178571D01*
X126221428Y-85178571D01*
X126078571Y-85250000D01*
X126007142Y-85321428D01*
X125935714Y-85464285D01*
X125935714Y-85892857D01*
X126007142Y-86035714D01*
X126078571Y-86107142D01*
X126221428Y-86178571D01*
X126435714Y-86178571D01*
X125078571Y-86178571D02*
X125221428Y-86107142D01*
X125292857Y-86035714D01*
X125364285Y-85892857D01*
X125364285Y-85464285D01*
X125292857Y-85321428D01*
X125221428Y-85250000D01*
X125078571Y-85178571D01*
X124864285Y-85178571D01*
X124721428Y-85250000D01*
X124650000Y-85321428D01*
X124578571Y-85464285D01*
X124578571Y-85892857D01*
X124650000Y-86035714D01*
X124721428Y-86107142D01*
X124864285Y-86178571D01*
X125078571Y-86178571D01*
X124150000Y-85178571D02*
X123578571Y-85178571D01*
X123935714Y-86178571D02*
X123935714Y-84892857D01*
X123864285Y-84750000D01*
X123721428Y-84678571D01*
X123578571Y-84678571D01*
X121150000Y-86178571D02*
X122007142Y-86178571D01*
X121578571Y-86178571D02*
X121578571Y-84678571D01*
X121721428Y-84892857D01*
X121864285Y-85035714D01*
X122007142Y-85107142D01*
X120507142Y-86035714D02*
X120435714Y-86107142D01*
X120507142Y-86178571D01*
X120578571Y-86107142D01*
X120507142Y-86035714D01*
X120507142Y-86178571D01*
X119507142Y-84678571D02*
X119364285Y-84678571D01*
X119221428Y-84750000D01*
X119150000Y-84821428D01*
X119078571Y-84964285D01*
X119007142Y-85250000D01*
X119007142Y-85607142D01*
X119078571Y-85892857D01*
X119150000Y-86035714D01*
X119221428Y-86107142D01*
X119364285Y-86178571D01*
X119507142Y-86178571D01*
X119650000Y-86107142D01*
X119721428Y-86035714D01*
X119792857Y-85892857D01*
X119864285Y-85607142D01*
X119864285Y-85250000D01*
X119792857Y-84964285D01*
X119721428Y-84821428D01*
X119650000Y-84750000D01*
X119507142Y-84678571D01*
X118507142Y-85178571D02*
X118150000Y-86178571D01*
X117792857Y-85178571D01*
D11*
G04 #@! TO.C,*
X109731220Y-102489860D02*
X109370540Y-103960520D01*
X109370540Y-103960520D02*
X109091140Y-102898800D01*
X109091140Y-102898800D02*
X108781260Y-103970680D01*
X108781260Y-103970680D02*
X108440900Y-102520340D01*
X111151080Y-103180740D02*
X110361140Y-103170580D01*
X110361140Y-103170580D02*
X110350980Y-103180740D01*
X110350980Y-103180740D02*
X110350980Y-103170580D01*
X110310340Y-102459380D02*
X110310340Y-104001160D01*
X111199340Y-102449220D02*
X111199340Y-104018940D01*
X111199340Y-104018940D02*
X111189180Y-104008780D01*
X111750520Y-102550820D02*
X112101040Y-102469540D01*
X112101040Y-102469540D02*
X112421080Y-102459380D01*
X112421080Y-102459380D02*
X112659840Y-102660040D01*
X112659840Y-102660040D02*
X112690320Y-102929280D01*
X112690320Y-102929280D02*
X112449020Y-103170580D01*
X112449020Y-103170580D02*
X112060400Y-103300120D01*
X112060400Y-103300120D02*
X111880060Y-103460140D01*
X111880060Y-103460140D02*
X111839420Y-103759860D01*
X111839420Y-103759860D02*
X112070560Y-103980840D01*
X112070560Y-103980840D02*
X112390600Y-104008780D01*
X112390600Y-104008780D02*
X112741120Y-103899560D01*
X113779980Y-102449220D02*
X114028900Y-102469540D01*
X114028900Y-102469540D02*
X114270200Y-102710840D01*
X114270200Y-102710840D02*
X114359100Y-103201060D01*
X114359100Y-103201060D02*
X114331160Y-103549040D01*
X114331160Y-103549040D02*
X114130500Y-103869080D01*
X114130500Y-103869080D02*
X113879040Y-103991000D01*
X113879040Y-103991000D02*
X113569160Y-103919880D01*
X113569160Y-103919880D02*
X113350720Y-103739540D01*
X113350720Y-103739540D02*
X113279600Y-103279800D01*
X113279600Y-103279800D02*
X113330400Y-102870860D01*
X113330400Y-102870860D02*
X113439620Y-102588920D01*
X113439620Y-102588920D02*
X113800300Y-102459380D01*
X113180540Y-100729640D02*
X113439620Y-101290980D01*
X113439620Y-101290980D02*
X112901140Y-101809140D01*
X112901140Y-101809140D02*
X112380440Y-101539900D01*
X112380440Y-101539900D02*
X112101040Y-101699920D01*
X110660860Y-101679600D02*
X110330660Y-101489100D01*
X110330660Y-101489100D02*
X109891240Y-101819300D01*
X109891240Y-101819300D02*
X109418800Y-101329080D01*
X109418800Y-101329080D02*
X109700740Y-100849020D01*
X109700740Y-100849020D02*
X109510240Y-100379120D01*
X109510240Y-100379120D02*
X108900640Y-100191160D01*
X108900640Y-100191160D02*
X108900640Y-99510440D01*
X108900640Y-99510440D02*
X109459440Y-99370740D01*
X109459440Y-99370740D02*
X109660100Y-98799240D01*
X109660100Y-98799240D02*
X109390860Y-98329340D01*
X109390860Y-98329340D02*
X109860760Y-97818800D01*
X109860760Y-97818800D02*
X110378920Y-98080420D01*
X110378920Y-98080420D02*
X110848820Y-97879760D01*
X110848820Y-97879760D02*
X111019000Y-97338740D01*
X111019000Y-97338740D02*
X111709880Y-97320960D01*
X111709880Y-97320960D02*
X111920700Y-97869600D01*
X111920700Y-97869600D02*
X112339800Y-98039780D01*
X112339800Y-98039780D02*
X112890980Y-97770540D01*
X112890980Y-97770540D02*
X113409140Y-98298860D01*
X113409140Y-98298860D02*
X113160220Y-98839880D01*
X113160220Y-98839880D02*
X113330400Y-99319940D01*
X113330400Y-99319940D02*
X113879040Y-99419000D01*
X113879040Y-99419000D02*
X113889200Y-100120040D01*
X113889200Y-100120040D02*
X113330400Y-100320700D01*
X113330400Y-100320700D02*
X113190700Y-100719480D01*
X111049480Y-100699160D02*
X110749760Y-100549300D01*
X110749760Y-100549300D02*
X110549100Y-100351180D01*
X110549100Y-100351180D02*
X110399240Y-99949860D01*
X110399240Y-99949860D02*
X110399240Y-99551080D01*
X110399240Y-99551080D02*
X110549100Y-99200560D01*
X110549100Y-99200560D02*
X111001220Y-98850040D01*
X111001220Y-98850040D02*
X111450800Y-98799240D01*
X111450800Y-98799240D02*
X111849580Y-98900840D01*
X111849580Y-98900840D02*
X112250900Y-99248820D01*
X112250900Y-99248820D02*
X112400760Y-99700940D01*
X112400760Y-99700940D02*
X112349960Y-100198780D01*
X112349960Y-100198780D02*
X112101040Y-100501040D01*
X112101040Y-100501040D02*
X111750520Y-100699160D01*
X111750520Y-100699160D02*
X112101040Y-101699920D01*
X111049480Y-100699160D02*
X110650700Y-101699920D01*
D12*
G04 #@! TO.C,G\002A\002A\002A*
G36*
X112711952Y-90034469D02*
X112657322Y-90034584D01*
X112608721Y-90034798D01*
X112567028Y-90035106D01*
X112533123Y-90035503D01*
X112507886Y-90035985D01*
X112492197Y-90036546D01*
X112486933Y-90037166D01*
X112488907Y-90044025D01*
X112494337Y-90059457D01*
X112502488Y-90081556D01*
X112512625Y-90108412D01*
X112524012Y-90138118D01*
X112535914Y-90168766D01*
X112547595Y-90198447D01*
X112558321Y-90225254D01*
X112567355Y-90247279D01*
X112573007Y-90260481D01*
X112589770Y-90298273D01*
X112850207Y-90299992D01*
X112911234Y-90300408D01*
X112962016Y-90300814D01*
X113003600Y-90301261D01*
X113037031Y-90301800D01*
X113063353Y-90302483D01*
X113083612Y-90303360D01*
X113098852Y-90304484D01*
X113110119Y-90305905D01*
X113118458Y-90307675D01*
X113124914Y-90309846D01*
X113130531Y-90312467D01*
X113133222Y-90313894D01*
X113156584Y-90329106D01*
X113176812Y-90348526D01*
X113195034Y-90373783D01*
X113212374Y-90406510D01*
X113229956Y-90448336D01*
X113234811Y-90461185D01*
X113242642Y-90481822D01*
X113254060Y-90511251D01*
X113268405Y-90547803D01*
X113285019Y-90589812D01*
X113303240Y-90635608D01*
X113322411Y-90683525D01*
X113341384Y-90730688D01*
X113359759Y-90776395D01*
X113376890Y-90819310D01*
X113392288Y-90858193D01*
X113405469Y-90891804D01*
X113415947Y-90918901D01*
X113423235Y-90938245D01*
X113426848Y-90948595D01*
X113427072Y-90949411D01*
X113430780Y-90964933D01*
X112928641Y-90964933D01*
X112873661Y-91082055D01*
X112857155Y-91117406D01*
X112841663Y-91150935D01*
X112828047Y-91180746D01*
X112817171Y-91204946D01*
X112809898Y-91221640D01*
X112808112Y-91225988D01*
X112797543Y-91252800D01*
X113264538Y-91252550D01*
X113348085Y-91252497D01*
X113421092Y-91252423D01*
X113484306Y-91252311D01*
X113538477Y-91252143D01*
X113584352Y-91251902D01*
X113622681Y-91251572D01*
X113654211Y-91251135D01*
X113679691Y-91250574D01*
X113699869Y-91249872D01*
X113715493Y-91249012D01*
X113727313Y-91247977D01*
X113736076Y-91246749D01*
X113742531Y-91245313D01*
X113747426Y-91243650D01*
X113751510Y-91241743D01*
X113752122Y-91241423D01*
X113781872Y-91219531D01*
X113805320Y-91189458D01*
X113821536Y-91152954D01*
X113829586Y-91111767D01*
X113830311Y-91094633D01*
X113828535Y-91069238D01*
X113823056Y-91038459D01*
X113813648Y-91001603D01*
X113800085Y-90957977D01*
X113782140Y-90906886D01*
X113759587Y-90847637D01*
X113732201Y-90779535D01*
X113710929Y-90728358D01*
X113694754Y-90689239D01*
X113676975Y-90645214D01*
X113659384Y-90600785D01*
X113643774Y-90560451D01*
X113638575Y-90546709D01*
X113613265Y-90480405D01*
X113587347Y-90414678D01*
X113561711Y-90351694D01*
X113537250Y-90293617D01*
X113514854Y-90242615D01*
X113501271Y-90213103D01*
X113472730Y-90160395D01*
X113441285Y-90117763D01*
X113405995Y-90084165D01*
X113365919Y-90058560D01*
X113358286Y-90054796D01*
X113319489Y-90036422D01*
X112903211Y-90034772D01*
X112835776Y-90034558D01*
X112771730Y-90034459D01*
X112711952Y-90034469D01*
X112711952Y-90034469D01*
G37*
X112711952Y-90034469D02*
X112657322Y-90034584D01*
X112608721Y-90034798D01*
X112567028Y-90035106D01*
X112533123Y-90035503D01*
X112507886Y-90035985D01*
X112492197Y-90036546D01*
X112486933Y-90037166D01*
X112488907Y-90044025D01*
X112494337Y-90059457D01*
X112502488Y-90081556D01*
X112512625Y-90108412D01*
X112524012Y-90138118D01*
X112535914Y-90168766D01*
X112547595Y-90198447D01*
X112558321Y-90225254D01*
X112567355Y-90247279D01*
X112573007Y-90260481D01*
X112589770Y-90298273D01*
X112850207Y-90299992D01*
X112911234Y-90300408D01*
X112962016Y-90300814D01*
X113003600Y-90301261D01*
X113037031Y-90301800D01*
X113063353Y-90302483D01*
X113083612Y-90303360D01*
X113098852Y-90304484D01*
X113110119Y-90305905D01*
X113118458Y-90307675D01*
X113124914Y-90309846D01*
X113130531Y-90312467D01*
X113133222Y-90313894D01*
X113156584Y-90329106D01*
X113176812Y-90348526D01*
X113195034Y-90373783D01*
X113212374Y-90406510D01*
X113229956Y-90448336D01*
X113234811Y-90461185D01*
X113242642Y-90481822D01*
X113254060Y-90511251D01*
X113268405Y-90547803D01*
X113285019Y-90589812D01*
X113303240Y-90635608D01*
X113322411Y-90683525D01*
X113341384Y-90730688D01*
X113359759Y-90776395D01*
X113376890Y-90819310D01*
X113392288Y-90858193D01*
X113405469Y-90891804D01*
X113415947Y-90918901D01*
X113423235Y-90938245D01*
X113426848Y-90948595D01*
X113427072Y-90949411D01*
X113430780Y-90964933D01*
X112928641Y-90964933D01*
X112873661Y-91082055D01*
X112857155Y-91117406D01*
X112841663Y-91150935D01*
X112828047Y-91180746D01*
X112817171Y-91204946D01*
X112809898Y-91221640D01*
X112808112Y-91225988D01*
X112797543Y-91252800D01*
X113264538Y-91252550D01*
X113348085Y-91252497D01*
X113421092Y-91252423D01*
X113484306Y-91252311D01*
X113538477Y-91252143D01*
X113584352Y-91251902D01*
X113622681Y-91251572D01*
X113654211Y-91251135D01*
X113679691Y-91250574D01*
X113699869Y-91249872D01*
X113715493Y-91249012D01*
X113727313Y-91247977D01*
X113736076Y-91246749D01*
X113742531Y-91245313D01*
X113747426Y-91243650D01*
X113751510Y-91241743D01*
X113752122Y-91241423D01*
X113781872Y-91219531D01*
X113805320Y-91189458D01*
X113821536Y-91152954D01*
X113829586Y-91111767D01*
X113830311Y-91094633D01*
X113828535Y-91069238D01*
X113823056Y-91038459D01*
X113813648Y-91001603D01*
X113800085Y-90957977D01*
X113782140Y-90906886D01*
X113759587Y-90847637D01*
X113732201Y-90779535D01*
X113710929Y-90728358D01*
X113694754Y-90689239D01*
X113676975Y-90645214D01*
X113659384Y-90600785D01*
X113643774Y-90560451D01*
X113638575Y-90546709D01*
X113613265Y-90480405D01*
X113587347Y-90414678D01*
X113561711Y-90351694D01*
X113537250Y-90293617D01*
X113514854Y-90242615D01*
X113501271Y-90213103D01*
X113472730Y-90160395D01*
X113441285Y-90117763D01*
X113405995Y-90084165D01*
X113365919Y-90058560D01*
X113358286Y-90054796D01*
X113319489Y-90036422D01*
X112903211Y-90034772D01*
X112835776Y-90034558D01*
X112771730Y-90034459D01*
X112711952Y-90034469D01*
G36*
X111958396Y-90034512D02*
X111868554Y-90034699D01*
X111794078Y-90034912D01*
X111702210Y-90035213D01*
X111620943Y-90035513D01*
X111549591Y-90035826D01*
X111487464Y-90036166D01*
X111433876Y-90036545D01*
X111388139Y-90036978D01*
X111349566Y-90037477D01*
X111317469Y-90038056D01*
X111291160Y-90038729D01*
X111269952Y-90039509D01*
X111253158Y-90040410D01*
X111240089Y-90041445D01*
X111230058Y-90042628D01*
X111222378Y-90043971D01*
X111216362Y-90045490D01*
X111213865Y-90046284D01*
X111177561Y-90064287D01*
X111147594Y-90090922D01*
X111124921Y-90124894D01*
X111110498Y-90164910D01*
X111106143Y-90191918D01*
X111105513Y-90213724D01*
X111107573Y-90238488D01*
X111112587Y-90267055D01*
X111120824Y-90300274D01*
X111132547Y-90338988D01*
X111148022Y-90384046D01*
X111167517Y-90436293D01*
X111191295Y-90496575D01*
X111219624Y-90565738D01*
X111235423Y-90603546D01*
X111248183Y-90634323D01*
X111264329Y-90673910D01*
X111283174Y-90720588D01*
X111304030Y-90772640D01*
X111326212Y-90828347D01*
X111349031Y-90885991D01*
X111371802Y-90943853D01*
X111388885Y-90987511D01*
X111491302Y-91249977D01*
X111673029Y-91251467D01*
X111728061Y-91251747D01*
X111773708Y-91251616D01*
X111809582Y-91251083D01*
X111835294Y-91250157D01*
X111850453Y-91248847D01*
X111854756Y-91247387D01*
X111852752Y-91241110D01*
X111847025Y-91225444D01*
X111838001Y-91201501D01*
X111826105Y-91170391D01*
X111811763Y-91133223D01*
X111795402Y-91091109D01*
X111777446Y-91045159D01*
X111766513Y-91017297D01*
X111747726Y-90969431D01*
X111730179Y-90924594D01*
X111714314Y-90883926D01*
X111700573Y-90848565D01*
X111689397Y-90819652D01*
X111681230Y-90798324D01*
X111676513Y-90785722D01*
X111675543Y-90782900D01*
X111675390Y-90780223D01*
X111677298Y-90778077D01*
X111682369Y-90776404D01*
X111691702Y-90775146D01*
X111706399Y-90774243D01*
X111727559Y-90773638D01*
X111756284Y-90773272D01*
X111793673Y-90773088D01*
X111840827Y-90773025D01*
X111861801Y-90773022D01*
X112050785Y-90773022D01*
X112082147Y-90847811D01*
X112093122Y-90874256D01*
X112107257Y-90908736D01*
X112123555Y-90948791D01*
X112141017Y-90991961D01*
X112158644Y-91035785D01*
X112170726Y-91065987D01*
X112186366Y-91104964D01*
X112201209Y-91141542D01*
X112214579Y-91174091D01*
X112225802Y-91200981D01*
X112234204Y-91220583D01*
X112239019Y-91231087D01*
X112250096Y-91252800D01*
X112427782Y-91252800D01*
X112483252Y-91252620D01*
X112528714Y-91252088D01*
X112563898Y-91251212D01*
X112588536Y-91250001D01*
X112602359Y-91248463D01*
X112605467Y-91247110D01*
X112603423Y-91241084D01*
X112597541Y-91225526D01*
X112588197Y-91201380D01*
X112575767Y-91169587D01*
X112560626Y-91131091D01*
X112543150Y-91086833D01*
X112523714Y-91037755D01*
X112502694Y-90984801D01*
X112480466Y-90928912D01*
X112457405Y-90871030D01*
X112433886Y-90812098D01*
X112410286Y-90753059D01*
X112386980Y-90694854D01*
X112364343Y-90638426D01*
X112342751Y-90584717D01*
X112322581Y-90534669D01*
X112311751Y-90507883D01*
X111945026Y-90507883D01*
X111754547Y-90506397D01*
X111564067Y-90504911D01*
X111546131Y-90468222D01*
X111535166Y-90443332D01*
X111523986Y-90414029D01*
X111515429Y-90388002D01*
X111509109Y-90364971D01*
X111506297Y-90349677D01*
X111506699Y-90339226D01*
X111509718Y-90331291D01*
X111514536Y-90322989D01*
X111519973Y-90316398D01*
X111527319Y-90311303D01*
X111537864Y-90307490D01*
X111552898Y-90304743D01*
X111573710Y-90302849D01*
X111601592Y-90301592D01*
X111637831Y-90300759D01*
X111683720Y-90300135D01*
X111698007Y-90299973D01*
X111854525Y-90298236D01*
X111865891Y-90316907D01*
X111874267Y-90332917D01*
X111885776Y-90358318D01*
X111899878Y-90391828D01*
X111916030Y-90432163D01*
X111931603Y-90472530D01*
X111945026Y-90507883D01*
X112311751Y-90507883D01*
X112304206Y-90489225D01*
X112288003Y-90449328D01*
X112274348Y-90415918D01*
X112268503Y-90401723D01*
X112225872Y-90298535D01*
X112285847Y-90172203D01*
X112302384Y-90137124D01*
X112317174Y-90105275D01*
X112329559Y-90078116D01*
X112338878Y-90057109D01*
X112344470Y-90043712D01*
X112345822Y-90039525D01*
X112342579Y-90038408D01*
X112332569Y-90037437D01*
X112315370Y-90036609D01*
X112290564Y-90035920D01*
X112257729Y-90035366D01*
X112216444Y-90034945D01*
X112166289Y-90034653D01*
X112106843Y-90034485D01*
X112037685Y-90034440D01*
X111958396Y-90034512D01*
X111958396Y-90034512D01*
G37*
X111958396Y-90034512D02*
X111868554Y-90034699D01*
X111794078Y-90034912D01*
X111702210Y-90035213D01*
X111620943Y-90035513D01*
X111549591Y-90035826D01*
X111487464Y-90036166D01*
X111433876Y-90036545D01*
X111388139Y-90036978D01*
X111349566Y-90037477D01*
X111317469Y-90038056D01*
X111291160Y-90038729D01*
X111269952Y-90039509D01*
X111253158Y-90040410D01*
X111240089Y-90041445D01*
X111230058Y-90042628D01*
X111222378Y-90043971D01*
X111216362Y-90045490D01*
X111213865Y-90046284D01*
X111177561Y-90064287D01*
X111147594Y-90090922D01*
X111124921Y-90124894D01*
X111110498Y-90164910D01*
X111106143Y-90191918D01*
X111105513Y-90213724D01*
X111107573Y-90238488D01*
X111112587Y-90267055D01*
X111120824Y-90300274D01*
X111132547Y-90338988D01*
X111148022Y-90384046D01*
X111167517Y-90436293D01*
X111191295Y-90496575D01*
X111219624Y-90565738D01*
X111235423Y-90603546D01*
X111248183Y-90634323D01*
X111264329Y-90673910D01*
X111283174Y-90720588D01*
X111304030Y-90772640D01*
X111326212Y-90828347D01*
X111349031Y-90885991D01*
X111371802Y-90943853D01*
X111388885Y-90987511D01*
X111491302Y-91249977D01*
X111673029Y-91251467D01*
X111728061Y-91251747D01*
X111773708Y-91251616D01*
X111809582Y-91251083D01*
X111835294Y-91250157D01*
X111850453Y-91248847D01*
X111854756Y-91247387D01*
X111852752Y-91241110D01*
X111847025Y-91225444D01*
X111838001Y-91201501D01*
X111826105Y-91170391D01*
X111811763Y-91133223D01*
X111795402Y-91091109D01*
X111777446Y-91045159D01*
X111766513Y-91017297D01*
X111747726Y-90969431D01*
X111730179Y-90924594D01*
X111714314Y-90883926D01*
X111700573Y-90848565D01*
X111689397Y-90819652D01*
X111681230Y-90798324D01*
X111676513Y-90785722D01*
X111675543Y-90782900D01*
X111675390Y-90780223D01*
X111677298Y-90778077D01*
X111682369Y-90776404D01*
X111691702Y-90775146D01*
X111706399Y-90774243D01*
X111727559Y-90773638D01*
X111756284Y-90773272D01*
X111793673Y-90773088D01*
X111840827Y-90773025D01*
X111861801Y-90773022D01*
X112050785Y-90773022D01*
X112082147Y-90847811D01*
X112093122Y-90874256D01*
X112107257Y-90908736D01*
X112123555Y-90948791D01*
X112141017Y-90991961D01*
X112158644Y-91035785D01*
X112170726Y-91065987D01*
X112186366Y-91104964D01*
X112201209Y-91141542D01*
X112214579Y-91174091D01*
X112225802Y-91200981D01*
X112234204Y-91220583D01*
X112239019Y-91231087D01*
X112250096Y-91252800D01*
X112427782Y-91252800D01*
X112483252Y-91252620D01*
X112528714Y-91252088D01*
X112563898Y-91251212D01*
X112588536Y-91250001D01*
X112602359Y-91248463D01*
X112605467Y-91247110D01*
X112603423Y-91241084D01*
X112597541Y-91225526D01*
X112588197Y-91201380D01*
X112575767Y-91169587D01*
X112560626Y-91131091D01*
X112543150Y-91086833D01*
X112523714Y-91037755D01*
X112502694Y-90984801D01*
X112480466Y-90928912D01*
X112457405Y-90871030D01*
X112433886Y-90812098D01*
X112410286Y-90753059D01*
X112386980Y-90694854D01*
X112364343Y-90638426D01*
X112342751Y-90584717D01*
X112322581Y-90534669D01*
X112311751Y-90507883D01*
X111945026Y-90507883D01*
X111754547Y-90506397D01*
X111564067Y-90504911D01*
X111546131Y-90468222D01*
X111535166Y-90443332D01*
X111523986Y-90414029D01*
X111515429Y-90388002D01*
X111509109Y-90364971D01*
X111506297Y-90349677D01*
X111506699Y-90339226D01*
X111509718Y-90331291D01*
X111514536Y-90322989D01*
X111519973Y-90316398D01*
X111527319Y-90311303D01*
X111537864Y-90307490D01*
X111552898Y-90304743D01*
X111573710Y-90302849D01*
X111601592Y-90301592D01*
X111637831Y-90300759D01*
X111683720Y-90300135D01*
X111698007Y-90299973D01*
X111854525Y-90298236D01*
X111865891Y-90316907D01*
X111874267Y-90332917D01*
X111885776Y-90358318D01*
X111899878Y-90391828D01*
X111916030Y-90432163D01*
X111931603Y-90472530D01*
X111945026Y-90507883D01*
X112311751Y-90507883D01*
X112304206Y-90489225D01*
X112288003Y-90449328D01*
X112274348Y-90415918D01*
X112268503Y-90401723D01*
X112225872Y-90298535D01*
X112285847Y-90172203D01*
X112302384Y-90137124D01*
X112317174Y-90105275D01*
X112329559Y-90078116D01*
X112338878Y-90057109D01*
X112344470Y-90043712D01*
X112345822Y-90039525D01*
X112342579Y-90038408D01*
X112332569Y-90037437D01*
X112315370Y-90036609D01*
X112290564Y-90035920D01*
X112257729Y-90035366D01*
X112216444Y-90034945D01*
X112166289Y-90034653D01*
X112106843Y-90034485D01*
X112037685Y-90034440D01*
X111958396Y-90034512D01*
G36*
X110194626Y-90033101D02*
X110127168Y-90033233D01*
X110062171Y-90033459D01*
X110000548Y-90033780D01*
X109943214Y-90034198D01*
X109891083Y-90034713D01*
X109845070Y-90035326D01*
X109806088Y-90036038D01*
X109775053Y-90036850D01*
X109752877Y-90037762D01*
X109740476Y-90038777D01*
X109738089Y-90039498D01*
X109740045Y-90046219D01*
X109745538Y-90061933D01*
X109754007Y-90085116D01*
X109764889Y-90114244D01*
X109777622Y-90147792D01*
X109786972Y-90172143D01*
X109835855Y-90298888D01*
X110189454Y-90298888D01*
X110204546Y-90328522D01*
X110211907Y-90344315D01*
X110222085Y-90367989D01*
X110233958Y-90396847D01*
X110246404Y-90428188D01*
X110252061Y-90442822D01*
X110266198Y-90479324D01*
X110281958Y-90519348D01*
X110297592Y-90558488D01*
X110311350Y-90592339D01*
X110313705Y-90598044D01*
X110321425Y-90616927D01*
X110332779Y-90645035D01*
X110347256Y-90681092D01*
X110364348Y-90723824D01*
X110383545Y-90771953D01*
X110404339Y-90824203D01*
X110426219Y-90879300D01*
X110448676Y-90935967D01*
X110457905Y-90959288D01*
X110572884Y-91249977D01*
X110945466Y-91252951D01*
X110939970Y-91237353D01*
X110937087Y-91229863D01*
X110930322Y-91212678D01*
X110919989Y-91186583D01*
X110906401Y-91152364D01*
X110889871Y-91110807D01*
X110870710Y-91062698D01*
X110849233Y-91008822D01*
X110825752Y-90949965D01*
X110800581Y-90886912D01*
X110774031Y-90820449D01*
X110751690Y-90764555D01*
X110724425Y-90696237D01*
X110698450Y-90630915D01*
X110674060Y-90569347D01*
X110651553Y-90512294D01*
X110631225Y-90460515D01*
X110613373Y-90414770D01*
X110598293Y-90375819D01*
X110586283Y-90344422D01*
X110577638Y-90321338D01*
X110572655Y-90307327D01*
X110571519Y-90303122D01*
X110577569Y-90302149D01*
X110593628Y-90301255D01*
X110618413Y-90300466D01*
X110650643Y-90299809D01*
X110689039Y-90299309D01*
X110732318Y-90298994D01*
X110777380Y-90298888D01*
X110980628Y-90298888D01*
X110976769Y-90286188D01*
X110974010Y-90278292D01*
X110967965Y-90261676D01*
X110959324Y-90238190D01*
X110948773Y-90209682D01*
X110937000Y-90178001D01*
X110924693Y-90144993D01*
X110912539Y-90112509D01*
X110901227Y-90082394D01*
X110891444Y-90056499D01*
X110885407Y-90040655D01*
X110879498Y-90039562D01*
X110863251Y-90038550D01*
X110837579Y-90037620D01*
X110803396Y-90036774D01*
X110761617Y-90036013D01*
X110713156Y-90035336D01*
X110658927Y-90034746D01*
X110599845Y-90034242D01*
X110536824Y-90033827D01*
X110470777Y-90033500D01*
X110402620Y-90033263D01*
X110333266Y-90033117D01*
X110263630Y-90033063D01*
X110194626Y-90033101D01*
X110194626Y-90033101D01*
G37*
X110194626Y-90033101D02*
X110127168Y-90033233D01*
X110062171Y-90033459D01*
X110000548Y-90033780D01*
X109943214Y-90034198D01*
X109891083Y-90034713D01*
X109845070Y-90035326D01*
X109806088Y-90036038D01*
X109775053Y-90036850D01*
X109752877Y-90037762D01*
X109740476Y-90038777D01*
X109738089Y-90039498D01*
X109740045Y-90046219D01*
X109745538Y-90061933D01*
X109754007Y-90085116D01*
X109764889Y-90114244D01*
X109777622Y-90147792D01*
X109786972Y-90172143D01*
X109835855Y-90298888D01*
X110189454Y-90298888D01*
X110204546Y-90328522D01*
X110211907Y-90344315D01*
X110222085Y-90367989D01*
X110233958Y-90396847D01*
X110246404Y-90428188D01*
X110252061Y-90442822D01*
X110266198Y-90479324D01*
X110281958Y-90519348D01*
X110297592Y-90558488D01*
X110311350Y-90592339D01*
X110313705Y-90598044D01*
X110321425Y-90616927D01*
X110332779Y-90645035D01*
X110347256Y-90681092D01*
X110364348Y-90723824D01*
X110383545Y-90771953D01*
X110404339Y-90824203D01*
X110426219Y-90879300D01*
X110448676Y-90935967D01*
X110457905Y-90959288D01*
X110572884Y-91249977D01*
X110945466Y-91252951D01*
X110939970Y-91237353D01*
X110937087Y-91229863D01*
X110930322Y-91212678D01*
X110919989Y-91186583D01*
X110906401Y-91152364D01*
X110889871Y-91110807D01*
X110870710Y-91062698D01*
X110849233Y-91008822D01*
X110825752Y-90949965D01*
X110800581Y-90886912D01*
X110774031Y-90820449D01*
X110751690Y-90764555D01*
X110724425Y-90696237D01*
X110698450Y-90630915D01*
X110674060Y-90569347D01*
X110651553Y-90512294D01*
X110631225Y-90460515D01*
X110613373Y-90414770D01*
X110598293Y-90375819D01*
X110586283Y-90344422D01*
X110577638Y-90321338D01*
X110572655Y-90307327D01*
X110571519Y-90303122D01*
X110577569Y-90302149D01*
X110593628Y-90301255D01*
X110618413Y-90300466D01*
X110650643Y-90299809D01*
X110689039Y-90299309D01*
X110732318Y-90298994D01*
X110777380Y-90298888D01*
X110980628Y-90298888D01*
X110976769Y-90286188D01*
X110974010Y-90278292D01*
X110967965Y-90261676D01*
X110959324Y-90238190D01*
X110948773Y-90209682D01*
X110937000Y-90178001D01*
X110924693Y-90144993D01*
X110912539Y-90112509D01*
X110901227Y-90082394D01*
X110891444Y-90056499D01*
X110885407Y-90040655D01*
X110879498Y-90039562D01*
X110863251Y-90038550D01*
X110837579Y-90037620D01*
X110803396Y-90036774D01*
X110761617Y-90036013D01*
X110713156Y-90035336D01*
X110658927Y-90034746D01*
X110599845Y-90034242D01*
X110536824Y-90033827D01*
X110470777Y-90033500D01*
X110402620Y-90033263D01*
X110333266Y-90033117D01*
X110263630Y-90033063D01*
X110194626Y-90033101D01*
G36*
X108751282Y-90034699D02*
X108701118Y-90034872D01*
X108657775Y-90035141D01*
X108622116Y-90035501D01*
X108595004Y-90035947D01*
X108577301Y-90036477D01*
X108569869Y-90037084D01*
X108569689Y-90037201D01*
X108571690Y-90043399D01*
X108577296Y-90058536D01*
X108585917Y-90081072D01*
X108596960Y-90109467D01*
X108609833Y-90142181D01*
X108616978Y-90160198D01*
X108630780Y-90194975D01*
X108643293Y-90226623D01*
X108653871Y-90253502D01*
X108661869Y-90273970D01*
X108666642Y-90286386D01*
X108667601Y-90289011D01*
X108669004Y-90291373D01*
X108672127Y-90293327D01*
X108677957Y-90294912D01*
X108687478Y-90296166D01*
X108701677Y-90297127D01*
X108721537Y-90297835D01*
X108748045Y-90298327D01*
X108782187Y-90298642D01*
X108824946Y-90298818D01*
X108877309Y-90298895D01*
X108920879Y-90298909D01*
X108980702Y-90298936D01*
X109030288Y-90299033D01*
X109070686Y-90299244D01*
X109102947Y-90299611D01*
X109128123Y-90300177D01*
X109147263Y-90300985D01*
X109161419Y-90302077D01*
X109171641Y-90303497D01*
X109178981Y-90305286D01*
X109184488Y-90307489D01*
X109188663Y-90309809D01*
X109201651Y-90319648D01*
X109208941Y-90330579D01*
X109210089Y-90343428D01*
X109204652Y-90359019D01*
X109192188Y-90378176D01*
X109172254Y-90401723D01*
X109144406Y-90430485D01*
X109108202Y-90465286D01*
X109101984Y-90471115D01*
X109054200Y-90516648D01*
X109009356Y-90561052D01*
X108968603Y-90603113D01*
X108933088Y-90641615D01*
X108903963Y-90675346D01*
X108882378Y-90703089D01*
X108882343Y-90703137D01*
X108858467Y-90744299D01*
X108839723Y-90792812D01*
X108827229Y-90845471D01*
X108823844Y-90870642D01*
X108821671Y-90920326D01*
X108824563Y-90971146D01*
X108832053Y-91020341D01*
X108843673Y-91065147D01*
X108858954Y-91102802D01*
X108865044Y-91113721D01*
X108889216Y-91145840D01*
X108920644Y-91176773D01*
X108955523Y-91203086D01*
X108978856Y-91216387D01*
X108991948Y-91222798D01*
X109003782Y-91228409D01*
X109015167Y-91233274D01*
X109026914Y-91237445D01*
X109039833Y-91240976D01*
X109054734Y-91243921D01*
X109072429Y-91246332D01*
X109093728Y-91248262D01*
X109119440Y-91249766D01*
X109150377Y-91250895D01*
X109187349Y-91251704D01*
X109231166Y-91252246D01*
X109282638Y-91252573D01*
X109342577Y-91252739D01*
X109411792Y-91252797D01*
X109491094Y-91252801D01*
X109533253Y-91252800D01*
X109605318Y-91252739D01*
X109673432Y-91252563D01*
X109736799Y-91252280D01*
X109794621Y-91251899D01*
X109846102Y-91251428D01*
X109890448Y-91250878D01*
X109926860Y-91250255D01*
X109954544Y-91249570D01*
X109972703Y-91248831D01*
X109980540Y-91248046D01*
X109980800Y-91247872D01*
X109978848Y-91241476D01*
X109973348Y-91226001D01*
X109964838Y-91202889D01*
X109953855Y-91173587D01*
X109940934Y-91139537D01*
X109927833Y-91105349D01*
X109874866Y-90967755D01*
X109547989Y-90964933D01*
X109478693Y-90964315D01*
X109419793Y-90963731D01*
X109370395Y-90963145D01*
X109329607Y-90962526D01*
X109296536Y-90961838D01*
X109270288Y-90961047D01*
X109249971Y-90960121D01*
X109234692Y-90959024D01*
X109223557Y-90957723D01*
X109215674Y-90956184D01*
X109210150Y-90954374D01*
X109206091Y-90952258D01*
X109205588Y-90951934D01*
X109190815Y-90939945D01*
X109182780Y-90926989D01*
X109181863Y-90912156D01*
X109188444Y-90894535D01*
X109202906Y-90873217D01*
X109225628Y-90847290D01*
X109256993Y-90815846D01*
X109266241Y-90807004D01*
X109288898Y-90785292D01*
X109317639Y-90757429D01*
X109350581Y-90725258D01*
X109385840Y-90690624D01*
X109421533Y-90655373D01*
X109453558Y-90623559D01*
X109491926Y-90585015D01*
X109522960Y-90553100D01*
X109547598Y-90526766D01*
X109566783Y-90504965D01*
X109581454Y-90486650D01*
X109592553Y-90470771D01*
X109596615Y-90464170D01*
X109619151Y-90420884D01*
X109633479Y-90380088D01*
X109640706Y-90337894D01*
X109642133Y-90304308D01*
X109638400Y-90244410D01*
X109626999Y-90192628D01*
X109607631Y-90148523D01*
X109579999Y-90111657D01*
X109543802Y-90081593D01*
X109498742Y-90057893D01*
X109465711Y-90046046D01*
X109459063Y-90044331D01*
X109450495Y-90042830D01*
X109439230Y-90041522D01*
X109424491Y-90040390D01*
X109405500Y-90039416D01*
X109381479Y-90038580D01*
X109351650Y-90037865D01*
X109315237Y-90037252D01*
X109271462Y-90036722D01*
X109219546Y-90036256D01*
X109158712Y-90035838D01*
X109088183Y-90035447D01*
X109007182Y-90035065D01*
X109002900Y-90035046D01*
X108934076Y-90034795D01*
X108868624Y-90034656D01*
X108807404Y-90034626D01*
X108751282Y-90034699D01*
X108751282Y-90034699D01*
G37*
X108751282Y-90034699D02*
X108701118Y-90034872D01*
X108657775Y-90035141D01*
X108622116Y-90035501D01*
X108595004Y-90035947D01*
X108577301Y-90036477D01*
X108569869Y-90037084D01*
X108569689Y-90037201D01*
X108571690Y-90043399D01*
X108577296Y-90058536D01*
X108585917Y-90081072D01*
X108596960Y-90109467D01*
X108609833Y-90142181D01*
X108616978Y-90160198D01*
X108630780Y-90194975D01*
X108643293Y-90226623D01*
X108653871Y-90253502D01*
X108661869Y-90273970D01*
X108666642Y-90286386D01*
X108667601Y-90289011D01*
X108669004Y-90291373D01*
X108672127Y-90293327D01*
X108677957Y-90294912D01*
X108687478Y-90296166D01*
X108701677Y-90297127D01*
X108721537Y-90297835D01*
X108748045Y-90298327D01*
X108782187Y-90298642D01*
X108824946Y-90298818D01*
X108877309Y-90298895D01*
X108920879Y-90298909D01*
X108980702Y-90298936D01*
X109030288Y-90299033D01*
X109070686Y-90299244D01*
X109102947Y-90299611D01*
X109128123Y-90300177D01*
X109147263Y-90300985D01*
X109161419Y-90302077D01*
X109171641Y-90303497D01*
X109178981Y-90305286D01*
X109184488Y-90307489D01*
X109188663Y-90309809D01*
X109201651Y-90319648D01*
X109208941Y-90330579D01*
X109210089Y-90343428D01*
X109204652Y-90359019D01*
X109192188Y-90378176D01*
X109172254Y-90401723D01*
X109144406Y-90430485D01*
X109108202Y-90465286D01*
X109101984Y-90471115D01*
X109054200Y-90516648D01*
X109009356Y-90561052D01*
X108968603Y-90603113D01*
X108933088Y-90641615D01*
X108903963Y-90675346D01*
X108882378Y-90703089D01*
X108882343Y-90703137D01*
X108858467Y-90744299D01*
X108839723Y-90792812D01*
X108827229Y-90845471D01*
X108823844Y-90870642D01*
X108821671Y-90920326D01*
X108824563Y-90971146D01*
X108832053Y-91020341D01*
X108843673Y-91065147D01*
X108858954Y-91102802D01*
X108865044Y-91113721D01*
X108889216Y-91145840D01*
X108920644Y-91176773D01*
X108955523Y-91203086D01*
X108978856Y-91216387D01*
X108991948Y-91222798D01*
X109003782Y-91228409D01*
X109015167Y-91233274D01*
X109026914Y-91237445D01*
X109039833Y-91240976D01*
X109054734Y-91243921D01*
X109072429Y-91246332D01*
X109093728Y-91248262D01*
X109119440Y-91249766D01*
X109150377Y-91250895D01*
X109187349Y-91251704D01*
X109231166Y-91252246D01*
X109282638Y-91252573D01*
X109342577Y-91252739D01*
X109411792Y-91252797D01*
X109491094Y-91252801D01*
X109533253Y-91252800D01*
X109605318Y-91252739D01*
X109673432Y-91252563D01*
X109736799Y-91252280D01*
X109794621Y-91251899D01*
X109846102Y-91251428D01*
X109890448Y-91250878D01*
X109926860Y-91250255D01*
X109954544Y-91249570D01*
X109972703Y-91248831D01*
X109980540Y-91248046D01*
X109980800Y-91247872D01*
X109978848Y-91241476D01*
X109973348Y-91226001D01*
X109964838Y-91202889D01*
X109953855Y-91173587D01*
X109940934Y-91139537D01*
X109927833Y-91105349D01*
X109874866Y-90967755D01*
X109547989Y-90964933D01*
X109478693Y-90964315D01*
X109419793Y-90963731D01*
X109370395Y-90963145D01*
X109329607Y-90962526D01*
X109296536Y-90961838D01*
X109270288Y-90961047D01*
X109249971Y-90960121D01*
X109234692Y-90959024D01*
X109223557Y-90957723D01*
X109215674Y-90956184D01*
X109210150Y-90954374D01*
X109206091Y-90952258D01*
X109205588Y-90951934D01*
X109190815Y-90939945D01*
X109182780Y-90926989D01*
X109181863Y-90912156D01*
X109188444Y-90894535D01*
X109202906Y-90873217D01*
X109225628Y-90847290D01*
X109256993Y-90815846D01*
X109266241Y-90807004D01*
X109288898Y-90785292D01*
X109317639Y-90757429D01*
X109350581Y-90725258D01*
X109385840Y-90690624D01*
X109421533Y-90655373D01*
X109453558Y-90623559D01*
X109491926Y-90585015D01*
X109522960Y-90553100D01*
X109547598Y-90526766D01*
X109566783Y-90504965D01*
X109581454Y-90486650D01*
X109592553Y-90470771D01*
X109596615Y-90464170D01*
X109619151Y-90420884D01*
X109633479Y-90380088D01*
X109640706Y-90337894D01*
X109642133Y-90304308D01*
X109638400Y-90244410D01*
X109626999Y-90192628D01*
X109607631Y-90148523D01*
X109579999Y-90111657D01*
X109543802Y-90081593D01*
X109498742Y-90057893D01*
X109465711Y-90046046D01*
X109459063Y-90044331D01*
X109450495Y-90042830D01*
X109439230Y-90041522D01*
X109424491Y-90040390D01*
X109405500Y-90039416D01*
X109381479Y-90038580D01*
X109351650Y-90037865D01*
X109315237Y-90037252D01*
X109271462Y-90036722D01*
X109219546Y-90036256D01*
X109158712Y-90035838D01*
X109088183Y-90035447D01*
X109007182Y-90035065D01*
X109002900Y-90035046D01*
X108934076Y-90034795D01*
X108868624Y-90034656D01*
X108807404Y-90034626D01*
X108751282Y-90034699D01*
G36*
X113888812Y-89018905D02*
X113891443Y-89026336D01*
X113897869Y-89043309D01*
X113907718Y-89068875D01*
X113920621Y-89102084D01*
X113936206Y-89141987D01*
X113954101Y-89187633D01*
X113973937Y-89238074D01*
X113995343Y-89292359D01*
X114017946Y-89349538D01*
X114018375Y-89350622D01*
X114144605Y-89669533D01*
X113956413Y-89671019D01*
X113911602Y-89671460D01*
X113870609Y-89672030D01*
X113834741Y-89672698D01*
X113805308Y-89673433D01*
X113783619Y-89674203D01*
X113770982Y-89674978D01*
X113768222Y-89675513D01*
X113770255Y-89681478D01*
X113775884Y-89696108D01*
X113784410Y-89717632D01*
X113795132Y-89744276D01*
X113804463Y-89767213D01*
X113816799Y-89797748D01*
X113827813Y-89825656D01*
X113836692Y-89848828D01*
X113842624Y-89865155D01*
X113844586Y-89871374D01*
X113848468Y-89886844D01*
X114497116Y-89886844D01*
X114493368Y-89874144D01*
X114490731Y-89867033D01*
X114484217Y-89850251D01*
X114474148Y-89824607D01*
X114460844Y-89790912D01*
X114444628Y-89749973D01*
X114425819Y-89702600D01*
X114404739Y-89649601D01*
X114381709Y-89591787D01*
X114357050Y-89529966D01*
X114331083Y-89464947D01*
X114319228Y-89435288D01*
X114148836Y-89009133D01*
X114017158Y-89007616D01*
X113885479Y-89006099D01*
X113888812Y-89018905D01*
X113888812Y-89018905D01*
G37*
X113888812Y-89018905D02*
X113891443Y-89026336D01*
X113897869Y-89043309D01*
X113907718Y-89068875D01*
X113920621Y-89102084D01*
X113936206Y-89141987D01*
X113954101Y-89187633D01*
X113973937Y-89238074D01*
X113995343Y-89292359D01*
X114017946Y-89349538D01*
X114018375Y-89350622D01*
X114144605Y-89669533D01*
X113956413Y-89671019D01*
X113911602Y-89671460D01*
X113870609Y-89672030D01*
X113834741Y-89672698D01*
X113805308Y-89673433D01*
X113783619Y-89674203D01*
X113770982Y-89674978D01*
X113768222Y-89675513D01*
X113770255Y-89681478D01*
X113775884Y-89696108D01*
X113784410Y-89717632D01*
X113795132Y-89744276D01*
X113804463Y-89767213D01*
X113816799Y-89797748D01*
X113827813Y-89825656D01*
X113836692Y-89848828D01*
X113842624Y-89865155D01*
X113844586Y-89871374D01*
X113848468Y-89886844D01*
X114497116Y-89886844D01*
X114493368Y-89874144D01*
X114490731Y-89867033D01*
X114484217Y-89850251D01*
X114474148Y-89824607D01*
X114460844Y-89790912D01*
X114444628Y-89749973D01*
X114425819Y-89702600D01*
X114404739Y-89649601D01*
X114381709Y-89591787D01*
X114357050Y-89529966D01*
X114331083Y-89464947D01*
X114319228Y-89435288D01*
X114148836Y-89009133D01*
X114017158Y-89007616D01*
X113885479Y-89006099D01*
X113888812Y-89018905D01*
G36*
X109429786Y-89012167D02*
X109363716Y-89012556D01*
X109308537Y-89013207D01*
X109264329Y-89014119D01*
X109231175Y-89015289D01*
X109209155Y-89016716D01*
X109199045Y-89018185D01*
X109167381Y-89032226D01*
X109142341Y-89054316D01*
X109125297Y-89082695D01*
X109117619Y-89115602D01*
X109117324Y-89123141D01*
X109117942Y-89134537D01*
X109120113Y-89148287D01*
X109124147Y-89165286D01*
X109130351Y-89186426D01*
X109139037Y-89212601D01*
X109150513Y-89244705D01*
X109165088Y-89283631D01*
X109183073Y-89330272D01*
X109204776Y-89385521D01*
X109230506Y-89450273D01*
X109231242Y-89452117D01*
X109260938Y-89526051D01*
X109287192Y-89590185D01*
X109310444Y-89645316D01*
X109331137Y-89692244D01*
X109349711Y-89731768D01*
X109366607Y-89764686D01*
X109382265Y-89791797D01*
X109397128Y-89813902D01*
X109411636Y-89831797D01*
X109426230Y-89846282D01*
X109441352Y-89858157D01*
X109457441Y-89868220D01*
X109462462Y-89870972D01*
X109486911Y-89884022D01*
X109774778Y-89885023D01*
X109843720Y-89885147D01*
X109905167Y-89885019D01*
X109958527Y-89884650D01*
X110003210Y-89884048D01*
X110038627Y-89883221D01*
X110064186Y-89882180D01*
X110079298Y-89880932D01*
X110082400Y-89880345D01*
X110109885Y-89866850D01*
X110131988Y-89844716D01*
X110147488Y-89815798D01*
X110155165Y-89781951D01*
X110155778Y-89768827D01*
X110155323Y-89755671D01*
X110153742Y-89741584D01*
X110150705Y-89725593D01*
X110145886Y-89706723D01*
X110138957Y-89684000D01*
X110129590Y-89656451D01*
X110126697Y-89648496D01*
X109849889Y-89648496D01*
X109843807Y-89659628D01*
X109830416Y-89666629D01*
X109808713Y-89670451D01*
X109777699Y-89672043D01*
X109737839Y-89672355D01*
X109697861Y-89671952D01*
X109667395Y-89670652D01*
X109644687Y-89668321D01*
X109627987Y-89664825D01*
X109624197Y-89663635D01*
X109605018Y-89654821D01*
X109587958Y-89643306D01*
X109583801Y-89639463D01*
X109575829Y-89627828D01*
X109564423Y-89606232D01*
X109549884Y-89575368D01*
X109532514Y-89535928D01*
X109512612Y-89488605D01*
X109490481Y-89434091D01*
X109466421Y-89373079D01*
X109453720Y-89340242D01*
X109440580Y-89305888D01*
X109431123Y-89280385D01*
X109424928Y-89262069D01*
X109421574Y-89249275D01*
X109420640Y-89240337D01*
X109421705Y-89233591D01*
X109424348Y-89227372D01*
X109424899Y-89226296D01*
X109434763Y-89213640D01*
X109446492Y-89206412D01*
X109446591Y-89206387D01*
X109456438Y-89205398D01*
X109475398Y-89204743D01*
X109501297Y-89204452D01*
X109531965Y-89204554D01*
X109556161Y-89204894D01*
X109591893Y-89205672D01*
X109618191Y-89206628D01*
X109636908Y-89207983D01*
X109649900Y-89209961D01*
X109659020Y-89212783D01*
X109666123Y-89216673D01*
X109668551Y-89218384D01*
X109686775Y-89236036D01*
X109704710Y-89260594D01*
X109719620Y-89287945D01*
X109726455Y-89305466D01*
X109731144Y-89318737D01*
X109739322Y-89340276D01*
X109750144Y-89367925D01*
X109762766Y-89399528D01*
X109776046Y-89432198D01*
X109790428Y-89467629D01*
X109804595Y-89503168D01*
X109817474Y-89536080D01*
X109827995Y-89563633D01*
X109834289Y-89580814D01*
X109844128Y-89610039D01*
X109849662Y-89632283D01*
X109849889Y-89648496D01*
X110126697Y-89648496D01*
X110117458Y-89623101D01*
X110102233Y-89582975D01*
X110083587Y-89535102D01*
X110061194Y-89478505D01*
X110041701Y-89429644D01*
X110012570Y-89357153D01*
X109986986Y-89294435D01*
X109964517Y-89240698D01*
X109944729Y-89195152D01*
X109927186Y-89157006D01*
X109911457Y-89125468D01*
X109897107Y-89099749D01*
X109883702Y-89079056D01*
X109870809Y-89062600D01*
X109857993Y-89049589D01*
X109844822Y-89039232D01*
X109830861Y-89030738D01*
X109819933Y-89025266D01*
X109791711Y-89012065D01*
X109506667Y-89012042D01*
X109429786Y-89012167D01*
X109429786Y-89012167D01*
G37*
X109429786Y-89012167D02*
X109363716Y-89012556D01*
X109308537Y-89013207D01*
X109264329Y-89014119D01*
X109231175Y-89015289D01*
X109209155Y-89016716D01*
X109199045Y-89018185D01*
X109167381Y-89032226D01*
X109142341Y-89054316D01*
X109125297Y-89082695D01*
X109117619Y-89115602D01*
X109117324Y-89123141D01*
X109117942Y-89134537D01*
X109120113Y-89148287D01*
X109124147Y-89165286D01*
X109130351Y-89186426D01*
X109139037Y-89212601D01*
X109150513Y-89244705D01*
X109165088Y-89283631D01*
X109183073Y-89330272D01*
X109204776Y-89385521D01*
X109230506Y-89450273D01*
X109231242Y-89452117D01*
X109260938Y-89526051D01*
X109287192Y-89590185D01*
X109310444Y-89645316D01*
X109331137Y-89692244D01*
X109349711Y-89731768D01*
X109366607Y-89764686D01*
X109382265Y-89791797D01*
X109397128Y-89813902D01*
X109411636Y-89831797D01*
X109426230Y-89846282D01*
X109441352Y-89858157D01*
X109457441Y-89868220D01*
X109462462Y-89870972D01*
X109486911Y-89884022D01*
X109774778Y-89885023D01*
X109843720Y-89885147D01*
X109905167Y-89885019D01*
X109958527Y-89884650D01*
X110003210Y-89884048D01*
X110038627Y-89883221D01*
X110064186Y-89882180D01*
X110079298Y-89880932D01*
X110082400Y-89880345D01*
X110109885Y-89866850D01*
X110131988Y-89844716D01*
X110147488Y-89815798D01*
X110155165Y-89781951D01*
X110155778Y-89768827D01*
X110155323Y-89755671D01*
X110153742Y-89741584D01*
X110150705Y-89725593D01*
X110145886Y-89706723D01*
X110138957Y-89684000D01*
X110129590Y-89656451D01*
X110126697Y-89648496D01*
X109849889Y-89648496D01*
X109843807Y-89659628D01*
X109830416Y-89666629D01*
X109808713Y-89670451D01*
X109777699Y-89672043D01*
X109737839Y-89672355D01*
X109697861Y-89671952D01*
X109667395Y-89670652D01*
X109644687Y-89668321D01*
X109627987Y-89664825D01*
X109624197Y-89663635D01*
X109605018Y-89654821D01*
X109587958Y-89643306D01*
X109583801Y-89639463D01*
X109575829Y-89627828D01*
X109564423Y-89606232D01*
X109549884Y-89575368D01*
X109532514Y-89535928D01*
X109512612Y-89488605D01*
X109490481Y-89434091D01*
X109466421Y-89373079D01*
X109453720Y-89340242D01*
X109440580Y-89305888D01*
X109431123Y-89280385D01*
X109424928Y-89262069D01*
X109421574Y-89249275D01*
X109420640Y-89240337D01*
X109421705Y-89233591D01*
X109424348Y-89227372D01*
X109424899Y-89226296D01*
X109434763Y-89213640D01*
X109446492Y-89206412D01*
X109446591Y-89206387D01*
X109456438Y-89205398D01*
X109475398Y-89204743D01*
X109501297Y-89204452D01*
X109531965Y-89204554D01*
X109556161Y-89204894D01*
X109591893Y-89205672D01*
X109618191Y-89206628D01*
X109636908Y-89207983D01*
X109649900Y-89209961D01*
X109659020Y-89212783D01*
X109666123Y-89216673D01*
X109668551Y-89218384D01*
X109686775Y-89236036D01*
X109704710Y-89260594D01*
X109719620Y-89287945D01*
X109726455Y-89305466D01*
X109731144Y-89318737D01*
X109739322Y-89340276D01*
X109750144Y-89367925D01*
X109762766Y-89399528D01*
X109776046Y-89432198D01*
X109790428Y-89467629D01*
X109804595Y-89503168D01*
X109817474Y-89536080D01*
X109827995Y-89563633D01*
X109834289Y-89580814D01*
X109844128Y-89610039D01*
X109849662Y-89632283D01*
X109849889Y-89648496D01*
X110126697Y-89648496D01*
X110117458Y-89623101D01*
X110102233Y-89582975D01*
X110083587Y-89535102D01*
X110061194Y-89478505D01*
X110041701Y-89429644D01*
X110012570Y-89357153D01*
X109986986Y-89294435D01*
X109964517Y-89240698D01*
X109944729Y-89195152D01*
X109927186Y-89157006D01*
X109911457Y-89125468D01*
X109897107Y-89099749D01*
X109883702Y-89079056D01*
X109870809Y-89062600D01*
X109857993Y-89049589D01*
X109844822Y-89039232D01*
X109830861Y-89030738D01*
X109819933Y-89025266D01*
X109791711Y-89012065D01*
X109506667Y-89012042D01*
X109429786Y-89012167D01*
G36*
X108507759Y-89011989D02*
X108447891Y-89012108D01*
X108396921Y-89012364D01*
X108354053Y-89012808D01*
X108318490Y-89013491D01*
X108289435Y-89014464D01*
X108266091Y-89015778D01*
X108247661Y-89017486D01*
X108233349Y-89019637D01*
X108222357Y-89022284D01*
X108213889Y-89025477D01*
X108207148Y-89029268D01*
X108201337Y-89033708D01*
X108195660Y-89038849D01*
X108192450Y-89041858D01*
X108174458Y-89062828D01*
X108163067Y-89086781D01*
X108158266Y-89114878D01*
X108160042Y-89148281D01*
X108168383Y-89188151D01*
X108183276Y-89235649D01*
X108190174Y-89254666D01*
X108197924Y-89274996D01*
X108209380Y-89304442D01*
X108224006Y-89341660D01*
X108241270Y-89385304D01*
X108260637Y-89434027D01*
X108281574Y-89486485D01*
X108303545Y-89541331D01*
X108326019Y-89597220D01*
X108330654Y-89608722D01*
X108442689Y-89886577D01*
X108573922Y-89886710D01*
X108621234Y-89886538D01*
X108657636Y-89885901D01*
X108683499Y-89884784D01*
X108699193Y-89883169D01*
X108705089Y-89881040D01*
X108705156Y-89880751D01*
X108703123Y-89874541D01*
X108697269Y-89858780D01*
X108687956Y-89834401D01*
X108675548Y-89802336D01*
X108660410Y-89763519D01*
X108642905Y-89718883D01*
X108623396Y-89669360D01*
X108602248Y-89615884D01*
X108580978Y-89562288D01*
X108558555Y-89505649D01*
X108537433Y-89451843D01*
X108517980Y-89401834D01*
X108500560Y-89356587D01*
X108485542Y-89317065D01*
X108473292Y-89284233D01*
X108464175Y-89259055D01*
X108458560Y-89242494D01*
X108456800Y-89235679D01*
X108457696Y-89225865D01*
X108461229Y-89218285D01*
X108468670Y-89212656D01*
X108481288Y-89208696D01*
X108500352Y-89206121D01*
X108527132Y-89204647D01*
X108562898Y-89203992D01*
X108599368Y-89203866D01*
X108716846Y-89203866D01*
X108728689Y-89230677D01*
X108732913Y-89240721D01*
X108740920Y-89260233D01*
X108752299Y-89288198D01*
X108766642Y-89323603D01*
X108783539Y-89365434D01*
X108802580Y-89412676D01*
X108823355Y-89464316D01*
X108845454Y-89519340D01*
X108866074Y-89570755D01*
X108991616Y-89884022D01*
X109122780Y-89885538D01*
X109253944Y-89887055D01*
X109250026Y-89871427D01*
X109247274Y-89863533D01*
X109240675Y-89846108D01*
X109230601Y-89820095D01*
X109217424Y-89786436D01*
X109201514Y-89746072D01*
X109183243Y-89699944D01*
X109162983Y-89648995D01*
X109141104Y-89594165D01*
X109117978Y-89536397D01*
X109114249Y-89527098D01*
X108982388Y-89198396D01*
X109020790Y-89117730D01*
X109034270Y-89089156D01*
X109046210Y-89063365D01*
X109055662Y-89042441D01*
X109061678Y-89028465D01*
X109063176Y-89024509D01*
X109067161Y-89011955D01*
X108577322Y-89011955D01*
X108507759Y-89011989D01*
X108507759Y-89011989D01*
G37*
X108507759Y-89011989D02*
X108447891Y-89012108D01*
X108396921Y-89012364D01*
X108354053Y-89012808D01*
X108318490Y-89013491D01*
X108289435Y-89014464D01*
X108266091Y-89015778D01*
X108247661Y-89017486D01*
X108233349Y-89019637D01*
X108222357Y-89022284D01*
X108213889Y-89025477D01*
X108207148Y-89029268D01*
X108201337Y-89033708D01*
X108195660Y-89038849D01*
X108192450Y-89041858D01*
X108174458Y-89062828D01*
X108163067Y-89086781D01*
X108158266Y-89114878D01*
X108160042Y-89148281D01*
X108168383Y-89188151D01*
X108183276Y-89235649D01*
X108190174Y-89254666D01*
X108197924Y-89274996D01*
X108209380Y-89304442D01*
X108224006Y-89341660D01*
X108241270Y-89385304D01*
X108260637Y-89434027D01*
X108281574Y-89486485D01*
X108303545Y-89541331D01*
X108326019Y-89597220D01*
X108330654Y-89608722D01*
X108442689Y-89886577D01*
X108573922Y-89886710D01*
X108621234Y-89886538D01*
X108657636Y-89885901D01*
X108683499Y-89884784D01*
X108699193Y-89883169D01*
X108705089Y-89881040D01*
X108705156Y-89880751D01*
X108703123Y-89874541D01*
X108697269Y-89858780D01*
X108687956Y-89834401D01*
X108675548Y-89802336D01*
X108660410Y-89763519D01*
X108642905Y-89718883D01*
X108623396Y-89669360D01*
X108602248Y-89615884D01*
X108580978Y-89562288D01*
X108558555Y-89505649D01*
X108537433Y-89451843D01*
X108517980Y-89401834D01*
X108500560Y-89356587D01*
X108485542Y-89317065D01*
X108473292Y-89284233D01*
X108464175Y-89259055D01*
X108458560Y-89242494D01*
X108456800Y-89235679D01*
X108457696Y-89225865D01*
X108461229Y-89218285D01*
X108468670Y-89212656D01*
X108481288Y-89208696D01*
X108500352Y-89206121D01*
X108527132Y-89204647D01*
X108562898Y-89203992D01*
X108599368Y-89203866D01*
X108716846Y-89203866D01*
X108728689Y-89230677D01*
X108732913Y-89240721D01*
X108740920Y-89260233D01*
X108752299Y-89288198D01*
X108766642Y-89323603D01*
X108783539Y-89365434D01*
X108802580Y-89412676D01*
X108823355Y-89464316D01*
X108845454Y-89519340D01*
X108866074Y-89570755D01*
X108991616Y-89884022D01*
X109122780Y-89885538D01*
X109253944Y-89887055D01*
X109250026Y-89871427D01*
X109247274Y-89863533D01*
X109240675Y-89846108D01*
X109230601Y-89820095D01*
X109217424Y-89786436D01*
X109201514Y-89746072D01*
X109183243Y-89699944D01*
X109162983Y-89648995D01*
X109141104Y-89594165D01*
X109117978Y-89536397D01*
X109114249Y-89527098D01*
X108982388Y-89198396D01*
X109020790Y-89117730D01*
X109034270Y-89089156D01*
X109046210Y-89063365D01*
X109055662Y-89042441D01*
X109061678Y-89028465D01*
X109063176Y-89024509D01*
X109067161Y-89011955D01*
X108577322Y-89011955D01*
X108507759Y-89011989D01*
G36*
X114736952Y-89006362D02*
X114670462Y-89006510D01*
X114608181Y-89006748D01*
X114550960Y-89007067D01*
X114499648Y-89007459D01*
X114455096Y-89007917D01*
X114418154Y-89008433D01*
X114389672Y-89008998D01*
X114370500Y-89009605D01*
X114361488Y-89010245D01*
X114360889Y-89010461D01*
X114362823Y-89016843D01*
X114368184Y-89031958D01*
X114376316Y-89054016D01*
X114386558Y-89081228D01*
X114396167Y-89106381D01*
X114431445Y-89198150D01*
X114667454Y-89198186D01*
X114903464Y-89198222D01*
X114920054Y-89234811D01*
X114931339Y-89260716D01*
X114943174Y-89289438D01*
X114950491Y-89308188D01*
X114964339Y-89344977D01*
X114781147Y-89344977D01*
X114728388Y-89345072D01*
X114686011Y-89345380D01*
X114653111Y-89345934D01*
X114628782Y-89346771D01*
X114612118Y-89347924D01*
X114602214Y-89349427D01*
X114598164Y-89351315D01*
X114597956Y-89351952D01*
X114599902Y-89359389D01*
X114605275Y-89375364D01*
X114613373Y-89397910D01*
X114623498Y-89425058D01*
X114630072Y-89442263D01*
X114662187Y-89525600D01*
X115037169Y-89525600D01*
X115055400Y-89569344D01*
X115065601Y-89594477D01*
X115075537Y-89620046D01*
X115083221Y-89640929D01*
X115083845Y-89642722D01*
X115094059Y-89672355D01*
X114878463Y-89672495D01*
X114662867Y-89672636D01*
X114617711Y-89771677D01*
X114603579Y-89802729D01*
X114591059Y-89830345D01*
X114580906Y-89852848D01*
X114573878Y-89868560D01*
X114570732Y-89875806D01*
X114570674Y-89875959D01*
X114575869Y-89876930D01*
X114591836Y-89877819D01*
X114618056Y-89878618D01*
X114654012Y-89879322D01*
X114699187Y-89879924D01*
X114753064Y-89880417D01*
X114815124Y-89880795D01*
X114884852Y-89881053D01*
X114961728Y-89881184D01*
X115001063Y-89881200D01*
X115433333Y-89881200D01*
X115433333Y-89865006D01*
X115431266Y-89856935D01*
X115425314Y-89839384D01*
X115415847Y-89813325D01*
X115403240Y-89779731D01*
X115387865Y-89739577D01*
X115370093Y-89693836D01*
X115350298Y-89643482D01*
X115328852Y-89589488D01*
X115308630Y-89539039D01*
X115285911Y-89482555D01*
X115264338Y-89428825D01*
X115244301Y-89378827D01*
X115226190Y-89333541D01*
X115210396Y-89293945D01*
X115197310Y-89261017D01*
X115187321Y-89235736D01*
X115180820Y-89219081D01*
X115178291Y-89212326D01*
X115176650Y-89205029D01*
X115176970Y-89196584D01*
X115179830Y-89185259D01*
X115185811Y-89169325D01*
X115195494Y-89147050D01*
X115209460Y-89116704D01*
X115212684Y-89109802D01*
X115226036Y-89080739D01*
X115237499Y-89054804D01*
X115246267Y-89033899D01*
X115251536Y-89019927D01*
X115252711Y-89015264D01*
X115251926Y-89013621D01*
X115249092Y-89012189D01*
X115243489Y-89010956D01*
X115234398Y-89009905D01*
X115221101Y-89009024D01*
X115202877Y-89008297D01*
X115179009Y-89007710D01*
X115148777Y-89007249D01*
X115111462Y-89006899D01*
X115066345Y-89006646D01*
X115012707Y-89006475D01*
X114949829Y-89006371D01*
X114876991Y-89006322D01*
X114806800Y-89006311D01*
X114736952Y-89006362D01*
X114736952Y-89006362D01*
G37*
X114736952Y-89006362D02*
X114670462Y-89006510D01*
X114608181Y-89006748D01*
X114550960Y-89007067D01*
X114499648Y-89007459D01*
X114455096Y-89007917D01*
X114418154Y-89008433D01*
X114389672Y-89008998D01*
X114370500Y-89009605D01*
X114361488Y-89010245D01*
X114360889Y-89010461D01*
X114362823Y-89016843D01*
X114368184Y-89031958D01*
X114376316Y-89054016D01*
X114386558Y-89081228D01*
X114396167Y-89106381D01*
X114431445Y-89198150D01*
X114667454Y-89198186D01*
X114903464Y-89198222D01*
X114920054Y-89234811D01*
X114931339Y-89260716D01*
X114943174Y-89289438D01*
X114950491Y-89308188D01*
X114964339Y-89344977D01*
X114781147Y-89344977D01*
X114728388Y-89345072D01*
X114686011Y-89345380D01*
X114653111Y-89345934D01*
X114628782Y-89346771D01*
X114612118Y-89347924D01*
X114602214Y-89349427D01*
X114598164Y-89351315D01*
X114597956Y-89351952D01*
X114599902Y-89359389D01*
X114605275Y-89375364D01*
X114613373Y-89397910D01*
X114623498Y-89425058D01*
X114630072Y-89442263D01*
X114662187Y-89525600D01*
X115037169Y-89525600D01*
X115055400Y-89569344D01*
X115065601Y-89594477D01*
X115075537Y-89620046D01*
X115083221Y-89640929D01*
X115083845Y-89642722D01*
X115094059Y-89672355D01*
X114878463Y-89672495D01*
X114662867Y-89672636D01*
X114617711Y-89771677D01*
X114603579Y-89802729D01*
X114591059Y-89830345D01*
X114580906Y-89852848D01*
X114573878Y-89868560D01*
X114570732Y-89875806D01*
X114570674Y-89875959D01*
X114575869Y-89876930D01*
X114591836Y-89877819D01*
X114618056Y-89878618D01*
X114654012Y-89879322D01*
X114699187Y-89879924D01*
X114753064Y-89880417D01*
X114815124Y-89880795D01*
X114884852Y-89881053D01*
X114961728Y-89881184D01*
X115001063Y-89881200D01*
X115433333Y-89881200D01*
X115433333Y-89865006D01*
X115431266Y-89856935D01*
X115425314Y-89839384D01*
X115415847Y-89813325D01*
X115403240Y-89779731D01*
X115387865Y-89739577D01*
X115370093Y-89693836D01*
X115350298Y-89643482D01*
X115328852Y-89589488D01*
X115308630Y-89539039D01*
X115285911Y-89482555D01*
X115264338Y-89428825D01*
X115244301Y-89378827D01*
X115226190Y-89333541D01*
X115210396Y-89293945D01*
X115197310Y-89261017D01*
X115187321Y-89235736D01*
X115180820Y-89219081D01*
X115178291Y-89212326D01*
X115176650Y-89205029D01*
X115176970Y-89196584D01*
X115179830Y-89185259D01*
X115185811Y-89169325D01*
X115195494Y-89147050D01*
X115209460Y-89116704D01*
X115212684Y-89109802D01*
X115226036Y-89080739D01*
X115237499Y-89054804D01*
X115246267Y-89033899D01*
X115251536Y-89019927D01*
X115252711Y-89015264D01*
X115251926Y-89013621D01*
X115249092Y-89012189D01*
X115243489Y-89010956D01*
X115234398Y-89009905D01*
X115221101Y-89009024D01*
X115202877Y-89008297D01*
X115179009Y-89007710D01*
X115148777Y-89007249D01*
X115111462Y-89006899D01*
X115066345Y-89006646D01*
X115012707Y-89006475D01*
X114949829Y-89006371D01*
X114876991Y-89006322D01*
X114806800Y-89006311D01*
X114736952Y-89006362D01*
G36*
X113035961Y-89006382D02*
X112952790Y-89006597D01*
X112880869Y-89006955D01*
X112820178Y-89007456D01*
X112770699Y-89008102D01*
X112732412Y-89008892D01*
X112705298Y-89009826D01*
X112689338Y-89010904D01*
X112684489Y-89012042D01*
X112686432Y-89018971D01*
X112691817Y-89034567D01*
X112699973Y-89056985D01*
X112710231Y-89084377D01*
X112719235Y-89107937D01*
X112753981Y-89198101D01*
X112991553Y-89199572D01*
X113229126Y-89201044D01*
X113258437Y-89273011D01*
X113287747Y-89344977D01*
X112920145Y-89344977D01*
X112923277Y-89360500D01*
X112926438Y-89371312D01*
X112932933Y-89390196D01*
X112941900Y-89414747D01*
X112952475Y-89442557D01*
X112955688Y-89450811D01*
X112984968Y-89525600D01*
X113169882Y-89525600D01*
X113223657Y-89525703D01*
X113267055Y-89526037D01*
X113300982Y-89526635D01*
X113326349Y-89527529D01*
X113344064Y-89528755D01*
X113355036Y-89530346D01*
X113360173Y-89532334D01*
X113360485Y-89532655D01*
X113364671Y-89540429D01*
X113371897Y-89556431D01*
X113381160Y-89578348D01*
X113391454Y-89603869D01*
X113391751Y-89604622D01*
X113417327Y-89669533D01*
X113201597Y-89671009D01*
X112985867Y-89672486D01*
X112939600Y-89773227D01*
X112925372Y-89804383D01*
X112912917Y-89831994D01*
X112902953Y-89854438D01*
X112896200Y-89870094D01*
X112893375Y-89877342D01*
X112893333Y-89877584D01*
X112898835Y-89878157D01*
X112914764Y-89878702D01*
X112940261Y-89879212D01*
X112974465Y-89879680D01*
X113016516Y-89880098D01*
X113065553Y-89880460D01*
X113120715Y-89880758D01*
X113181142Y-89880985D01*
X113245973Y-89881134D01*
X113314348Y-89881198D01*
X113328568Y-89881200D01*
X113763802Y-89881200D01*
X113759909Y-89865677D01*
X113757155Y-89857776D01*
X113750558Y-89840355D01*
X113740494Y-89814365D01*
X113727338Y-89780758D01*
X113711464Y-89740484D01*
X113693249Y-89694496D01*
X113673066Y-89643744D01*
X113651291Y-89589181D01*
X113628299Y-89531756D01*
X113626653Y-89527652D01*
X113603711Y-89470327D01*
X113582068Y-89415995D01*
X113562087Y-89365581D01*
X113544128Y-89320008D01*
X113528552Y-89280199D01*
X113515721Y-89247079D01*
X113505996Y-89221570D01*
X113499738Y-89204596D01*
X113497308Y-89197081D01*
X113497289Y-89196894D01*
X113499627Y-89189206D01*
X113506088Y-89173285D01*
X113515842Y-89151044D01*
X113528059Y-89124395D01*
X113536800Y-89105882D01*
X113550161Y-89077400D01*
X113561590Y-89052086D01*
X113570258Y-89031856D01*
X113575332Y-89018627D01*
X113576311Y-89014718D01*
X113575276Y-89013168D01*
X113571699Y-89011817D01*
X113564872Y-89010652D01*
X113554090Y-89009660D01*
X113538646Y-89008828D01*
X113517831Y-89008142D01*
X113490941Y-89007589D01*
X113457266Y-89007155D01*
X113416102Y-89006827D01*
X113366741Y-89006593D01*
X113308475Y-89006438D01*
X113240598Y-89006349D01*
X113162404Y-89006313D01*
X113130400Y-89006311D01*
X113035961Y-89006382D01*
X113035961Y-89006382D01*
G37*
X113035961Y-89006382D02*
X112952790Y-89006597D01*
X112880869Y-89006955D01*
X112820178Y-89007456D01*
X112770699Y-89008102D01*
X112732412Y-89008892D01*
X112705298Y-89009826D01*
X112689338Y-89010904D01*
X112684489Y-89012042D01*
X112686432Y-89018971D01*
X112691817Y-89034567D01*
X112699973Y-89056985D01*
X112710231Y-89084377D01*
X112719235Y-89107937D01*
X112753981Y-89198101D01*
X112991553Y-89199572D01*
X113229126Y-89201044D01*
X113258437Y-89273011D01*
X113287747Y-89344977D01*
X112920145Y-89344977D01*
X112923277Y-89360500D01*
X112926438Y-89371312D01*
X112932933Y-89390196D01*
X112941900Y-89414747D01*
X112952475Y-89442557D01*
X112955688Y-89450811D01*
X112984968Y-89525600D01*
X113169882Y-89525600D01*
X113223657Y-89525703D01*
X113267055Y-89526037D01*
X113300982Y-89526635D01*
X113326349Y-89527529D01*
X113344064Y-89528755D01*
X113355036Y-89530346D01*
X113360173Y-89532334D01*
X113360485Y-89532655D01*
X113364671Y-89540429D01*
X113371897Y-89556431D01*
X113381160Y-89578348D01*
X113391454Y-89603869D01*
X113391751Y-89604622D01*
X113417327Y-89669533D01*
X113201597Y-89671009D01*
X112985867Y-89672486D01*
X112939600Y-89773227D01*
X112925372Y-89804383D01*
X112912917Y-89831994D01*
X112902953Y-89854438D01*
X112896200Y-89870094D01*
X112893375Y-89877342D01*
X112893333Y-89877584D01*
X112898835Y-89878157D01*
X112914764Y-89878702D01*
X112940261Y-89879212D01*
X112974465Y-89879680D01*
X113016516Y-89880098D01*
X113065553Y-89880460D01*
X113120715Y-89880758D01*
X113181142Y-89880985D01*
X113245973Y-89881134D01*
X113314348Y-89881198D01*
X113328568Y-89881200D01*
X113763802Y-89881200D01*
X113759909Y-89865677D01*
X113757155Y-89857776D01*
X113750558Y-89840355D01*
X113740494Y-89814365D01*
X113727338Y-89780758D01*
X113711464Y-89740484D01*
X113693249Y-89694496D01*
X113673066Y-89643744D01*
X113651291Y-89589181D01*
X113628299Y-89531756D01*
X113626653Y-89527652D01*
X113603711Y-89470327D01*
X113582068Y-89415995D01*
X113562087Y-89365581D01*
X113544128Y-89320008D01*
X113528552Y-89280199D01*
X113515721Y-89247079D01*
X113505996Y-89221570D01*
X113499738Y-89204596D01*
X113497308Y-89197081D01*
X113497289Y-89196894D01*
X113499627Y-89189206D01*
X113506088Y-89173285D01*
X113515842Y-89151044D01*
X113528059Y-89124395D01*
X113536800Y-89105882D01*
X113550161Y-89077400D01*
X113561590Y-89052086D01*
X113570258Y-89031856D01*
X113575332Y-89018627D01*
X113576311Y-89014718D01*
X113575276Y-89013168D01*
X113571699Y-89011817D01*
X113564872Y-89010652D01*
X113554090Y-89009660D01*
X113538646Y-89008828D01*
X113517831Y-89008142D01*
X113490941Y-89007589D01*
X113457266Y-89007155D01*
X113416102Y-89006827D01*
X113366741Y-89006593D01*
X113308475Y-89006438D01*
X113240598Y-89006349D01*
X113162404Y-89006313D01*
X113130400Y-89006311D01*
X113035961Y-89006382D01*
G36*
X112124832Y-89012154D02*
X112061767Y-89012441D01*
X112008697Y-89012935D01*
X111965859Y-89013632D01*
X111933490Y-89014527D01*
X111911826Y-89015617D01*
X111901104Y-89016897D01*
X111899911Y-89017549D01*
X111901895Y-89024436D01*
X111907383Y-89039936D01*
X111915683Y-89062185D01*
X111926104Y-89089317D01*
X111934474Y-89110683D01*
X111969036Y-89198222D01*
X112144729Y-89198253D01*
X112200347Y-89198479D01*
X112248056Y-89199122D01*
X112287123Y-89200156D01*
X112316814Y-89201561D01*
X112336395Y-89203311D01*
X112343000Y-89204522D01*
X112367475Y-89216567D01*
X112390328Y-89237611D01*
X112409404Y-89265378D01*
X112417827Y-89283512D01*
X112422769Y-89296069D01*
X112431299Y-89317616D01*
X112442821Y-89346657D01*
X112456742Y-89381695D01*
X112472468Y-89421235D01*
X112489404Y-89463780D01*
X112500538Y-89491733D01*
X112571383Y-89669533D01*
X112210501Y-89675177D01*
X112190119Y-89717511D01*
X112175074Y-89749171D01*
X112160406Y-89780777D01*
X112146903Y-89810556D01*
X112135349Y-89836734D01*
X112126532Y-89857538D01*
X112121236Y-89871196D01*
X112120045Y-89875590D01*
X112125656Y-89876913D01*
X112142362Y-89878060D01*
X112169968Y-89879027D01*
X112208281Y-89879812D01*
X112257108Y-89880412D01*
X112316255Y-89880822D01*
X112385528Y-89881041D01*
X112446011Y-89881076D01*
X112515109Y-89881033D01*
X112573838Y-89880943D01*
X112623121Y-89880777D01*
X112663877Y-89880507D01*
X112697028Y-89880104D01*
X112723495Y-89879539D01*
X112744198Y-89878784D01*
X112760058Y-89877810D01*
X112771997Y-89876589D01*
X112780935Y-89875092D01*
X112787794Y-89873290D01*
X112793493Y-89871156D01*
X112795594Y-89870230D01*
X112821734Y-89852793D01*
X112839929Y-89827682D01*
X112850346Y-89794605D01*
X112852914Y-89771228D01*
X112852868Y-89752525D01*
X112850645Y-89732019D01*
X112845874Y-89708497D01*
X112838186Y-89680747D01*
X112827211Y-89647555D01*
X112812579Y-89607709D01*
X112793919Y-89559995D01*
X112771964Y-89505885D01*
X112755462Y-89465431D01*
X112736607Y-89418766D01*
X112717132Y-89370206D01*
X112698769Y-89324065D01*
X112687950Y-89296650D01*
X112665873Y-89241233D01*
X112646853Y-89195348D01*
X112630311Y-89157840D01*
X112615672Y-89127552D01*
X112602359Y-89103330D01*
X112589795Y-89084017D01*
X112577403Y-89068457D01*
X112570435Y-89061062D01*
X112560215Y-89050743D01*
X112551184Y-89041987D01*
X112542362Y-89034666D01*
X112532773Y-89028651D01*
X112521437Y-89023813D01*
X112507378Y-89020025D01*
X112489618Y-89017157D01*
X112467179Y-89015082D01*
X112439082Y-89013670D01*
X112404350Y-89012793D01*
X112362005Y-89012323D01*
X112311070Y-89012132D01*
X112250566Y-89012090D01*
X112197656Y-89012079D01*
X112124832Y-89012154D01*
X112124832Y-89012154D01*
G37*
X112124832Y-89012154D02*
X112061767Y-89012441D01*
X112008697Y-89012935D01*
X111965859Y-89013632D01*
X111933490Y-89014527D01*
X111911826Y-89015617D01*
X111901104Y-89016897D01*
X111899911Y-89017549D01*
X111901895Y-89024436D01*
X111907383Y-89039936D01*
X111915683Y-89062185D01*
X111926104Y-89089317D01*
X111934474Y-89110683D01*
X111969036Y-89198222D01*
X112144729Y-89198253D01*
X112200347Y-89198479D01*
X112248056Y-89199122D01*
X112287123Y-89200156D01*
X112316814Y-89201561D01*
X112336395Y-89203311D01*
X112343000Y-89204522D01*
X112367475Y-89216567D01*
X112390328Y-89237611D01*
X112409404Y-89265378D01*
X112417827Y-89283512D01*
X112422769Y-89296069D01*
X112431299Y-89317616D01*
X112442821Y-89346657D01*
X112456742Y-89381695D01*
X112472468Y-89421235D01*
X112489404Y-89463780D01*
X112500538Y-89491733D01*
X112571383Y-89669533D01*
X112210501Y-89675177D01*
X112190119Y-89717511D01*
X112175074Y-89749171D01*
X112160406Y-89780777D01*
X112146903Y-89810556D01*
X112135349Y-89836734D01*
X112126532Y-89857538D01*
X112121236Y-89871196D01*
X112120045Y-89875590D01*
X112125656Y-89876913D01*
X112142362Y-89878060D01*
X112169968Y-89879027D01*
X112208281Y-89879812D01*
X112257108Y-89880412D01*
X112316255Y-89880822D01*
X112385528Y-89881041D01*
X112446011Y-89881076D01*
X112515109Y-89881033D01*
X112573838Y-89880943D01*
X112623121Y-89880777D01*
X112663877Y-89880507D01*
X112697028Y-89880104D01*
X112723495Y-89879539D01*
X112744198Y-89878784D01*
X112760058Y-89877810D01*
X112771997Y-89876589D01*
X112780935Y-89875092D01*
X112787794Y-89873290D01*
X112793493Y-89871156D01*
X112795594Y-89870230D01*
X112821734Y-89852793D01*
X112839929Y-89827682D01*
X112850346Y-89794605D01*
X112852914Y-89771228D01*
X112852868Y-89752525D01*
X112850645Y-89732019D01*
X112845874Y-89708497D01*
X112838186Y-89680747D01*
X112827211Y-89647555D01*
X112812579Y-89607709D01*
X112793919Y-89559995D01*
X112771964Y-89505885D01*
X112755462Y-89465431D01*
X112736607Y-89418766D01*
X112717132Y-89370206D01*
X112698769Y-89324065D01*
X112687950Y-89296650D01*
X112665873Y-89241233D01*
X112646853Y-89195348D01*
X112630311Y-89157840D01*
X112615672Y-89127552D01*
X112602359Y-89103330D01*
X112589795Y-89084017D01*
X112577403Y-89068457D01*
X112570435Y-89061062D01*
X112560215Y-89050743D01*
X112551184Y-89041987D01*
X112542362Y-89034666D01*
X112532773Y-89028651D01*
X112521437Y-89023813D01*
X112507378Y-89020025D01*
X112489618Y-89017157D01*
X112467179Y-89015082D01*
X112439082Y-89013670D01*
X112404350Y-89012793D01*
X112362005Y-89012323D01*
X112311070Y-89012132D01*
X112250566Y-89012090D01*
X112197656Y-89012079D01*
X112124832Y-89012154D01*
G36*
X111163399Y-89007373D02*
X111121994Y-89007618D01*
X111088449Y-89008011D01*
X111062079Y-89008565D01*
X111042198Y-89009287D01*
X111028120Y-89010188D01*
X111019161Y-89011279D01*
X111014634Y-89012569D01*
X111013733Y-89013635D01*
X111015702Y-89021166D01*
X111021148Y-89037261D01*
X111029377Y-89059993D01*
X111039698Y-89087435D01*
X111047600Y-89107911D01*
X111058885Y-89136958D01*
X111068576Y-89162091D01*
X111075994Y-89181533D01*
X111080460Y-89193508D01*
X111081467Y-89196504D01*
X111086845Y-89196999D01*
X111101915Y-89197438D01*
X111125080Y-89197799D01*
X111154743Y-89198062D01*
X111189306Y-89198203D01*
X111207845Y-89198222D01*
X111334224Y-89198222D01*
X111346853Y-89225033D01*
X111354124Y-89241407D01*
X111363995Y-89264902D01*
X111375046Y-89292089D01*
X111383680Y-89313933D01*
X111390980Y-89332525D01*
X111401897Y-89360143D01*
X111415853Y-89395333D01*
X111432270Y-89436642D01*
X111450571Y-89482615D01*
X111470177Y-89531799D01*
X111490509Y-89582739D01*
X111501508Y-89610266D01*
X111521156Y-89659492D01*
X111539675Y-89706022D01*
X111556606Y-89748695D01*
X111571492Y-89786350D01*
X111583873Y-89817824D01*
X111593291Y-89841958D01*
X111599288Y-89857589D01*
X111601206Y-89862855D01*
X111607276Y-89881200D01*
X111739482Y-89881200D01*
X111785002Y-89880964D01*
X111821550Y-89880272D01*
X111848556Y-89879149D01*
X111865452Y-89877618D01*
X111871668Y-89875705D01*
X111871689Y-89875576D01*
X111869643Y-89869477D01*
X111863744Y-89853812D01*
X111854351Y-89829492D01*
X111841820Y-89797426D01*
X111826510Y-89758522D01*
X111808779Y-89713691D01*
X111788985Y-89663840D01*
X111767485Y-89609881D01*
X111744639Y-89552721D01*
X111741133Y-89543965D01*
X111718038Y-89486250D01*
X111696159Y-89431484D01*
X111675865Y-89380593D01*
X111657522Y-89334502D01*
X111641498Y-89294137D01*
X111628160Y-89260422D01*
X111617876Y-89234283D01*
X111611012Y-89216646D01*
X111607935Y-89208435D01*
X111607830Y-89208100D01*
X111607636Y-89205084D01*
X111609768Y-89202751D01*
X111615478Y-89201014D01*
X111626015Y-89199786D01*
X111642629Y-89198980D01*
X111666570Y-89198509D01*
X111699088Y-89198285D01*
X111741433Y-89198223D01*
X111749675Y-89198222D01*
X111793875Y-89198174D01*
X111828059Y-89197974D01*
X111853498Y-89197533D01*
X111871465Y-89196765D01*
X111883232Y-89195584D01*
X111890071Y-89193900D01*
X111893255Y-89191629D01*
X111894054Y-89188683D01*
X111894052Y-89188344D01*
X111892028Y-89179889D01*
X111886580Y-89162962D01*
X111878409Y-89139599D01*
X111868220Y-89111833D01*
X111861388Y-89093800D01*
X111828939Y-89009133D01*
X111421336Y-89007685D01*
X111341633Y-89007433D01*
X111272533Y-89007290D01*
X111213350Y-89007267D01*
X111163399Y-89007373D01*
X111163399Y-89007373D01*
G37*
X111163399Y-89007373D02*
X111121994Y-89007618D01*
X111088449Y-89008011D01*
X111062079Y-89008565D01*
X111042198Y-89009287D01*
X111028120Y-89010188D01*
X111019161Y-89011279D01*
X111014634Y-89012569D01*
X111013733Y-89013635D01*
X111015702Y-89021166D01*
X111021148Y-89037261D01*
X111029377Y-89059993D01*
X111039698Y-89087435D01*
X111047600Y-89107911D01*
X111058885Y-89136958D01*
X111068576Y-89162091D01*
X111075994Y-89181533D01*
X111080460Y-89193508D01*
X111081467Y-89196504D01*
X111086845Y-89196999D01*
X111101915Y-89197438D01*
X111125080Y-89197799D01*
X111154743Y-89198062D01*
X111189306Y-89198203D01*
X111207845Y-89198222D01*
X111334224Y-89198222D01*
X111346853Y-89225033D01*
X111354124Y-89241407D01*
X111363995Y-89264902D01*
X111375046Y-89292089D01*
X111383680Y-89313933D01*
X111390980Y-89332525D01*
X111401897Y-89360143D01*
X111415853Y-89395333D01*
X111432270Y-89436642D01*
X111450571Y-89482615D01*
X111470177Y-89531799D01*
X111490509Y-89582739D01*
X111501508Y-89610266D01*
X111521156Y-89659492D01*
X111539675Y-89706022D01*
X111556606Y-89748695D01*
X111571492Y-89786350D01*
X111583873Y-89817824D01*
X111593291Y-89841958D01*
X111599288Y-89857589D01*
X111601206Y-89862855D01*
X111607276Y-89881200D01*
X111739482Y-89881200D01*
X111785002Y-89880964D01*
X111821550Y-89880272D01*
X111848556Y-89879149D01*
X111865452Y-89877618D01*
X111871668Y-89875705D01*
X111871689Y-89875576D01*
X111869643Y-89869477D01*
X111863744Y-89853812D01*
X111854351Y-89829492D01*
X111841820Y-89797426D01*
X111826510Y-89758522D01*
X111808779Y-89713691D01*
X111788985Y-89663840D01*
X111767485Y-89609881D01*
X111744639Y-89552721D01*
X111741133Y-89543965D01*
X111718038Y-89486250D01*
X111696159Y-89431484D01*
X111675865Y-89380593D01*
X111657522Y-89334502D01*
X111641498Y-89294137D01*
X111628160Y-89260422D01*
X111617876Y-89234283D01*
X111611012Y-89216646D01*
X111607935Y-89208435D01*
X111607830Y-89208100D01*
X111607636Y-89205084D01*
X111609768Y-89202751D01*
X111615478Y-89201014D01*
X111626015Y-89199786D01*
X111642629Y-89198980D01*
X111666570Y-89198509D01*
X111699088Y-89198285D01*
X111741433Y-89198223D01*
X111749675Y-89198222D01*
X111793875Y-89198174D01*
X111828059Y-89197974D01*
X111853498Y-89197533D01*
X111871465Y-89196765D01*
X111883232Y-89195584D01*
X111890071Y-89193900D01*
X111893255Y-89191629D01*
X111894054Y-89188683D01*
X111894052Y-89188344D01*
X111892028Y-89179889D01*
X111886580Y-89162962D01*
X111878409Y-89139599D01*
X111868220Y-89111833D01*
X111861388Y-89093800D01*
X111828939Y-89009133D01*
X111421336Y-89007685D01*
X111341633Y-89007433D01*
X111272533Y-89007290D01*
X111213350Y-89007267D01*
X111163399Y-89007373D01*
G36*
X110708940Y-89006829D02*
X110646604Y-89006984D01*
X110574079Y-89007247D01*
X110534959Y-89007410D01*
X110135207Y-89009133D01*
X110102182Y-89026066D01*
X110072995Y-89046012D01*
X110053787Y-89071063D01*
X110044196Y-89101797D01*
X110042889Y-89120784D01*
X110045573Y-89144325D01*
X110053435Y-89176854D01*
X110066189Y-89217478D01*
X110083548Y-89265306D01*
X110105228Y-89319445D01*
X110110834Y-89332786D01*
X110126140Y-89367074D01*
X110139999Y-89392555D01*
X110154340Y-89411196D01*
X110171089Y-89424961D01*
X110192173Y-89435818D01*
X110219521Y-89445732D01*
X110222492Y-89446689D01*
X110242501Y-89453087D01*
X110258800Y-89458296D01*
X110267880Y-89461194D01*
X110267907Y-89461203D01*
X110269696Y-89465884D01*
X110263087Y-89476546D01*
X110253173Y-89488003D01*
X110236947Y-89508982D01*
X110228573Y-89529440D01*
X110227063Y-89537319D01*
X110226462Y-89552714D01*
X110227524Y-89578023D01*
X110230130Y-89612009D01*
X110234156Y-89653440D01*
X110239483Y-89701079D01*
X110245989Y-89753693D01*
X110253554Y-89810047D01*
X110254408Y-89816151D01*
X110257883Y-89841066D01*
X110260687Y-89861469D01*
X110262500Y-89875009D01*
X110263022Y-89879360D01*
X110268404Y-89879883D01*
X110283499Y-89880348D01*
X110306732Y-89880734D01*
X110336526Y-89881016D01*
X110371306Y-89881174D01*
X110392845Y-89881200D01*
X110438992Y-89880954D01*
X110475450Y-89880230D01*
X110501814Y-89879045D01*
X110517682Y-89877417D01*
X110522667Y-89875486D01*
X110521714Y-89868585D01*
X110519032Y-89852113D01*
X110514883Y-89827609D01*
X110509532Y-89796613D01*
X110503240Y-89760665D01*
X110497085Y-89725876D01*
X110489108Y-89680733D01*
X110483097Y-89645259D01*
X110479020Y-89618011D01*
X110476847Y-89597547D01*
X110476547Y-89582424D01*
X110478088Y-89571202D01*
X110481439Y-89562436D01*
X110486569Y-89554686D01*
X110493223Y-89546766D01*
X110497261Y-89543346D01*
X110503607Y-89540810D01*
X110513822Y-89539030D01*
X110529469Y-89537878D01*
X110552113Y-89537223D01*
X110583315Y-89536938D01*
X110613097Y-89536888D01*
X110724355Y-89536888D01*
X110741148Y-89574988D01*
X110747957Y-89590979D01*
X110758096Y-89615503D01*
X110770763Y-89646591D01*
X110785160Y-89682269D01*
X110800484Y-89720568D01*
X110811043Y-89747144D01*
X110864145Y-89881200D01*
X111126469Y-89881200D01*
X111113846Y-89848031D01*
X111109122Y-89835841D01*
X111100728Y-89814416D01*
X111089159Y-89785013D01*
X111074911Y-89748889D01*
X111058479Y-89707299D01*
X111040361Y-89661502D01*
X111021052Y-89612754D01*
X111008089Y-89580060D01*
X110914956Y-89345258D01*
X110669422Y-89344994D01*
X110609838Y-89344899D01*
X110560463Y-89344726D01*
X110520220Y-89344433D01*
X110488030Y-89343978D01*
X110462814Y-89343317D01*
X110443494Y-89342409D01*
X110428990Y-89341211D01*
X110418224Y-89339682D01*
X110410118Y-89337777D01*
X110403593Y-89335456D01*
X110401311Y-89334459D01*
X110384560Y-89325785D01*
X110373005Y-89316075D01*
X110364217Y-89302288D01*
X110355770Y-89281386D01*
X110353304Y-89274335D01*
X110347468Y-89257364D01*
X110343187Y-89243122D01*
X110341288Y-89231370D01*
X110342600Y-89221869D01*
X110347954Y-89214381D01*
X110358177Y-89208665D01*
X110374099Y-89204483D01*
X110396549Y-89201596D01*
X110426356Y-89199765D01*
X110464349Y-89198751D01*
X110511357Y-89198314D01*
X110568209Y-89198217D01*
X110617274Y-89198222D01*
X110853355Y-89198222D01*
X110894033Y-89110152D01*
X110907422Y-89080707D01*
X110918956Y-89054464D01*
X110927851Y-89033279D01*
X110933323Y-89019010D01*
X110934711Y-89013885D01*
X110933564Y-89012296D01*
X110929627Y-89010935D01*
X110922162Y-89009791D01*
X110910429Y-89008850D01*
X110893686Y-89008102D01*
X110871195Y-89007535D01*
X110842215Y-89007136D01*
X110806005Y-89006893D01*
X110761827Y-89006795D01*
X110708940Y-89006829D01*
X110708940Y-89006829D01*
G37*
X110708940Y-89006829D02*
X110646604Y-89006984D01*
X110574079Y-89007247D01*
X110534959Y-89007410D01*
X110135207Y-89009133D01*
X110102182Y-89026066D01*
X110072995Y-89046012D01*
X110053787Y-89071063D01*
X110044196Y-89101797D01*
X110042889Y-89120784D01*
X110045573Y-89144325D01*
X110053435Y-89176854D01*
X110066189Y-89217478D01*
X110083548Y-89265306D01*
X110105228Y-89319445D01*
X110110834Y-89332786D01*
X110126140Y-89367074D01*
X110139999Y-89392555D01*
X110154340Y-89411196D01*
X110171089Y-89424961D01*
X110192173Y-89435818D01*
X110219521Y-89445732D01*
X110222492Y-89446689D01*
X110242501Y-89453087D01*
X110258800Y-89458296D01*
X110267880Y-89461194D01*
X110267907Y-89461203D01*
X110269696Y-89465884D01*
X110263087Y-89476546D01*
X110253173Y-89488003D01*
X110236947Y-89508982D01*
X110228573Y-89529440D01*
X110227063Y-89537319D01*
X110226462Y-89552714D01*
X110227524Y-89578023D01*
X110230130Y-89612009D01*
X110234156Y-89653440D01*
X110239483Y-89701079D01*
X110245989Y-89753693D01*
X110253554Y-89810047D01*
X110254408Y-89816151D01*
X110257883Y-89841066D01*
X110260687Y-89861469D01*
X110262500Y-89875009D01*
X110263022Y-89879360D01*
X110268404Y-89879883D01*
X110283499Y-89880348D01*
X110306732Y-89880734D01*
X110336526Y-89881016D01*
X110371306Y-89881174D01*
X110392845Y-89881200D01*
X110438992Y-89880954D01*
X110475450Y-89880230D01*
X110501814Y-89879045D01*
X110517682Y-89877417D01*
X110522667Y-89875486D01*
X110521714Y-89868585D01*
X110519032Y-89852113D01*
X110514883Y-89827609D01*
X110509532Y-89796613D01*
X110503240Y-89760665D01*
X110497085Y-89725876D01*
X110489108Y-89680733D01*
X110483097Y-89645259D01*
X110479020Y-89618011D01*
X110476847Y-89597547D01*
X110476547Y-89582424D01*
X110478088Y-89571202D01*
X110481439Y-89562436D01*
X110486569Y-89554686D01*
X110493223Y-89546766D01*
X110497261Y-89543346D01*
X110503607Y-89540810D01*
X110513822Y-89539030D01*
X110529469Y-89537878D01*
X110552113Y-89537223D01*
X110583315Y-89536938D01*
X110613097Y-89536888D01*
X110724355Y-89536888D01*
X110741148Y-89574988D01*
X110747957Y-89590979D01*
X110758096Y-89615503D01*
X110770763Y-89646591D01*
X110785160Y-89682269D01*
X110800484Y-89720568D01*
X110811043Y-89747144D01*
X110864145Y-89881200D01*
X111126469Y-89881200D01*
X111113846Y-89848031D01*
X111109122Y-89835841D01*
X111100728Y-89814416D01*
X111089159Y-89785013D01*
X111074911Y-89748889D01*
X111058479Y-89707299D01*
X111040361Y-89661502D01*
X111021052Y-89612754D01*
X111008089Y-89580060D01*
X110914956Y-89345258D01*
X110669422Y-89344994D01*
X110609838Y-89344899D01*
X110560463Y-89344726D01*
X110520220Y-89344433D01*
X110488030Y-89343978D01*
X110462814Y-89343317D01*
X110443494Y-89342409D01*
X110428990Y-89341211D01*
X110418224Y-89339682D01*
X110410118Y-89337777D01*
X110403593Y-89335456D01*
X110401311Y-89334459D01*
X110384560Y-89325785D01*
X110373005Y-89316075D01*
X110364217Y-89302288D01*
X110355770Y-89281386D01*
X110353304Y-89274335D01*
X110347468Y-89257364D01*
X110343187Y-89243122D01*
X110341288Y-89231370D01*
X110342600Y-89221869D01*
X110347954Y-89214381D01*
X110358177Y-89208665D01*
X110374099Y-89204483D01*
X110396549Y-89201596D01*
X110426356Y-89199765D01*
X110464349Y-89198751D01*
X110511357Y-89198314D01*
X110568209Y-89198217D01*
X110617274Y-89198222D01*
X110853355Y-89198222D01*
X110894033Y-89110152D01*
X110907422Y-89080707D01*
X110918956Y-89054464D01*
X110927851Y-89033279D01*
X110933323Y-89019010D01*
X110934711Y-89013885D01*
X110933564Y-89012296D01*
X110929627Y-89010935D01*
X110922162Y-89009791D01*
X110910429Y-89008850D01*
X110893686Y-89008102D01*
X110871195Y-89007535D01*
X110842215Y-89007136D01*
X110806005Y-89006893D01*
X110761827Y-89006795D01*
X110708940Y-89006829D01*
G36*
X107823055Y-89006474D02*
X107789945Y-89006933D01*
X107762473Y-89007640D01*
X107742205Y-89008547D01*
X107730706Y-89009608D01*
X107728667Y-89010309D01*
X107730716Y-89016042D01*
X107736656Y-89031474D01*
X107746179Y-89055821D01*
X107758974Y-89088306D01*
X107774733Y-89128145D01*
X107793145Y-89174560D01*
X107813901Y-89226768D01*
X107836692Y-89283990D01*
X107861208Y-89345446D01*
X107887139Y-89410353D01*
X107902098Y-89447753D01*
X108075529Y-89881200D01*
X108206898Y-89881200D01*
X108244052Y-89881034D01*
X108277131Y-89880570D01*
X108304569Y-89879854D01*
X108324800Y-89878937D01*
X108336256Y-89877865D01*
X108338267Y-89877161D01*
X108336220Y-89871420D01*
X108330285Y-89855980D01*
X108320771Y-89831623D01*
X108307987Y-89799129D01*
X108292244Y-89759279D01*
X108273849Y-89712854D01*
X108253113Y-89660636D01*
X108230344Y-89603404D01*
X108205852Y-89541941D01*
X108179946Y-89477026D01*
X108165040Y-89439716D01*
X107991813Y-89006311D01*
X107860240Y-89006311D01*
X107823055Y-89006474D01*
X107823055Y-89006474D01*
G37*
X107823055Y-89006474D02*
X107789945Y-89006933D01*
X107762473Y-89007640D01*
X107742205Y-89008547D01*
X107730706Y-89009608D01*
X107728667Y-89010309D01*
X107730716Y-89016042D01*
X107736656Y-89031474D01*
X107746179Y-89055821D01*
X107758974Y-89088306D01*
X107774733Y-89128145D01*
X107793145Y-89174560D01*
X107813901Y-89226768D01*
X107836692Y-89283990D01*
X107861208Y-89345446D01*
X107887139Y-89410353D01*
X107902098Y-89447753D01*
X108075529Y-89881200D01*
X108206898Y-89881200D01*
X108244052Y-89881034D01*
X108277131Y-89880570D01*
X108304569Y-89879854D01*
X108324800Y-89878937D01*
X108336256Y-89877865D01*
X108338267Y-89877161D01*
X108336220Y-89871420D01*
X108330285Y-89855980D01*
X108320771Y-89831623D01*
X108307987Y-89799129D01*
X108292244Y-89759279D01*
X108273849Y-89712854D01*
X108253113Y-89660636D01*
X108230344Y-89603404D01*
X108205852Y-89541941D01*
X108179946Y-89477026D01*
X108165040Y-89439716D01*
X107991813Y-89006311D01*
X107860240Y-89006311D01*
X107823055Y-89006474D01*
G36*
X107259489Y-89011955D02*
X106966667Y-89011955D01*
X106966667Y-89027869D01*
X106968710Y-89038750D01*
X106974319Y-89057672D01*
X106982713Y-89082260D01*
X106993110Y-89110138D01*
X106996822Y-89119591D01*
X107026978Y-89195400D01*
X107215545Y-89198222D01*
X107274287Y-89199263D01*
X107322216Y-89200476D01*
X107359806Y-89201884D01*
X107387531Y-89203509D01*
X107405867Y-89205375D01*
X107415287Y-89207503D01*
X107415887Y-89207803D01*
X107434035Y-89222191D01*
X107452686Y-89243384D01*
X107468765Y-89267479D01*
X107477720Y-89286255D01*
X107482311Y-89298196D01*
X107490517Y-89319123D01*
X107501748Y-89347542D01*
X107515413Y-89381965D01*
X107530919Y-89420899D01*
X107547675Y-89462854D01*
X107557540Y-89487502D01*
X107574197Y-89529250D01*
X107589423Y-89567727D01*
X107602724Y-89601663D01*
X107613608Y-89629787D01*
X107621582Y-89650830D01*
X107626153Y-89663520D01*
X107627067Y-89666713D01*
X107621483Y-89668449D01*
X107604967Y-89669881D01*
X107577872Y-89670998D01*
X107540549Y-89671789D01*
X107493354Y-89672242D01*
X107448874Y-89672355D01*
X107270681Y-89672355D01*
X107233774Y-89749966D01*
X107219843Y-89779563D01*
X107206775Y-89807875D01*
X107195771Y-89832259D01*
X107188033Y-89850073D01*
X107186271Y-89854388D01*
X107175676Y-89881200D01*
X107501560Y-89880690D01*
X107561699Y-89880510D01*
X107618850Y-89880171D01*
X107671947Y-89879691D01*
X107719921Y-89879089D01*
X107761705Y-89878380D01*
X107796230Y-89877584D01*
X107822430Y-89876717D01*
X107839237Y-89875796D01*
X107845122Y-89875057D01*
X107863688Y-89865105D01*
X107882448Y-89847607D01*
X107898511Y-89825877D01*
X107908989Y-89803230D01*
X107909607Y-89801086D01*
X107913042Y-89783464D01*
X107913904Y-89764098D01*
X107911899Y-89741891D01*
X107906735Y-89715750D01*
X107898119Y-89684580D01*
X107885760Y-89647285D01*
X107869364Y-89602771D01*
X107848640Y-89549944D01*
X107830750Y-89505844D01*
X107813848Y-89464306D01*
X107795109Y-89417775D01*
X107776200Y-89370419D01*
X107758787Y-89326404D01*
X107748383Y-89299822D01*
X107726559Y-89244494D01*
X107707736Y-89198680D01*
X107691311Y-89161196D01*
X107676683Y-89130856D01*
X107663249Y-89106476D01*
X107650406Y-89086872D01*
X107637552Y-89070858D01*
X107625875Y-89058910D01*
X107615299Y-89048884D01*
X107606014Y-89040393D01*
X107597027Y-89033312D01*
X107587343Y-89027512D01*
X107575967Y-89022865D01*
X107561906Y-89019245D01*
X107544165Y-89016525D01*
X107521749Y-89014576D01*
X107493665Y-89013271D01*
X107458919Y-89012483D01*
X107416515Y-89012084D01*
X107365459Y-89011947D01*
X107304758Y-89011945D01*
X107259489Y-89011955D01*
X107259489Y-89011955D01*
G37*
X107259489Y-89011955D02*
X106966667Y-89011955D01*
X106966667Y-89027869D01*
X106968710Y-89038750D01*
X106974319Y-89057672D01*
X106982713Y-89082260D01*
X106993110Y-89110138D01*
X106996822Y-89119591D01*
X107026978Y-89195400D01*
X107215545Y-89198222D01*
X107274287Y-89199263D01*
X107322216Y-89200476D01*
X107359806Y-89201884D01*
X107387531Y-89203509D01*
X107405867Y-89205375D01*
X107415287Y-89207503D01*
X107415887Y-89207803D01*
X107434035Y-89222191D01*
X107452686Y-89243384D01*
X107468765Y-89267479D01*
X107477720Y-89286255D01*
X107482311Y-89298196D01*
X107490517Y-89319123D01*
X107501748Y-89347542D01*
X107515413Y-89381965D01*
X107530919Y-89420899D01*
X107547675Y-89462854D01*
X107557540Y-89487502D01*
X107574197Y-89529250D01*
X107589423Y-89567727D01*
X107602724Y-89601663D01*
X107613608Y-89629787D01*
X107621582Y-89650830D01*
X107626153Y-89663520D01*
X107627067Y-89666713D01*
X107621483Y-89668449D01*
X107604967Y-89669881D01*
X107577872Y-89670998D01*
X107540549Y-89671789D01*
X107493354Y-89672242D01*
X107448874Y-89672355D01*
X107270681Y-89672355D01*
X107233774Y-89749966D01*
X107219843Y-89779563D01*
X107206775Y-89807875D01*
X107195771Y-89832259D01*
X107188033Y-89850073D01*
X107186271Y-89854388D01*
X107175676Y-89881200D01*
X107501560Y-89880690D01*
X107561699Y-89880510D01*
X107618850Y-89880171D01*
X107671947Y-89879691D01*
X107719921Y-89879089D01*
X107761705Y-89878380D01*
X107796230Y-89877584D01*
X107822430Y-89876717D01*
X107839237Y-89875796D01*
X107845122Y-89875057D01*
X107863688Y-89865105D01*
X107882448Y-89847607D01*
X107898511Y-89825877D01*
X107908989Y-89803230D01*
X107909607Y-89801086D01*
X107913042Y-89783464D01*
X107913904Y-89764098D01*
X107911899Y-89741891D01*
X107906735Y-89715750D01*
X107898119Y-89684580D01*
X107885760Y-89647285D01*
X107869364Y-89602771D01*
X107848640Y-89549944D01*
X107830750Y-89505844D01*
X107813848Y-89464306D01*
X107795109Y-89417775D01*
X107776200Y-89370419D01*
X107758787Y-89326404D01*
X107748383Y-89299822D01*
X107726559Y-89244494D01*
X107707736Y-89198680D01*
X107691311Y-89161196D01*
X107676683Y-89130856D01*
X107663249Y-89106476D01*
X107650406Y-89086872D01*
X107637552Y-89070858D01*
X107625875Y-89058910D01*
X107615299Y-89048884D01*
X107606014Y-89040393D01*
X107597027Y-89033312D01*
X107587343Y-89027512D01*
X107575967Y-89022865D01*
X107561906Y-89019245D01*
X107544165Y-89016525D01*
X107521749Y-89014576D01*
X107493665Y-89013271D01*
X107458919Y-89012483D01*
X107416515Y-89012084D01*
X107365459Y-89011947D01*
X107304758Y-89011945D01*
X107259489Y-89011955D01*
G36*
X109210634Y-84547796D02*
X109180916Y-84550125D01*
X109157665Y-84554996D01*
X109138487Y-84563218D01*
X109120991Y-84575600D01*
X109102784Y-84592951D01*
X109097521Y-84598502D01*
X109074052Y-84628343D01*
X109054137Y-84664380D01*
X109037270Y-84707892D01*
X109022947Y-84760158D01*
X109011867Y-84815432D01*
X109008763Y-84835663D01*
X109006354Y-84857566D01*
X109004566Y-84882815D01*
X109003324Y-84913083D01*
X109002554Y-84950045D01*
X109002183Y-84995375D01*
X109002120Y-85035444D01*
X109002434Y-85094075D01*
X109003428Y-85147595D01*
X109005259Y-85198212D01*
X109008085Y-85248134D01*
X109012060Y-85299569D01*
X109017341Y-85354724D01*
X109024086Y-85415807D01*
X109032449Y-85485026D01*
X109035891Y-85512400D01*
X109039311Y-85539133D01*
X109042720Y-85565176D01*
X109046269Y-85591550D01*
X109050107Y-85619274D01*
X109054387Y-85649370D01*
X109059258Y-85682859D01*
X109064871Y-85720761D01*
X109071377Y-85764097D01*
X109078927Y-85813887D01*
X109087670Y-85871153D01*
X109097759Y-85936915D01*
X109109344Y-86012193D01*
X109117133Y-86062733D01*
X109146726Y-86254644D01*
X109111287Y-86310816D01*
X109079897Y-86364312D01*
X109048337Y-86424887D01*
X109018500Y-86488518D01*
X108992282Y-86551187D01*
X108973182Y-86603934D01*
X108962789Y-86637587D01*
X108952418Y-86674849D01*
X108942604Y-86713395D01*
X108933883Y-86750901D01*
X108926791Y-86785042D01*
X108921862Y-86813492D01*
X108919633Y-86833928D01*
X108919558Y-86836731D01*
X108917926Y-86851263D01*
X108914762Y-86860382D01*
X108911251Y-86861008D01*
X108902697Y-86858904D01*
X108888458Y-86853794D01*
X108867895Y-86845400D01*
X108840367Y-86833442D01*
X108805234Y-86817644D01*
X108761854Y-86797727D01*
X108709588Y-86773413D01*
X108649813Y-86745374D01*
X108435253Y-86644430D01*
X108229625Y-86644430D01*
X108223931Y-86669618D01*
X108210517Y-86691300D01*
X108191159Y-86707988D01*
X108167635Y-86718191D01*
X108141722Y-86720422D01*
X108115198Y-86713192D01*
X108112707Y-86711957D01*
X108089873Y-86694726D01*
X108075588Y-86672616D01*
X108069598Y-86647816D01*
X108071649Y-86622515D01*
X108081486Y-86598900D01*
X108098856Y-86579162D01*
X108123505Y-86565487D01*
X108129938Y-86563494D01*
X108156587Y-86561752D01*
X108182629Y-86569520D01*
X108205271Y-86585232D01*
X108221721Y-86607325D01*
X108225819Y-86617224D01*
X108229625Y-86644430D01*
X108435253Y-86644430D01*
X108389573Y-86622939D01*
X108383011Y-86591192D01*
X108367814Y-86543641D01*
X108343729Y-86501295D01*
X108312108Y-86465082D01*
X108274298Y-86435928D01*
X108231650Y-86414758D01*
X108185514Y-86402500D01*
X108137238Y-86400080D01*
X108109463Y-86403424D01*
X108059020Y-86418045D01*
X108014420Y-86441649D01*
X107976550Y-86473183D01*
X107946294Y-86511593D01*
X107924537Y-86555825D01*
X107912166Y-86604826D01*
X107909565Y-86641288D01*
X107914882Y-86692664D01*
X107930209Y-86740177D01*
X107954610Y-86782725D01*
X107987150Y-86819206D01*
X108026893Y-86848520D01*
X108072902Y-86869564D01*
X108111872Y-86879416D01*
X108160636Y-86882461D01*
X108208864Y-86874576D01*
X108256348Y-86856173D01*
X108290140Y-86839444D01*
X108597837Y-86983870D01*
X108653155Y-87009923D01*
X108705512Y-87034753D01*
X108753997Y-87057916D01*
X108797701Y-87078968D01*
X108835711Y-87097468D01*
X108867117Y-87112971D01*
X108891009Y-87125035D01*
X108906475Y-87133215D01*
X108912589Y-87137048D01*
X108917749Y-87148903D01*
X108919699Y-87163067D01*
X108920858Y-87175447D01*
X108923959Y-87195868D01*
X108928512Y-87221347D01*
X108933256Y-87245244D01*
X108938444Y-87270677D01*
X108942525Y-87291634D01*
X108945083Y-87305908D01*
X108945712Y-87311285D01*
X108940043Y-87311628D01*
X108923987Y-87312260D01*
X108898440Y-87313151D01*
X108864298Y-87314273D01*
X108822458Y-87315599D01*
X108773818Y-87317101D01*
X108719273Y-87318750D01*
X108659720Y-87320519D01*
X108596057Y-87322378D01*
X108541482Y-87323950D01*
X108464227Y-87326149D01*
X108397479Y-87328012D01*
X108340457Y-87329543D01*
X108292385Y-87330744D01*
X108252484Y-87331621D01*
X108219975Y-87332174D01*
X108194081Y-87332409D01*
X108174024Y-87332329D01*
X108159024Y-87331936D01*
X108148305Y-87331234D01*
X108141087Y-87330226D01*
X108136593Y-87328916D01*
X108134045Y-87327308D01*
X108132825Y-87325705D01*
X108118340Y-87305979D01*
X108097075Y-87284418D01*
X108072435Y-87264053D01*
X108047828Y-87247914D01*
X108041951Y-87244832D01*
X107993016Y-87226491D01*
X107943595Y-87218684D01*
X107895012Y-87220977D01*
X107848594Y-87232932D01*
X107805663Y-87254112D01*
X107767546Y-87284083D01*
X107735567Y-87322407D01*
X107718879Y-87351227D01*
X107709734Y-87370164D01*
X107703678Y-87385018D01*
X107700076Y-87399029D01*
X107698291Y-87415439D01*
X107697685Y-87437489D01*
X107697622Y-87459440D01*
X107697814Y-87488216D01*
X107698761Y-87508898D01*
X107701024Y-87524680D01*
X107705161Y-87538757D01*
X107711731Y-87554322D01*
X107715733Y-87562878D01*
X107742324Y-87606658D01*
X107776190Y-87642700D01*
X107815944Y-87670507D01*
X107860197Y-87689580D01*
X107907561Y-87699420D01*
X107956648Y-87699529D01*
X108006072Y-87689408D01*
X108035955Y-87677923D01*
X108058735Y-87664426D01*
X108084462Y-87644367D01*
X108109882Y-87620621D01*
X108131743Y-87596060D01*
X108137929Y-87587833D01*
X108149178Y-87572000D01*
X108527356Y-87561105D01*
X108614733Y-87558598D01*
X108691518Y-87556428D01*
X108758399Y-87554594D01*
X108816068Y-87553095D01*
X108865215Y-87551930D01*
X108906530Y-87551098D01*
X108940705Y-87550599D01*
X108968428Y-87550431D01*
X108990392Y-87550592D01*
X109007285Y-87551083D01*
X109019800Y-87551902D01*
X109028625Y-87553048D01*
X109034452Y-87554520D01*
X109037971Y-87556317D01*
X109039873Y-87558438D01*
X109040687Y-87560346D01*
X109044639Y-87569012D01*
X109053056Y-87585197D01*
X109064737Y-87606658D01*
X109078481Y-87631150D01*
X109079753Y-87633382D01*
X109115549Y-87696116D01*
X108702966Y-87890412D01*
X108290382Y-88084708D01*
X108258910Y-88068715D01*
X108211077Y-88050321D01*
X108161994Y-88042366D01*
X108113172Y-88044492D01*
X108066121Y-88056339D01*
X108022354Y-88077550D01*
X107983379Y-88107765D01*
X107954651Y-88140953D01*
X107935364Y-88171377D01*
X107922549Y-88201116D01*
X107915191Y-88233648D01*
X107912273Y-88272453D01*
X107912111Y-88286644D01*
X107912378Y-88313360D01*
X107913710Y-88332644D01*
X107916904Y-88348347D01*
X107922757Y-88364322D01*
X107932067Y-88384423D01*
X107932549Y-88385422D01*
X107959446Y-88429417D01*
X107992973Y-88465416D01*
X108031759Y-88493153D01*
X108074437Y-88512362D01*
X108119638Y-88522778D01*
X108165993Y-88524133D01*
X108212134Y-88516163D01*
X108256692Y-88498600D01*
X108298299Y-88471180D01*
X108311951Y-88459166D01*
X108342086Y-88425398D01*
X108364371Y-88387581D01*
X108380596Y-88342618D01*
X108381776Y-88338280D01*
X108391889Y-88300269D01*
X108419612Y-88287206D01*
X108227903Y-88287206D01*
X108222903Y-88311977D01*
X108209715Y-88334597D01*
X108188931Y-88352328D01*
X108163963Y-88361415D01*
X108136507Y-88361528D01*
X108110769Y-88352785D01*
X108106268Y-88350031D01*
X108085371Y-88330398D01*
X108073413Y-88307025D01*
X108069797Y-88281965D01*
X108073924Y-88257268D01*
X108085195Y-88234988D01*
X108103012Y-88217175D01*
X108126777Y-88205881D01*
X108149178Y-88202918D01*
X108176932Y-88207658D01*
X108199228Y-88220509D01*
X108215519Y-88239419D01*
X108225260Y-88262336D01*
X108227903Y-88287206D01*
X108419612Y-88287206D01*
X109259343Y-87891533D01*
X109347727Y-87979256D01*
X109405851Y-88035319D01*
X109460937Y-88084728D01*
X109516268Y-88130169D01*
X109575127Y-88174324D01*
X109640796Y-88219878D01*
X109647778Y-88224556D01*
X109783075Y-88308329D01*
X109925597Y-88383819D01*
X110074668Y-88450802D01*
X110229610Y-88509056D01*
X110389747Y-88558360D01*
X110554400Y-88598489D01*
X110722894Y-88629222D01*
X110894550Y-88650337D01*
X110960111Y-88655766D01*
X111001972Y-88658337D01*
X111050125Y-88660574D01*
X111101797Y-88662410D01*
X111154218Y-88663775D01*
X111204615Y-88664603D01*
X111250218Y-88664826D01*
X111288253Y-88664375D01*
X111298778Y-88664063D01*
X111480510Y-88652667D01*
X111658010Y-88631674D01*
X111830909Y-88601195D01*
X111998838Y-88561342D01*
X112161428Y-88512226D01*
X112318308Y-88453960D01*
X112469109Y-88386654D01*
X112613463Y-88310421D01*
X112750999Y-88225373D01*
X112752222Y-88224556D01*
X112818743Y-88178718D01*
X112878128Y-88134544D01*
X112933661Y-88089350D01*
X112988625Y-88040452D01*
X113046303Y-87985167D01*
X113052273Y-87979256D01*
X113140657Y-87891533D01*
X114008111Y-88300269D01*
X114018224Y-88338280D01*
X114034007Y-88384008D01*
X114055696Y-88422322D01*
X114085079Y-88456319D01*
X114088049Y-88459166D01*
X114128293Y-88490109D01*
X114171970Y-88511101D01*
X114217711Y-88522407D01*
X114264147Y-88524295D01*
X114309909Y-88517031D01*
X114353629Y-88500879D01*
X114393938Y-88476107D01*
X114429467Y-88442980D01*
X114458848Y-88401764D01*
X114467452Y-88385422D01*
X114476925Y-88365062D01*
X114482908Y-88348990D01*
X114486199Y-88333354D01*
X114487593Y-88314300D01*
X114487889Y-88287976D01*
X114487889Y-88287748D01*
X114331298Y-88287748D01*
X114325281Y-88311168D01*
X114312453Y-88332004D01*
X114294234Y-88348666D01*
X114272046Y-88359568D01*
X114247310Y-88363121D01*
X114221449Y-88357737D01*
X114214298Y-88354462D01*
X114193773Y-88338343D01*
X114179490Y-88316138D01*
X114172254Y-88290814D01*
X114172870Y-88265333D01*
X114182143Y-88242662D01*
X114183438Y-88240850D01*
X114206463Y-88217543D01*
X114231967Y-88204694D01*
X114258461Y-88202318D01*
X114284453Y-88210431D01*
X114308453Y-88229048D01*
X114317209Y-88239504D01*
X114329081Y-88263330D01*
X114331298Y-88287748D01*
X114487889Y-88287748D01*
X114487889Y-88286644D01*
X114486168Y-88245121D01*
X114480330Y-88210974D01*
X114469357Y-88180725D01*
X114452235Y-88150896D01*
X114445350Y-88140953D01*
X114411751Y-88103225D01*
X114372050Y-88074191D01*
X114327757Y-88054209D01*
X114280382Y-88043638D01*
X114231438Y-88042837D01*
X114182434Y-88052164D01*
X114141090Y-88068715D01*
X114109618Y-88084708D01*
X113697035Y-87890412D01*
X113284451Y-87696116D01*
X113320247Y-87633382D01*
X113334116Y-87608730D01*
X113346027Y-87586912D01*
X113354781Y-87570170D01*
X113359175Y-87560750D01*
X113359313Y-87560346D01*
X113360424Y-87557969D01*
X113362606Y-87555916D01*
X113366549Y-87554186D01*
X113372943Y-87552782D01*
X113382480Y-87551705D01*
X113395850Y-87550954D01*
X113413743Y-87550532D01*
X113436849Y-87550438D01*
X113465859Y-87550676D01*
X113501464Y-87551244D01*
X113544353Y-87552145D01*
X113595218Y-87553379D01*
X113654749Y-87554948D01*
X113723636Y-87556852D01*
X113802570Y-87559092D01*
X113872645Y-87561105D01*
X114250822Y-87572000D01*
X114262071Y-87587833D01*
X114281926Y-87612003D01*
X114306475Y-87636360D01*
X114332464Y-87658031D01*
X114356641Y-87674142D01*
X114364046Y-87677923D01*
X114412988Y-87694566D01*
X114462446Y-87700673D01*
X114511032Y-87696742D01*
X114557358Y-87683273D01*
X114600036Y-87660765D01*
X114637677Y-87629715D01*
X114668895Y-87590622D01*
X114684267Y-87562878D01*
X114692147Y-87545552D01*
X114697336Y-87531187D01*
X114700393Y-87516587D01*
X114701877Y-87498560D01*
X114702348Y-87473911D01*
X114702378Y-87459440D01*
X114702377Y-87459096D01*
X114546110Y-87459096D01*
X114545536Y-87470199D01*
X114541837Y-87488177D01*
X114533776Y-87502592D01*
X114519710Y-87517378D01*
X114504524Y-87530229D01*
X114491658Y-87536605D01*
X114476124Y-87538637D01*
X114469763Y-87538718D01*
X114444029Y-87535465D01*
X114426598Y-87528043D01*
X114405840Y-87508567D01*
X114393315Y-87484566D01*
X114388977Y-87458449D01*
X114392778Y-87432622D01*
X114404670Y-87409495D01*
X114424605Y-87391476D01*
X114429353Y-87388799D01*
X114457048Y-87379989D01*
X114483920Y-87381122D01*
X114508117Y-87390898D01*
X114527784Y-87408018D01*
X114541066Y-87431184D01*
X114546110Y-87459096D01*
X114702377Y-87459096D01*
X114702237Y-87431102D01*
X114701389Y-87410811D01*
X114699197Y-87395327D01*
X114695025Y-87381409D01*
X114688236Y-87365815D01*
X114681122Y-87351227D01*
X114653784Y-87307767D01*
X114619457Y-87272381D01*
X114579466Y-87245504D01*
X114535136Y-87227573D01*
X114487791Y-87219024D01*
X114438756Y-87220294D01*
X114389356Y-87231818D01*
X114358049Y-87244832D01*
X114333996Y-87259403D01*
X114309041Y-87278976D01*
X114286589Y-87300520D01*
X114270045Y-87321003D01*
X114267175Y-87325705D01*
X114265670Y-87327565D01*
X114262882Y-87329130D01*
X114258033Y-87330395D01*
X114250344Y-87331357D01*
X114239039Y-87332014D01*
X114223338Y-87332360D01*
X114202463Y-87332395D01*
X114175637Y-87332113D01*
X114142080Y-87331511D01*
X114101015Y-87330587D01*
X114051664Y-87329336D01*
X113993247Y-87327756D01*
X113924988Y-87325844D01*
X113858518Y-87323950D01*
X113792156Y-87322036D01*
X113729171Y-87320191D01*
X113670458Y-87318442D01*
X113616915Y-87316818D01*
X113569439Y-87315345D01*
X113528926Y-87314054D01*
X113496274Y-87312971D01*
X113472378Y-87312125D01*
X113458135Y-87311544D01*
X113454288Y-87311285D01*
X113454957Y-87305663D01*
X113457556Y-87291204D01*
X113461668Y-87270115D01*
X113466744Y-87245244D01*
X113472157Y-87217793D01*
X113476545Y-87192812D01*
X113479418Y-87173284D01*
X113480301Y-87163067D01*
X113482578Y-87147707D01*
X113487411Y-87137048D01*
X113493672Y-87133133D01*
X113509257Y-87124898D01*
X113533255Y-87112786D01*
X113564756Y-87097240D01*
X113602848Y-87078703D01*
X113646621Y-87057619D01*
X113695164Y-87034431D01*
X113747567Y-87009582D01*
X113802164Y-86983870D01*
X114109861Y-86839444D01*
X114143653Y-86856173D01*
X114192236Y-86874879D01*
X114240466Y-86882512D01*
X114288128Y-86879416D01*
X114338312Y-86865464D01*
X114382948Y-86842397D01*
X114421098Y-86811318D01*
X114451828Y-86773327D01*
X114474202Y-86729526D01*
X114487283Y-86681016D01*
X114489996Y-86646815D01*
X114330895Y-86646815D01*
X114324836Y-86672619D01*
X114318167Y-86685007D01*
X114299314Y-86704192D01*
X114274504Y-86716118D01*
X114247090Y-86719918D01*
X114220422Y-86714719D01*
X114214352Y-86711957D01*
X114190997Y-86694522D01*
X114176457Y-86672403D01*
X114170528Y-86647706D01*
X114173005Y-86622536D01*
X114183683Y-86598997D01*
X114202358Y-86579194D01*
X114228605Y-86565309D01*
X114255451Y-86561200D01*
X114280166Y-86566558D01*
X114301410Y-86579592D01*
X114317841Y-86598508D01*
X114328116Y-86621513D01*
X114330895Y-86646815D01*
X114489996Y-86646815D01*
X114490435Y-86641288D01*
X114485150Y-86589479D01*
X114469882Y-86541772D01*
X114445518Y-86499209D01*
X114412941Y-86462829D01*
X114373036Y-86433676D01*
X114326687Y-86412790D01*
X114288188Y-86403171D01*
X114238882Y-86400144D01*
X114191176Y-86407480D01*
X114146402Y-86424258D01*
X114105889Y-86449555D01*
X114070966Y-86482449D01*
X114042965Y-86522019D01*
X114023215Y-86567341D01*
X114016990Y-86591192D01*
X114010427Y-86622939D01*
X113750377Y-86745285D01*
X113699858Y-86768994D01*
X113652495Y-86791107D01*
X113609255Y-86811180D01*
X113571105Y-86828772D01*
X113539012Y-86843437D01*
X113513944Y-86854732D01*
X113496868Y-86862213D01*
X113488751Y-86865438D01*
X113488212Y-86865515D01*
X113486519Y-86859459D01*
X113483424Y-86844451D01*
X113479351Y-86822676D01*
X113474723Y-86796322D01*
X113474203Y-86793266D01*
X113450155Y-86682970D01*
X113415740Y-86572859D01*
X113371761Y-86465004D01*
X112701205Y-86465004D01*
X112700942Y-86496007D01*
X112699994Y-86531691D01*
X112698450Y-86569863D01*
X112696401Y-86608336D01*
X112693938Y-86644920D01*
X112691149Y-86677424D01*
X112688126Y-86703660D01*
X112687764Y-86706200D01*
X112667713Y-86815371D01*
X112640784Y-86915635D01*
X112606947Y-87007061D01*
X112566172Y-87089716D01*
X112518430Y-87163668D01*
X112463691Y-87228985D01*
X112453197Y-87239726D01*
X112388315Y-87296708D01*
X112314891Y-87346571D01*
X112233260Y-87389163D01*
X112143763Y-87424333D01*
X112046737Y-87451929D01*
X111942519Y-87471800D01*
X111930956Y-87473462D01*
X111898942Y-87477852D01*
X111873089Y-87481093D01*
X111850651Y-87483345D01*
X111828881Y-87484773D01*
X111805036Y-87485539D01*
X111776367Y-87485805D01*
X111740131Y-87485733D01*
X111724933Y-87485657D01*
X111626156Y-87485133D01*
X111624547Y-87389177D01*
X111624654Y-87383969D01*
X110776667Y-87383969D01*
X110776430Y-87415945D01*
X110775774Y-87443968D01*
X110774781Y-87466097D01*
X110773532Y-87480391D01*
X110772433Y-87484850D01*
X110765190Y-87486468D01*
X110748473Y-87487374D01*
X110724071Y-87487632D01*
X110693772Y-87487306D01*
X110659364Y-87486460D01*
X110622637Y-87485157D01*
X110585379Y-87483461D01*
X110549377Y-87481436D01*
X110516421Y-87479145D01*
X110488300Y-87476653D01*
X110466801Y-87474023D01*
X110466222Y-87473934D01*
X110446179Y-87470069D01*
X108011047Y-87470069D01*
X108002908Y-87495105D01*
X107987139Y-87516195D01*
X107964892Y-87531311D01*
X107937319Y-87538426D01*
X107930237Y-87538718D01*
X107912793Y-87537627D01*
X107899615Y-87532876D01*
X107885715Y-87522333D01*
X107880290Y-87517378D01*
X107861402Y-87493124D01*
X107853226Y-87466207D01*
X107855994Y-87437767D01*
X107861268Y-87423932D01*
X107877350Y-87401735D01*
X107899245Y-87387239D01*
X107924448Y-87380585D01*
X107950452Y-87381910D01*
X107974750Y-87391354D01*
X107994836Y-87409055D01*
X107999829Y-87416262D01*
X108010405Y-87443112D01*
X108011047Y-87470069D01*
X110446179Y-87470069D01*
X110358654Y-87453192D01*
X110259903Y-87425528D01*
X110169778Y-87390747D01*
X110088086Y-87348652D01*
X110014636Y-87299050D01*
X109949236Y-87241744D01*
X109891693Y-87176538D01*
X109841816Y-87103237D01*
X109799413Y-87021646D01*
X109764291Y-86931569D01*
X109736259Y-86832811D01*
X109715125Y-86725176D01*
X109712236Y-86706200D01*
X109709192Y-86680834D01*
X109706372Y-86648945D01*
X109703866Y-86612723D01*
X109701764Y-86574357D01*
X109700157Y-86536037D01*
X109699135Y-86499952D01*
X109698788Y-86468293D01*
X109699206Y-86443248D01*
X109700480Y-86427008D01*
X109700687Y-86425793D01*
X109704464Y-86405659D01*
X109753732Y-86401946D01*
X109788927Y-86400711D01*
X109832344Y-86401418D01*
X109881120Y-86403870D01*
X109932393Y-86407873D01*
X109983299Y-86413232D01*
X110030976Y-86419750D01*
X110042889Y-86421678D01*
X110140278Y-86442172D01*
X110231994Y-86469807D01*
X110317150Y-86504177D01*
X110394860Y-86544876D01*
X110464235Y-86591499D01*
X110520822Y-86640135D01*
X110577683Y-86703243D01*
X110627788Y-86775004D01*
X110670958Y-86854893D01*
X110707012Y-86942385D01*
X110735770Y-87036958D01*
X110757051Y-87138085D01*
X110770676Y-87245244D01*
X110776463Y-87357909D01*
X110776667Y-87383969D01*
X111624654Y-87383969D01*
X111626799Y-87279853D01*
X111637111Y-87174441D01*
X111655231Y-87073685D01*
X111680905Y-86978330D01*
X111713879Y-86889122D01*
X111753902Y-86806804D01*
X111800719Y-86732123D01*
X111854079Y-86665821D01*
X111879111Y-86639937D01*
X111938777Y-86588981D01*
X112007687Y-86543274D01*
X112084870Y-86503260D01*
X112169356Y-86469382D01*
X112260174Y-86442082D01*
X112356354Y-86421805D01*
X112357111Y-86421678D01*
X112403430Y-86414881D01*
X112453748Y-86409191D01*
X112505204Y-86404804D01*
X112554933Y-86401914D01*
X112600075Y-86400719D01*
X112637765Y-86401412D01*
X112646268Y-86401946D01*
X112695536Y-86405659D01*
X112699313Y-86425793D01*
X112700692Y-86440869D01*
X112701205Y-86465004D01*
X113371761Y-86465004D01*
X113371732Y-86464935D01*
X113318904Y-86361202D01*
X113285603Y-86305444D01*
X113253513Y-86254644D01*
X113274084Y-86116355D01*
X113290547Y-86005356D01*
X113305351Y-85904702D01*
X113318584Y-85813586D01*
X113330330Y-85731201D01*
X113340676Y-85656738D01*
X113349708Y-85589391D01*
X113357513Y-85528350D01*
X113364176Y-85472810D01*
X113369785Y-85421962D01*
X113374424Y-85374998D01*
X113378180Y-85331112D01*
X113381140Y-85289494D01*
X113383389Y-85249339D01*
X113385014Y-85209837D01*
X113386101Y-85170182D01*
X113386736Y-85129565D01*
X113387006Y-85087180D01*
X113387025Y-85058022D01*
X113386851Y-85003558D01*
X113386413Y-84958833D01*
X113385647Y-84922299D01*
X113384487Y-84892408D01*
X113382866Y-84867612D01*
X113380718Y-84846362D01*
X113377979Y-84827111D01*
X113376938Y-84820955D01*
X113362949Y-84754164D01*
X113346048Y-84697692D01*
X113325895Y-84650864D01*
X113302150Y-84613008D01*
X113274471Y-84583449D01*
X113246988Y-84563995D01*
X113234943Y-84557341D01*
X113224407Y-84552740D01*
X113212945Y-84549811D01*
X113198122Y-84548176D01*
X113177501Y-84547452D01*
X113148647Y-84547262D01*
X113139699Y-84547252D01*
X113107021Y-84547430D01*
X113082530Y-84548280D01*
X113063128Y-84550201D01*
X113045717Y-84553590D01*
X113027198Y-84558848D01*
X113012699Y-84563591D01*
X112940205Y-84591803D01*
X112863118Y-84629323D01*
X112781298Y-84676243D01*
X112694606Y-84732654D01*
X112602902Y-84798648D01*
X112506048Y-84874318D01*
X112403903Y-84959756D01*
X112380116Y-84980387D01*
X112344883Y-85011948D01*
X112304144Y-85049798D01*
X112259599Y-85092248D01*
X112212950Y-85137613D01*
X112165898Y-85184203D01*
X112120145Y-85230332D01*
X112077392Y-85274313D01*
X112039340Y-85314458D01*
X112007691Y-85349079D01*
X112002688Y-85354727D01*
X111945215Y-85420009D01*
X111859063Y-85401409D01*
X111770786Y-85383348D01*
X111687641Y-85368582D01*
X111607165Y-85356862D01*
X111526894Y-85347941D01*
X111444363Y-85341571D01*
X111357107Y-85337505D01*
X111262664Y-85335495D01*
X111200000Y-85335173D01*
X111099917Y-85336043D01*
X111008537Y-85338816D01*
X110923395Y-85343740D01*
X110842027Y-85351064D01*
X110761968Y-85361035D01*
X110680756Y-85373900D01*
X110595924Y-85389908D01*
X110540937Y-85401409D01*
X110454785Y-85420009D01*
X110397004Y-85354754D01*
X110375562Y-85331109D01*
X110348189Y-85301790D01*
X110317010Y-85269026D01*
X110284156Y-85235045D01*
X110251752Y-85202078D01*
X110240413Y-85190693D01*
X110149116Y-85101868D01*
X110057697Y-85017733D01*
X109966842Y-84938786D01*
X109877238Y-84865526D01*
X109789569Y-84798453D01*
X109704522Y-84738066D01*
X109622782Y-84684864D01*
X109545035Y-84639346D01*
X109471968Y-84602011D01*
X109404265Y-84573359D01*
X109380823Y-84565094D01*
X109357908Y-84557767D01*
X109339095Y-84552762D01*
X109321159Y-84549642D01*
X109300876Y-84547968D01*
X109275021Y-84547302D01*
X109249211Y-84547200D01*
X109210634Y-84547796D01*
X109210634Y-84547796D01*
G37*
X109210634Y-84547796D02*
X109180916Y-84550125D01*
X109157665Y-84554996D01*
X109138487Y-84563218D01*
X109120991Y-84575600D01*
X109102784Y-84592951D01*
X109097521Y-84598502D01*
X109074052Y-84628343D01*
X109054137Y-84664380D01*
X109037270Y-84707892D01*
X109022947Y-84760158D01*
X109011867Y-84815432D01*
X109008763Y-84835663D01*
X109006354Y-84857566D01*
X109004566Y-84882815D01*
X109003324Y-84913083D01*
X109002554Y-84950045D01*
X109002183Y-84995375D01*
X109002120Y-85035444D01*
X109002434Y-85094075D01*
X109003428Y-85147595D01*
X109005259Y-85198212D01*
X109008085Y-85248134D01*
X109012060Y-85299569D01*
X109017341Y-85354724D01*
X109024086Y-85415807D01*
X109032449Y-85485026D01*
X109035891Y-85512400D01*
X109039311Y-85539133D01*
X109042720Y-85565176D01*
X109046269Y-85591550D01*
X109050107Y-85619274D01*
X109054387Y-85649370D01*
X109059258Y-85682859D01*
X109064871Y-85720761D01*
X109071377Y-85764097D01*
X109078927Y-85813887D01*
X109087670Y-85871153D01*
X109097759Y-85936915D01*
X109109344Y-86012193D01*
X109117133Y-86062733D01*
X109146726Y-86254644D01*
X109111287Y-86310816D01*
X109079897Y-86364312D01*
X109048337Y-86424887D01*
X109018500Y-86488518D01*
X108992282Y-86551187D01*
X108973182Y-86603934D01*
X108962789Y-86637587D01*
X108952418Y-86674849D01*
X108942604Y-86713395D01*
X108933883Y-86750901D01*
X108926791Y-86785042D01*
X108921862Y-86813492D01*
X108919633Y-86833928D01*
X108919558Y-86836731D01*
X108917926Y-86851263D01*
X108914762Y-86860382D01*
X108911251Y-86861008D01*
X108902697Y-86858904D01*
X108888458Y-86853794D01*
X108867895Y-86845400D01*
X108840367Y-86833442D01*
X108805234Y-86817644D01*
X108761854Y-86797727D01*
X108709588Y-86773413D01*
X108649813Y-86745374D01*
X108435253Y-86644430D01*
X108229625Y-86644430D01*
X108223931Y-86669618D01*
X108210517Y-86691300D01*
X108191159Y-86707988D01*
X108167635Y-86718191D01*
X108141722Y-86720422D01*
X108115198Y-86713192D01*
X108112707Y-86711957D01*
X108089873Y-86694726D01*
X108075588Y-86672616D01*
X108069598Y-86647816D01*
X108071649Y-86622515D01*
X108081486Y-86598900D01*
X108098856Y-86579162D01*
X108123505Y-86565487D01*
X108129938Y-86563494D01*
X108156587Y-86561752D01*
X108182629Y-86569520D01*
X108205271Y-86585232D01*
X108221721Y-86607325D01*
X108225819Y-86617224D01*
X108229625Y-86644430D01*
X108435253Y-86644430D01*
X108389573Y-86622939D01*
X108383011Y-86591192D01*
X108367814Y-86543641D01*
X108343729Y-86501295D01*
X108312108Y-86465082D01*
X108274298Y-86435928D01*
X108231650Y-86414758D01*
X108185514Y-86402500D01*
X108137238Y-86400080D01*
X108109463Y-86403424D01*
X108059020Y-86418045D01*
X108014420Y-86441649D01*
X107976550Y-86473183D01*
X107946294Y-86511593D01*
X107924537Y-86555825D01*
X107912166Y-86604826D01*
X107909565Y-86641288D01*
X107914882Y-86692664D01*
X107930209Y-86740177D01*
X107954610Y-86782725D01*
X107987150Y-86819206D01*
X108026893Y-86848520D01*
X108072902Y-86869564D01*
X108111872Y-86879416D01*
X108160636Y-86882461D01*
X108208864Y-86874576D01*
X108256348Y-86856173D01*
X108290140Y-86839444D01*
X108597837Y-86983870D01*
X108653155Y-87009923D01*
X108705512Y-87034753D01*
X108753997Y-87057916D01*
X108797701Y-87078968D01*
X108835711Y-87097468D01*
X108867117Y-87112971D01*
X108891009Y-87125035D01*
X108906475Y-87133215D01*
X108912589Y-87137048D01*
X108917749Y-87148903D01*
X108919699Y-87163067D01*
X108920858Y-87175447D01*
X108923959Y-87195868D01*
X108928512Y-87221347D01*
X108933256Y-87245244D01*
X108938444Y-87270677D01*
X108942525Y-87291634D01*
X108945083Y-87305908D01*
X108945712Y-87311285D01*
X108940043Y-87311628D01*
X108923987Y-87312260D01*
X108898440Y-87313151D01*
X108864298Y-87314273D01*
X108822458Y-87315599D01*
X108773818Y-87317101D01*
X108719273Y-87318750D01*
X108659720Y-87320519D01*
X108596057Y-87322378D01*
X108541482Y-87323950D01*
X108464227Y-87326149D01*
X108397479Y-87328012D01*
X108340457Y-87329543D01*
X108292385Y-87330744D01*
X108252484Y-87331621D01*
X108219975Y-87332174D01*
X108194081Y-87332409D01*
X108174024Y-87332329D01*
X108159024Y-87331936D01*
X108148305Y-87331234D01*
X108141087Y-87330226D01*
X108136593Y-87328916D01*
X108134045Y-87327308D01*
X108132825Y-87325705D01*
X108118340Y-87305979D01*
X108097075Y-87284418D01*
X108072435Y-87264053D01*
X108047828Y-87247914D01*
X108041951Y-87244832D01*
X107993016Y-87226491D01*
X107943595Y-87218684D01*
X107895012Y-87220977D01*
X107848594Y-87232932D01*
X107805663Y-87254112D01*
X107767546Y-87284083D01*
X107735567Y-87322407D01*
X107718879Y-87351227D01*
X107709734Y-87370164D01*
X107703678Y-87385018D01*
X107700076Y-87399029D01*
X107698291Y-87415439D01*
X107697685Y-87437489D01*
X107697622Y-87459440D01*
X107697814Y-87488216D01*
X107698761Y-87508898D01*
X107701024Y-87524680D01*
X107705161Y-87538757D01*
X107711731Y-87554322D01*
X107715733Y-87562878D01*
X107742324Y-87606658D01*
X107776190Y-87642700D01*
X107815944Y-87670507D01*
X107860197Y-87689580D01*
X107907561Y-87699420D01*
X107956648Y-87699529D01*
X108006072Y-87689408D01*
X108035955Y-87677923D01*
X108058735Y-87664426D01*
X108084462Y-87644367D01*
X108109882Y-87620621D01*
X108131743Y-87596060D01*
X108137929Y-87587833D01*
X108149178Y-87572000D01*
X108527356Y-87561105D01*
X108614733Y-87558598D01*
X108691518Y-87556428D01*
X108758399Y-87554594D01*
X108816068Y-87553095D01*
X108865215Y-87551930D01*
X108906530Y-87551098D01*
X108940705Y-87550599D01*
X108968428Y-87550431D01*
X108990392Y-87550592D01*
X109007285Y-87551083D01*
X109019800Y-87551902D01*
X109028625Y-87553048D01*
X109034452Y-87554520D01*
X109037971Y-87556317D01*
X109039873Y-87558438D01*
X109040687Y-87560346D01*
X109044639Y-87569012D01*
X109053056Y-87585197D01*
X109064737Y-87606658D01*
X109078481Y-87631150D01*
X109079753Y-87633382D01*
X109115549Y-87696116D01*
X108702966Y-87890412D01*
X108290382Y-88084708D01*
X108258910Y-88068715D01*
X108211077Y-88050321D01*
X108161994Y-88042366D01*
X108113172Y-88044492D01*
X108066121Y-88056339D01*
X108022354Y-88077550D01*
X107983379Y-88107765D01*
X107954651Y-88140953D01*
X107935364Y-88171377D01*
X107922549Y-88201116D01*
X107915191Y-88233648D01*
X107912273Y-88272453D01*
X107912111Y-88286644D01*
X107912378Y-88313360D01*
X107913710Y-88332644D01*
X107916904Y-88348347D01*
X107922757Y-88364322D01*
X107932067Y-88384423D01*
X107932549Y-88385422D01*
X107959446Y-88429417D01*
X107992973Y-88465416D01*
X108031759Y-88493153D01*
X108074437Y-88512362D01*
X108119638Y-88522778D01*
X108165993Y-88524133D01*
X108212134Y-88516163D01*
X108256692Y-88498600D01*
X108298299Y-88471180D01*
X108311951Y-88459166D01*
X108342086Y-88425398D01*
X108364371Y-88387581D01*
X108380596Y-88342618D01*
X108381776Y-88338280D01*
X108391889Y-88300269D01*
X108419612Y-88287206D01*
X108227903Y-88287206D01*
X108222903Y-88311977D01*
X108209715Y-88334597D01*
X108188931Y-88352328D01*
X108163963Y-88361415D01*
X108136507Y-88361528D01*
X108110769Y-88352785D01*
X108106268Y-88350031D01*
X108085371Y-88330398D01*
X108073413Y-88307025D01*
X108069797Y-88281965D01*
X108073924Y-88257268D01*
X108085195Y-88234988D01*
X108103012Y-88217175D01*
X108126777Y-88205881D01*
X108149178Y-88202918D01*
X108176932Y-88207658D01*
X108199228Y-88220509D01*
X108215519Y-88239419D01*
X108225260Y-88262336D01*
X108227903Y-88287206D01*
X108419612Y-88287206D01*
X109259343Y-87891533D01*
X109347727Y-87979256D01*
X109405851Y-88035319D01*
X109460937Y-88084728D01*
X109516268Y-88130169D01*
X109575127Y-88174324D01*
X109640796Y-88219878D01*
X109647778Y-88224556D01*
X109783075Y-88308329D01*
X109925597Y-88383819D01*
X110074668Y-88450802D01*
X110229610Y-88509056D01*
X110389747Y-88558360D01*
X110554400Y-88598489D01*
X110722894Y-88629222D01*
X110894550Y-88650337D01*
X110960111Y-88655766D01*
X111001972Y-88658337D01*
X111050125Y-88660574D01*
X111101797Y-88662410D01*
X111154218Y-88663775D01*
X111204615Y-88664603D01*
X111250218Y-88664826D01*
X111288253Y-88664375D01*
X111298778Y-88664063D01*
X111480510Y-88652667D01*
X111658010Y-88631674D01*
X111830909Y-88601195D01*
X111998838Y-88561342D01*
X112161428Y-88512226D01*
X112318308Y-88453960D01*
X112469109Y-88386654D01*
X112613463Y-88310421D01*
X112750999Y-88225373D01*
X112752222Y-88224556D01*
X112818743Y-88178718D01*
X112878128Y-88134544D01*
X112933661Y-88089350D01*
X112988625Y-88040452D01*
X113046303Y-87985167D01*
X113052273Y-87979256D01*
X113140657Y-87891533D01*
X114008111Y-88300269D01*
X114018224Y-88338280D01*
X114034007Y-88384008D01*
X114055696Y-88422322D01*
X114085079Y-88456319D01*
X114088049Y-88459166D01*
X114128293Y-88490109D01*
X114171970Y-88511101D01*
X114217711Y-88522407D01*
X114264147Y-88524295D01*
X114309909Y-88517031D01*
X114353629Y-88500879D01*
X114393938Y-88476107D01*
X114429467Y-88442980D01*
X114458848Y-88401764D01*
X114467452Y-88385422D01*
X114476925Y-88365062D01*
X114482908Y-88348990D01*
X114486199Y-88333354D01*
X114487593Y-88314300D01*
X114487889Y-88287976D01*
X114487889Y-88287748D01*
X114331298Y-88287748D01*
X114325281Y-88311168D01*
X114312453Y-88332004D01*
X114294234Y-88348666D01*
X114272046Y-88359568D01*
X114247310Y-88363121D01*
X114221449Y-88357737D01*
X114214298Y-88354462D01*
X114193773Y-88338343D01*
X114179490Y-88316138D01*
X114172254Y-88290814D01*
X114172870Y-88265333D01*
X114182143Y-88242662D01*
X114183438Y-88240850D01*
X114206463Y-88217543D01*
X114231967Y-88204694D01*
X114258461Y-88202318D01*
X114284453Y-88210431D01*
X114308453Y-88229048D01*
X114317209Y-88239504D01*
X114329081Y-88263330D01*
X114331298Y-88287748D01*
X114487889Y-88287748D01*
X114487889Y-88286644D01*
X114486168Y-88245121D01*
X114480330Y-88210974D01*
X114469357Y-88180725D01*
X114452235Y-88150896D01*
X114445350Y-88140953D01*
X114411751Y-88103225D01*
X114372050Y-88074191D01*
X114327757Y-88054209D01*
X114280382Y-88043638D01*
X114231438Y-88042837D01*
X114182434Y-88052164D01*
X114141090Y-88068715D01*
X114109618Y-88084708D01*
X113697035Y-87890412D01*
X113284451Y-87696116D01*
X113320247Y-87633382D01*
X113334116Y-87608730D01*
X113346027Y-87586912D01*
X113354781Y-87570170D01*
X113359175Y-87560750D01*
X113359313Y-87560346D01*
X113360424Y-87557969D01*
X113362606Y-87555916D01*
X113366549Y-87554186D01*
X113372943Y-87552782D01*
X113382480Y-87551705D01*
X113395850Y-87550954D01*
X113413743Y-87550532D01*
X113436849Y-87550438D01*
X113465859Y-87550676D01*
X113501464Y-87551244D01*
X113544353Y-87552145D01*
X113595218Y-87553379D01*
X113654749Y-87554948D01*
X113723636Y-87556852D01*
X113802570Y-87559092D01*
X113872645Y-87561105D01*
X114250822Y-87572000D01*
X114262071Y-87587833D01*
X114281926Y-87612003D01*
X114306475Y-87636360D01*
X114332464Y-87658031D01*
X114356641Y-87674142D01*
X114364046Y-87677923D01*
X114412988Y-87694566D01*
X114462446Y-87700673D01*
X114511032Y-87696742D01*
X114557358Y-87683273D01*
X114600036Y-87660765D01*
X114637677Y-87629715D01*
X114668895Y-87590622D01*
X114684267Y-87562878D01*
X114692147Y-87545552D01*
X114697336Y-87531187D01*
X114700393Y-87516587D01*
X114701877Y-87498560D01*
X114702348Y-87473911D01*
X114702378Y-87459440D01*
X114702377Y-87459096D01*
X114546110Y-87459096D01*
X114545536Y-87470199D01*
X114541837Y-87488177D01*
X114533776Y-87502592D01*
X114519710Y-87517378D01*
X114504524Y-87530229D01*
X114491658Y-87536605D01*
X114476124Y-87538637D01*
X114469763Y-87538718D01*
X114444029Y-87535465D01*
X114426598Y-87528043D01*
X114405840Y-87508567D01*
X114393315Y-87484566D01*
X114388977Y-87458449D01*
X114392778Y-87432622D01*
X114404670Y-87409495D01*
X114424605Y-87391476D01*
X114429353Y-87388799D01*
X114457048Y-87379989D01*
X114483920Y-87381122D01*
X114508117Y-87390898D01*
X114527784Y-87408018D01*
X114541066Y-87431184D01*
X114546110Y-87459096D01*
X114702377Y-87459096D01*
X114702237Y-87431102D01*
X114701389Y-87410811D01*
X114699197Y-87395327D01*
X114695025Y-87381409D01*
X114688236Y-87365815D01*
X114681122Y-87351227D01*
X114653784Y-87307767D01*
X114619457Y-87272381D01*
X114579466Y-87245504D01*
X114535136Y-87227573D01*
X114487791Y-87219024D01*
X114438756Y-87220294D01*
X114389356Y-87231818D01*
X114358049Y-87244832D01*
X114333996Y-87259403D01*
X114309041Y-87278976D01*
X114286589Y-87300520D01*
X114270045Y-87321003D01*
X114267175Y-87325705D01*
X114265670Y-87327565D01*
X114262882Y-87329130D01*
X114258033Y-87330395D01*
X114250344Y-87331357D01*
X114239039Y-87332014D01*
X114223338Y-87332360D01*
X114202463Y-87332395D01*
X114175637Y-87332113D01*
X114142080Y-87331511D01*
X114101015Y-87330587D01*
X114051664Y-87329336D01*
X113993247Y-87327756D01*
X113924988Y-87325844D01*
X113858518Y-87323950D01*
X113792156Y-87322036D01*
X113729171Y-87320191D01*
X113670458Y-87318442D01*
X113616915Y-87316818D01*
X113569439Y-87315345D01*
X113528926Y-87314054D01*
X113496274Y-87312971D01*
X113472378Y-87312125D01*
X113458135Y-87311544D01*
X113454288Y-87311285D01*
X113454957Y-87305663D01*
X113457556Y-87291204D01*
X113461668Y-87270115D01*
X113466744Y-87245244D01*
X113472157Y-87217793D01*
X113476545Y-87192812D01*
X113479418Y-87173284D01*
X113480301Y-87163067D01*
X113482578Y-87147707D01*
X113487411Y-87137048D01*
X113493672Y-87133133D01*
X113509257Y-87124898D01*
X113533255Y-87112786D01*
X113564756Y-87097240D01*
X113602848Y-87078703D01*
X113646621Y-87057619D01*
X113695164Y-87034431D01*
X113747567Y-87009582D01*
X113802164Y-86983870D01*
X114109861Y-86839444D01*
X114143653Y-86856173D01*
X114192236Y-86874879D01*
X114240466Y-86882512D01*
X114288128Y-86879416D01*
X114338312Y-86865464D01*
X114382948Y-86842397D01*
X114421098Y-86811318D01*
X114451828Y-86773327D01*
X114474202Y-86729526D01*
X114487283Y-86681016D01*
X114489996Y-86646815D01*
X114330895Y-86646815D01*
X114324836Y-86672619D01*
X114318167Y-86685007D01*
X114299314Y-86704192D01*
X114274504Y-86716118D01*
X114247090Y-86719918D01*
X114220422Y-86714719D01*
X114214352Y-86711957D01*
X114190997Y-86694522D01*
X114176457Y-86672403D01*
X114170528Y-86647706D01*
X114173005Y-86622536D01*
X114183683Y-86598997D01*
X114202358Y-86579194D01*
X114228605Y-86565309D01*
X114255451Y-86561200D01*
X114280166Y-86566558D01*
X114301410Y-86579592D01*
X114317841Y-86598508D01*
X114328116Y-86621513D01*
X114330895Y-86646815D01*
X114489996Y-86646815D01*
X114490435Y-86641288D01*
X114485150Y-86589479D01*
X114469882Y-86541772D01*
X114445518Y-86499209D01*
X114412941Y-86462829D01*
X114373036Y-86433676D01*
X114326687Y-86412790D01*
X114288188Y-86403171D01*
X114238882Y-86400144D01*
X114191176Y-86407480D01*
X114146402Y-86424258D01*
X114105889Y-86449555D01*
X114070966Y-86482449D01*
X114042965Y-86522019D01*
X114023215Y-86567341D01*
X114016990Y-86591192D01*
X114010427Y-86622939D01*
X113750377Y-86745285D01*
X113699858Y-86768994D01*
X113652495Y-86791107D01*
X113609255Y-86811180D01*
X113571105Y-86828772D01*
X113539012Y-86843437D01*
X113513944Y-86854732D01*
X113496868Y-86862213D01*
X113488751Y-86865438D01*
X113488212Y-86865515D01*
X113486519Y-86859459D01*
X113483424Y-86844451D01*
X113479351Y-86822676D01*
X113474723Y-86796322D01*
X113474203Y-86793266D01*
X113450155Y-86682970D01*
X113415740Y-86572859D01*
X113371761Y-86465004D01*
X112701205Y-86465004D01*
X112700942Y-86496007D01*
X112699994Y-86531691D01*
X112698450Y-86569863D01*
X112696401Y-86608336D01*
X112693938Y-86644920D01*
X112691149Y-86677424D01*
X112688126Y-86703660D01*
X112687764Y-86706200D01*
X112667713Y-86815371D01*
X112640784Y-86915635D01*
X112606947Y-87007061D01*
X112566172Y-87089716D01*
X112518430Y-87163668D01*
X112463691Y-87228985D01*
X112453197Y-87239726D01*
X112388315Y-87296708D01*
X112314891Y-87346571D01*
X112233260Y-87389163D01*
X112143763Y-87424333D01*
X112046737Y-87451929D01*
X111942519Y-87471800D01*
X111930956Y-87473462D01*
X111898942Y-87477852D01*
X111873089Y-87481093D01*
X111850651Y-87483345D01*
X111828881Y-87484773D01*
X111805036Y-87485539D01*
X111776367Y-87485805D01*
X111740131Y-87485733D01*
X111724933Y-87485657D01*
X111626156Y-87485133D01*
X111624547Y-87389177D01*
X111624654Y-87383969D01*
X110776667Y-87383969D01*
X110776430Y-87415945D01*
X110775774Y-87443968D01*
X110774781Y-87466097D01*
X110773532Y-87480391D01*
X110772433Y-87484850D01*
X110765190Y-87486468D01*
X110748473Y-87487374D01*
X110724071Y-87487632D01*
X110693772Y-87487306D01*
X110659364Y-87486460D01*
X110622637Y-87485157D01*
X110585379Y-87483461D01*
X110549377Y-87481436D01*
X110516421Y-87479145D01*
X110488300Y-87476653D01*
X110466801Y-87474023D01*
X110466222Y-87473934D01*
X110446179Y-87470069D01*
X108011047Y-87470069D01*
X108002908Y-87495105D01*
X107987139Y-87516195D01*
X107964892Y-87531311D01*
X107937319Y-87538426D01*
X107930237Y-87538718D01*
X107912793Y-87537627D01*
X107899615Y-87532876D01*
X107885715Y-87522333D01*
X107880290Y-87517378D01*
X107861402Y-87493124D01*
X107853226Y-87466207D01*
X107855994Y-87437767D01*
X107861268Y-87423932D01*
X107877350Y-87401735D01*
X107899245Y-87387239D01*
X107924448Y-87380585D01*
X107950452Y-87381910D01*
X107974750Y-87391354D01*
X107994836Y-87409055D01*
X107999829Y-87416262D01*
X108010405Y-87443112D01*
X108011047Y-87470069D01*
X110446179Y-87470069D01*
X110358654Y-87453192D01*
X110259903Y-87425528D01*
X110169778Y-87390747D01*
X110088086Y-87348652D01*
X110014636Y-87299050D01*
X109949236Y-87241744D01*
X109891693Y-87176538D01*
X109841816Y-87103237D01*
X109799413Y-87021646D01*
X109764291Y-86931569D01*
X109736259Y-86832811D01*
X109715125Y-86725176D01*
X109712236Y-86706200D01*
X109709192Y-86680834D01*
X109706372Y-86648945D01*
X109703866Y-86612723D01*
X109701764Y-86574357D01*
X109700157Y-86536037D01*
X109699135Y-86499952D01*
X109698788Y-86468293D01*
X109699206Y-86443248D01*
X109700480Y-86427008D01*
X109700687Y-86425793D01*
X109704464Y-86405659D01*
X109753732Y-86401946D01*
X109788927Y-86400711D01*
X109832344Y-86401418D01*
X109881120Y-86403870D01*
X109932393Y-86407873D01*
X109983299Y-86413232D01*
X110030976Y-86419750D01*
X110042889Y-86421678D01*
X110140278Y-86442172D01*
X110231994Y-86469807D01*
X110317150Y-86504177D01*
X110394860Y-86544876D01*
X110464235Y-86591499D01*
X110520822Y-86640135D01*
X110577683Y-86703243D01*
X110627788Y-86775004D01*
X110670958Y-86854893D01*
X110707012Y-86942385D01*
X110735770Y-87036958D01*
X110757051Y-87138085D01*
X110770676Y-87245244D01*
X110776463Y-87357909D01*
X110776667Y-87383969D01*
X111624654Y-87383969D01*
X111626799Y-87279853D01*
X111637111Y-87174441D01*
X111655231Y-87073685D01*
X111680905Y-86978330D01*
X111713879Y-86889122D01*
X111753902Y-86806804D01*
X111800719Y-86732123D01*
X111854079Y-86665821D01*
X111879111Y-86639937D01*
X111938777Y-86588981D01*
X112007687Y-86543274D01*
X112084870Y-86503260D01*
X112169356Y-86469382D01*
X112260174Y-86442082D01*
X112356354Y-86421805D01*
X112357111Y-86421678D01*
X112403430Y-86414881D01*
X112453748Y-86409191D01*
X112505204Y-86404804D01*
X112554933Y-86401914D01*
X112600075Y-86400719D01*
X112637765Y-86401412D01*
X112646268Y-86401946D01*
X112695536Y-86405659D01*
X112699313Y-86425793D01*
X112700692Y-86440869D01*
X112701205Y-86465004D01*
X113371761Y-86465004D01*
X113371732Y-86464935D01*
X113318904Y-86361202D01*
X113285603Y-86305444D01*
X113253513Y-86254644D01*
X113274084Y-86116355D01*
X113290547Y-86005356D01*
X113305351Y-85904702D01*
X113318584Y-85813586D01*
X113330330Y-85731201D01*
X113340676Y-85656738D01*
X113349708Y-85589391D01*
X113357513Y-85528350D01*
X113364176Y-85472810D01*
X113369785Y-85421962D01*
X113374424Y-85374998D01*
X113378180Y-85331112D01*
X113381140Y-85289494D01*
X113383389Y-85249339D01*
X113385014Y-85209837D01*
X113386101Y-85170182D01*
X113386736Y-85129565D01*
X113387006Y-85087180D01*
X113387025Y-85058022D01*
X113386851Y-85003558D01*
X113386413Y-84958833D01*
X113385647Y-84922299D01*
X113384487Y-84892408D01*
X113382866Y-84867612D01*
X113380718Y-84846362D01*
X113377979Y-84827111D01*
X113376938Y-84820955D01*
X113362949Y-84754164D01*
X113346048Y-84697692D01*
X113325895Y-84650864D01*
X113302150Y-84613008D01*
X113274471Y-84583449D01*
X113246988Y-84563995D01*
X113234943Y-84557341D01*
X113224407Y-84552740D01*
X113212945Y-84549811D01*
X113198122Y-84548176D01*
X113177501Y-84547452D01*
X113148647Y-84547262D01*
X113139699Y-84547252D01*
X113107021Y-84547430D01*
X113082530Y-84548280D01*
X113063128Y-84550201D01*
X113045717Y-84553590D01*
X113027198Y-84558848D01*
X113012699Y-84563591D01*
X112940205Y-84591803D01*
X112863118Y-84629323D01*
X112781298Y-84676243D01*
X112694606Y-84732654D01*
X112602902Y-84798648D01*
X112506048Y-84874318D01*
X112403903Y-84959756D01*
X112380116Y-84980387D01*
X112344883Y-85011948D01*
X112304144Y-85049798D01*
X112259599Y-85092248D01*
X112212950Y-85137613D01*
X112165898Y-85184203D01*
X112120145Y-85230332D01*
X112077392Y-85274313D01*
X112039340Y-85314458D01*
X112007691Y-85349079D01*
X112002688Y-85354727D01*
X111945215Y-85420009D01*
X111859063Y-85401409D01*
X111770786Y-85383348D01*
X111687641Y-85368582D01*
X111607165Y-85356862D01*
X111526894Y-85347941D01*
X111444363Y-85341571D01*
X111357107Y-85337505D01*
X111262664Y-85335495D01*
X111200000Y-85335173D01*
X111099917Y-85336043D01*
X111008537Y-85338816D01*
X110923395Y-85343740D01*
X110842027Y-85351064D01*
X110761968Y-85361035D01*
X110680756Y-85373900D01*
X110595924Y-85389908D01*
X110540937Y-85401409D01*
X110454785Y-85420009D01*
X110397004Y-85354754D01*
X110375562Y-85331109D01*
X110348189Y-85301790D01*
X110317010Y-85269026D01*
X110284156Y-85235045D01*
X110251752Y-85202078D01*
X110240413Y-85190693D01*
X110149116Y-85101868D01*
X110057697Y-85017733D01*
X109966842Y-84938786D01*
X109877238Y-84865526D01*
X109789569Y-84798453D01*
X109704522Y-84738066D01*
X109622782Y-84684864D01*
X109545035Y-84639346D01*
X109471968Y-84602011D01*
X109404265Y-84573359D01*
X109380823Y-84565094D01*
X109357908Y-84557767D01*
X109339095Y-84552762D01*
X109321159Y-84549642D01*
X109300876Y-84547968D01*
X109275021Y-84547302D01*
X109249211Y-84547200D01*
X109210634Y-84547796D01*
G04 #@! TO.C,*
D11*
G04 #@! TD*
M02*
