G04 #@! TF.GenerationSoftware,KiCad,Pcbnew,(5.0.1)-4*
G04 #@! TF.CreationDate,2018-11-29T17:47:57-05:00*
G04 #@! TF.ProjectId,MagSpoofTC,4D616753706F6F6654432E6B69636164,1.0*
G04 #@! TF.SameCoordinates,Original*
G04 #@! TF.FileFunction,Legend,Top*
G04 #@! TF.FilePolarity,Positive*
%FSLAX46Y46*%
G04 Gerber Fmt 4.6, Leading zero omitted, Abs format (unit mm)*
G04 Created by KiCad (PCBNEW (5.0.1)-4) date 11/29/2018 5:47:57 PM*
%MOMM*%
%LPD*%
G01*
G04 APERTURE LIST*
%ADD10C,0.150000*%
%ADD11C,0.203200*%
%ADD12C,0.299720*%
%ADD13C,0.152400*%
%ADD14C,0.127000*%
G04 APERTURE END LIST*
D10*
G04 #@! TO.C,U1*
X124405000Y-89365000D02*
X125675000Y-89365000D01*
X124405000Y-82015000D02*
X125675000Y-82015000D01*
X136615000Y-82015000D02*
X135345000Y-82015000D01*
X136615000Y-89365000D02*
X135345000Y-89365000D01*
X124405000Y-89365000D02*
X124405000Y-82015000D01*
X136615000Y-89365000D02*
X136615000Y-82015000D01*
X125675000Y-89365000D02*
X125675000Y-90650000D01*
D11*
G04 #@! TO.C,C1*
X111900000Y-105600000D02*
X109300000Y-105600000D01*
X109300000Y-105600000D02*
X109300000Y-104600000D01*
X112900000Y-104600000D02*
X112900000Y-105600000D01*
X112900000Y-105600000D02*
X111900000Y-105600000D01*
X111900000Y-100000000D02*
X112900000Y-100000000D01*
X112900000Y-100000000D02*
X112900000Y-101000000D01*
X110300000Y-100000000D02*
X109300000Y-100000000D01*
X109300000Y-100000000D02*
X109300000Y-101000000D01*
X110700000Y-99600000D02*
X111500000Y-99600000D01*
X111100000Y-99200000D02*
X111100000Y-100000000D01*
X112500000Y-101000000D02*
X109700000Y-101000000D01*
X109700000Y-101000000D02*
X109700000Y-104600000D01*
X109700000Y-104600000D02*
X112500000Y-104600000D01*
X112500000Y-104600000D02*
X112500000Y-101000000D01*
G04 #@! TO.C,C2*
X121700000Y-87300000D02*
X119100000Y-87300000D01*
X119100000Y-87300000D02*
X119100000Y-86300000D01*
X122700000Y-86300000D02*
X122700000Y-87300000D01*
X122700000Y-87300000D02*
X121700000Y-87300000D01*
X121700000Y-81700000D02*
X122700000Y-81700000D01*
X122700000Y-81700000D02*
X122700000Y-82700000D01*
X120100000Y-81700000D02*
X119100000Y-81700000D01*
X119100000Y-81700000D02*
X119100000Y-82700000D01*
X120500000Y-81300000D02*
X121300000Y-81300000D01*
X120900000Y-80900000D02*
X120900000Y-81700000D01*
X122300000Y-82700000D02*
X119500000Y-82700000D01*
X119500000Y-82700000D02*
X119500000Y-86300000D01*
X119500000Y-86300000D02*
X122300000Y-86300000D01*
X122300000Y-86300000D02*
X122300000Y-82700000D01*
D10*
G04 #@! TO.C,IC1*
X127915000Y-95175000D02*
X127915000Y-96445000D01*
X135265000Y-95175000D02*
X135265000Y-96445000D01*
X135265000Y-107385000D02*
X135265000Y-106115000D01*
X127915000Y-107385000D02*
X127915000Y-106115000D01*
X127915000Y-95175000D02*
X135265000Y-95175000D01*
X127915000Y-107385000D02*
X135265000Y-107385000D01*
X127915000Y-96445000D02*
X126630000Y-96445000D01*
G04 #@! TO.C,L1*
X113840000Y-84070000D02*
X108760000Y-84070000D01*
X108760000Y-84070000D02*
X108760000Y-81530000D01*
X108760000Y-81530000D02*
X113840000Y-81530000D01*
X113840000Y-81530000D02*
X113840000Y-84070000D01*
X113840000Y-82800000D02*
X115110000Y-82800000D01*
X108760000Y-82800000D02*
X107490000Y-82800000D01*
G04 #@! TO.C,P1*
X105330000Y-102730000D02*
X105330000Y-100190000D01*
X105050000Y-105550000D02*
X105050000Y-104000000D01*
X105330000Y-102730000D02*
X107870000Y-102730000D01*
X108150000Y-104000000D02*
X108150000Y-105550000D01*
X108150000Y-105550000D02*
X105050000Y-105550000D01*
X107870000Y-102730000D02*
X107870000Y-100190000D01*
X107870000Y-100190000D02*
X105330000Y-100190000D01*
G04 #@! TO.C,P2*
X121610000Y-95510000D02*
X121610000Y-90430000D01*
X121890000Y-98330000D02*
X120340000Y-98330000D01*
X119070000Y-98050000D02*
X119070000Y-95510000D01*
X119070000Y-95510000D02*
X121610000Y-95510000D01*
X121610000Y-90430000D02*
X116530000Y-90430000D01*
X116530000Y-90430000D02*
X116530000Y-95510000D01*
X121890000Y-98330000D02*
X121890000Y-96780000D01*
X116530000Y-98050000D02*
X119070000Y-98050000D01*
X116530000Y-95510000D02*
X116530000Y-98050000D01*
D12*
G04 #@! TO.C,SW1*
X106302300Y-88548160D02*
X112301780Y-88548160D01*
X112301780Y-88548160D02*
X112301780Y-94547640D01*
X112301780Y-94547640D02*
X106302300Y-94547640D01*
X106302300Y-94547640D02*
X106302300Y-88548160D01*
D10*
G04 #@! TO.C,D1*
X117650980Y-104550000D02*
X114950980Y-104550000D01*
X117650980Y-106050000D02*
X114950980Y-106050000D01*
X116150980Y-105150000D02*
X116150980Y-105400000D01*
X116150980Y-105400000D02*
X116300980Y-105250000D01*
X116400980Y-105650000D02*
X116400980Y-104950000D01*
X116050980Y-105300000D02*
X115700980Y-105300000D01*
X116400980Y-105300000D02*
X116050980Y-105650000D01*
X116050980Y-105650000D02*
X116050980Y-104950000D01*
X116050980Y-104950000D02*
X116400980Y-105300000D01*
G04 #@! TO.C,C3*
X132450000Y-93000000D02*
X131750000Y-93000000D01*
X131750000Y-91800000D02*
X132450000Y-91800000D01*
G04 #@! TO.C,R1*
X121800000Y-105975000D02*
X120800000Y-105975000D01*
X120800000Y-104625000D02*
X121800000Y-104625000D01*
G04 #@! TO.C,U1*
X122952380Y-90761904D02*
X123761904Y-90761904D01*
X123857142Y-90714285D01*
X123904761Y-90666666D01*
X123952380Y-90571428D01*
X123952380Y-90380952D01*
X123904761Y-90285714D01*
X123857142Y-90238095D01*
X123761904Y-90190476D01*
X122952380Y-90190476D01*
X123952380Y-89190476D02*
X123952380Y-89761904D01*
X123952380Y-89476190D02*
X122952380Y-89476190D01*
X123095238Y-89571428D01*
X123190476Y-89666666D01*
X123238095Y-89761904D01*
G04 #@! TO.C,C1*
D13*
X110172142Y-99127000D02*
X110208428Y-99163285D01*
X110244714Y-99272142D01*
X110244714Y-99344714D01*
X110208428Y-99453571D01*
X110135857Y-99526142D01*
X110063285Y-99562428D01*
X109918142Y-99598714D01*
X109809285Y-99598714D01*
X109664142Y-99562428D01*
X109591571Y-99526142D01*
X109519000Y-99453571D01*
X109482714Y-99344714D01*
X109482714Y-99272142D01*
X109519000Y-99163285D01*
X109555285Y-99127000D01*
X110244714Y-98401285D02*
X110244714Y-98836714D01*
X110244714Y-98619000D02*
X109482714Y-98619000D01*
X109591571Y-98691571D01*
X109664142Y-98764142D01*
X109700428Y-98836714D01*
G04 #@! TO.C,C2*
X118772142Y-86927000D02*
X118808428Y-86963285D01*
X118844714Y-87072142D01*
X118844714Y-87144714D01*
X118808428Y-87253571D01*
X118735857Y-87326142D01*
X118663285Y-87362428D01*
X118518142Y-87398714D01*
X118409285Y-87398714D01*
X118264142Y-87362428D01*
X118191571Y-87326142D01*
X118119000Y-87253571D01*
X118082714Y-87144714D01*
X118082714Y-87072142D01*
X118119000Y-86963285D01*
X118155285Y-86927000D01*
X118155285Y-86636714D02*
X118119000Y-86600428D01*
X118082714Y-86527857D01*
X118082714Y-86346428D01*
X118119000Y-86273857D01*
X118155285Y-86237571D01*
X118227857Y-86201285D01*
X118300428Y-86201285D01*
X118409285Y-86237571D01*
X118844714Y-86673000D01*
X118844714Y-86201285D01*
G04 #@! TO.C,IC1*
D10*
X126423809Y-94752380D02*
X126423809Y-93752380D01*
X127471428Y-94657142D02*
X127423809Y-94704761D01*
X127280952Y-94752380D01*
X127185714Y-94752380D01*
X127042857Y-94704761D01*
X126947619Y-94609523D01*
X126900000Y-94514285D01*
X126852380Y-94323809D01*
X126852380Y-94180952D01*
X126900000Y-93990476D01*
X126947619Y-93895238D01*
X127042857Y-93800000D01*
X127185714Y-93752380D01*
X127280952Y-93752380D01*
X127423809Y-93800000D01*
X127471428Y-93847619D01*
X128423809Y-94752380D02*
X127852380Y-94752380D01*
X128138095Y-94752380D02*
X128138095Y-93752380D01*
X128042857Y-93895238D01*
X127947619Y-93990476D01*
X127852380Y-94038095D01*
G04 #@! TO.C,L1*
X109233333Y-85252380D02*
X108757142Y-85252380D01*
X108757142Y-84252380D01*
X110090476Y-85252380D02*
X109519047Y-85252380D01*
X109804761Y-85252380D02*
X109804761Y-84252380D01*
X109709523Y-84395238D01*
X109614285Y-84490476D01*
X109519047Y-84538095D01*
X110757142Y-81157142D02*
X110709523Y-81204761D01*
X110566666Y-81252380D01*
X110471428Y-81252380D01*
X110328571Y-81204761D01*
X110233333Y-81109523D01*
X110185714Y-81014285D01*
X110138095Y-80823809D01*
X110138095Y-80680952D01*
X110185714Y-80490476D01*
X110233333Y-80395238D01*
X110328571Y-80300000D01*
X110471428Y-80252380D01*
X110566666Y-80252380D01*
X110709523Y-80300000D01*
X110757142Y-80347619D01*
X111328571Y-81252380D02*
X111233333Y-81204761D01*
X111185714Y-81157142D01*
X111138095Y-81061904D01*
X111138095Y-80776190D01*
X111185714Y-80680952D01*
X111233333Y-80633333D01*
X111328571Y-80585714D01*
X111471428Y-80585714D01*
X111566666Y-80633333D01*
X111614285Y-80680952D01*
X111661904Y-80776190D01*
X111661904Y-81061904D01*
X111614285Y-81157142D01*
X111566666Y-81204761D01*
X111471428Y-81252380D01*
X111328571Y-81252380D01*
X112090476Y-81252380D02*
X112090476Y-80585714D01*
X112090476Y-80252380D02*
X112042857Y-80300000D01*
X112090476Y-80347619D01*
X112138095Y-80300000D01*
X112090476Y-80252380D01*
X112090476Y-80347619D01*
X112709523Y-81252380D02*
X112614285Y-81204761D01*
X112566666Y-81109523D01*
X112566666Y-80252380D01*
G04 #@! TO.C,P1*
X106061904Y-99452380D02*
X106061904Y-98452380D01*
X106442857Y-98452380D01*
X106538095Y-98500000D01*
X106585714Y-98547619D01*
X106633333Y-98642857D01*
X106633333Y-98785714D01*
X106585714Y-98880952D01*
X106538095Y-98928571D01*
X106442857Y-98976190D01*
X106061904Y-98976190D01*
X107585714Y-99452380D02*
X107014285Y-99452380D01*
X107300000Y-99452380D02*
X107300000Y-98452380D01*
X107204761Y-98595238D01*
X107109523Y-98690476D01*
X107014285Y-98738095D01*
X103828571Y-104871428D02*
X103876190Y-104728571D01*
X103923809Y-104680952D01*
X104019047Y-104633333D01*
X104161904Y-104633333D01*
X104257142Y-104680952D01*
X104304761Y-104728571D01*
X104352380Y-104823809D01*
X104352380Y-105204761D01*
X103352380Y-105204761D01*
X103352380Y-104871428D01*
X103400000Y-104776190D01*
X103447619Y-104728571D01*
X103542857Y-104680952D01*
X103638095Y-104680952D01*
X103733333Y-104728571D01*
X103780952Y-104776190D01*
X103828571Y-104871428D01*
X103828571Y-105204761D01*
X104352380Y-103776190D02*
X103828571Y-103776190D01*
X103733333Y-103823809D01*
X103685714Y-103919047D01*
X103685714Y-104109523D01*
X103733333Y-104204761D01*
X104304761Y-103776190D02*
X104352380Y-103871428D01*
X104352380Y-104109523D01*
X104304761Y-104204761D01*
X104209523Y-104252380D01*
X104114285Y-104252380D01*
X104019047Y-104204761D01*
X103971428Y-104109523D01*
X103971428Y-103871428D01*
X103923809Y-103776190D01*
X103685714Y-103442857D02*
X103685714Y-103061904D01*
X103352380Y-103300000D02*
X104209523Y-103300000D01*
X104304761Y-103252380D01*
X104352380Y-103157142D01*
X104352380Y-103061904D01*
X103685714Y-102871428D02*
X103685714Y-102490476D01*
X103352380Y-102728571D02*
X104209523Y-102728571D01*
X104304761Y-102680952D01*
X104352380Y-102585714D01*
X104352380Y-102490476D01*
X104304761Y-101776190D02*
X104352380Y-101871428D01*
X104352380Y-102061904D01*
X104304761Y-102157142D01*
X104209523Y-102204761D01*
X103828571Y-102204761D01*
X103733333Y-102157142D01*
X103685714Y-102061904D01*
X103685714Y-101871428D01*
X103733333Y-101776190D01*
X103828571Y-101728571D01*
X103923809Y-101728571D01*
X104019047Y-102204761D01*
X104352380Y-101300000D02*
X103685714Y-101300000D01*
X103876190Y-101300000D02*
X103780952Y-101252380D01*
X103733333Y-101204761D01*
X103685714Y-101109523D01*
X103685714Y-101014285D01*
X103685714Y-100776190D02*
X104352380Y-100538095D01*
X103685714Y-100300000D02*
X104352380Y-100538095D01*
X104590476Y-100633333D01*
X104638095Y-100680952D01*
X104685714Y-100776190D01*
G04 #@! TO.C,P2*
X116161904Y-89752380D02*
X116161904Y-88752380D01*
X116542857Y-88752380D01*
X116638095Y-88800000D01*
X116685714Y-88847619D01*
X116733333Y-88942857D01*
X116733333Y-89085714D01*
X116685714Y-89180952D01*
X116638095Y-89228571D01*
X116542857Y-89276190D01*
X116161904Y-89276190D01*
X117114285Y-88847619D02*
X117161904Y-88800000D01*
X117257142Y-88752380D01*
X117495238Y-88752380D01*
X117590476Y-88800000D01*
X117638095Y-88847619D01*
X117685714Y-88942857D01*
X117685714Y-89038095D01*
X117638095Y-89180952D01*
X117066666Y-89752380D01*
X117685714Y-89752380D01*
X115638095Y-99866666D02*
X116114285Y-99866666D01*
X115542857Y-100152380D02*
X115876190Y-99152380D01*
X116209523Y-100152380D01*
X116400000Y-99152380D02*
X116733333Y-100152380D01*
X117066666Y-99152380D01*
X117971428Y-100152380D02*
X117638095Y-99676190D01*
X117400000Y-100152380D02*
X117400000Y-99152380D01*
X117780952Y-99152380D01*
X117876190Y-99200000D01*
X117923809Y-99247619D01*
X117971428Y-99342857D01*
X117971428Y-99485714D01*
X117923809Y-99580952D01*
X117876190Y-99628571D01*
X117780952Y-99676190D01*
X117400000Y-99676190D01*
X119161904Y-100152380D02*
X119161904Y-99152380D01*
X120209523Y-100057142D02*
X120161904Y-100104761D01*
X120019047Y-100152380D01*
X119923809Y-100152380D01*
X119780952Y-100104761D01*
X119685714Y-100009523D01*
X119638095Y-99914285D01*
X119590476Y-99723809D01*
X119590476Y-99580952D01*
X119638095Y-99390476D01*
X119685714Y-99295238D01*
X119780952Y-99200000D01*
X119923809Y-99152380D01*
X120019047Y-99152380D01*
X120161904Y-99200000D01*
X120209523Y-99247619D01*
X120590476Y-100104761D02*
X120733333Y-100152380D01*
X120971428Y-100152380D01*
X121066666Y-100104761D01*
X121114285Y-100057142D01*
X121161904Y-99961904D01*
X121161904Y-99866666D01*
X121114285Y-99771428D01*
X121066666Y-99723809D01*
X120971428Y-99676190D01*
X120780952Y-99628571D01*
X120685714Y-99580952D01*
X120638095Y-99533333D01*
X120590476Y-99438095D01*
X120590476Y-99342857D01*
X120638095Y-99247619D01*
X120685714Y-99200000D01*
X120780952Y-99152380D01*
X121019047Y-99152380D01*
X121161904Y-99200000D01*
X121590476Y-100152380D02*
X121590476Y-99152380D01*
X121971428Y-99152380D01*
X122066666Y-99200000D01*
X122114285Y-99247619D01*
X122161904Y-99342857D01*
X122161904Y-99485714D01*
X122114285Y-99580952D01*
X122066666Y-99628571D01*
X121971428Y-99676190D01*
X121590476Y-99676190D01*
G04 #@! TO.C,SW1*
D14*
X105784000Y-88108428D02*
X105892857Y-88144714D01*
X106074285Y-88144714D01*
X106146857Y-88108428D01*
X106183142Y-88072142D01*
X106219428Y-87999571D01*
X106219428Y-87927000D01*
X106183142Y-87854428D01*
X106146857Y-87818142D01*
X106074285Y-87781857D01*
X105929142Y-87745571D01*
X105856571Y-87709285D01*
X105820285Y-87673000D01*
X105784000Y-87600428D01*
X105784000Y-87527857D01*
X105820285Y-87455285D01*
X105856571Y-87419000D01*
X105929142Y-87382714D01*
X106110571Y-87382714D01*
X106219428Y-87419000D01*
X106473428Y-87382714D02*
X106654857Y-88144714D01*
X106800000Y-87600428D01*
X106945142Y-88144714D01*
X107126571Y-87382714D01*
X107816000Y-88144714D02*
X107380571Y-88144714D01*
X107598285Y-88144714D02*
X107598285Y-87382714D01*
X107525714Y-87491571D01*
X107453142Y-87564142D01*
X107380571Y-87600428D01*
X106816468Y-95706328D02*
X106925325Y-95742614D01*
X107106754Y-95742614D01*
X107179325Y-95706328D01*
X107215611Y-95670042D01*
X107251897Y-95597471D01*
X107251897Y-95524900D01*
X107215611Y-95452328D01*
X107179325Y-95416042D01*
X107106754Y-95379757D01*
X106961611Y-95343471D01*
X106889040Y-95307185D01*
X106852754Y-95270900D01*
X106816468Y-95198328D01*
X106816468Y-95125757D01*
X106852754Y-95053185D01*
X106889040Y-95016900D01*
X106961611Y-94980614D01*
X107143040Y-94980614D01*
X107251897Y-95016900D01*
X107505897Y-94980614D02*
X107687325Y-95742614D01*
X107832468Y-95198328D01*
X107977611Y-95742614D01*
X108159040Y-94980614D01*
X108267897Y-95815185D02*
X108848468Y-95815185D01*
X109029897Y-95742614D02*
X109029897Y-94980614D01*
X109320182Y-94980614D01*
X109392754Y-95016900D01*
X109429040Y-95053185D01*
X109465325Y-95125757D01*
X109465325Y-95234614D01*
X109429040Y-95307185D01*
X109392754Y-95343471D01*
X109320182Y-95379757D01*
X109029897Y-95379757D01*
X109791897Y-94980614D02*
X109791897Y-95597471D01*
X109828182Y-95670042D01*
X109864468Y-95706328D01*
X109937040Y-95742614D01*
X110082182Y-95742614D01*
X110154754Y-95706328D01*
X110191040Y-95670042D01*
X110227325Y-95597471D01*
X110227325Y-94980614D01*
X110553897Y-95706328D02*
X110662754Y-95742614D01*
X110844182Y-95742614D01*
X110916754Y-95706328D01*
X110953040Y-95670042D01*
X110989325Y-95597471D01*
X110989325Y-95524900D01*
X110953040Y-95452328D01*
X110916754Y-95416042D01*
X110844182Y-95379757D01*
X110699040Y-95343471D01*
X110626468Y-95307185D01*
X110590182Y-95270900D01*
X110553897Y-95198328D01*
X110553897Y-95125757D01*
X110590182Y-95053185D01*
X110626468Y-95016900D01*
X110699040Y-94980614D01*
X110880468Y-94980614D01*
X110989325Y-95016900D01*
X111315897Y-95742614D02*
X111315897Y-94980614D01*
X111315897Y-95343471D02*
X111751325Y-95343471D01*
X111751325Y-95742614D02*
X111751325Y-94980614D01*
G04 #@! TO.C,D1*
D10*
X115312884Y-107502380D02*
X115312884Y-106502380D01*
X115550980Y-106502380D01*
X115693837Y-106550000D01*
X115789075Y-106645238D01*
X115836694Y-106740476D01*
X115884313Y-106930952D01*
X115884313Y-107073809D01*
X115836694Y-107264285D01*
X115789075Y-107359523D01*
X115693837Y-107454761D01*
X115550980Y-107502380D01*
X115312884Y-107502380D01*
X116836694Y-107502380D02*
X116265265Y-107502380D01*
X116550980Y-107502380D02*
X116550980Y-106502380D01*
X116455741Y-106645238D01*
X116360503Y-106740476D01*
X116265265Y-106788095D01*
G04 #@! TO.C,C3*
X131933333Y-94657142D02*
X131885714Y-94704761D01*
X131742857Y-94752380D01*
X131647619Y-94752380D01*
X131504761Y-94704761D01*
X131409523Y-94609523D01*
X131361904Y-94514285D01*
X131314285Y-94323809D01*
X131314285Y-94180952D01*
X131361904Y-93990476D01*
X131409523Y-93895238D01*
X131504761Y-93800000D01*
X131647619Y-93752380D01*
X131742857Y-93752380D01*
X131885714Y-93800000D01*
X131933333Y-93847619D01*
X132266666Y-93752380D02*
X132885714Y-93752380D01*
X132552380Y-94133333D01*
X132695238Y-94133333D01*
X132790476Y-94180952D01*
X132838095Y-94228571D01*
X132885714Y-94323809D01*
X132885714Y-94561904D01*
X132838095Y-94657142D01*
X132790476Y-94704761D01*
X132695238Y-94752380D01*
X132409523Y-94752380D01*
X132314285Y-94704761D01*
X132266666Y-94657142D01*
G04 #@! TO.C,R1*
X121133333Y-103852380D02*
X120800000Y-103376190D01*
X120561904Y-103852380D02*
X120561904Y-102852380D01*
X120942857Y-102852380D01*
X121038095Y-102900000D01*
X121085714Y-102947619D01*
X121133333Y-103042857D01*
X121133333Y-103185714D01*
X121085714Y-103280952D01*
X121038095Y-103328571D01*
X120942857Y-103376190D01*
X120561904Y-103376190D01*
X122085714Y-103852380D02*
X121514285Y-103852380D01*
X121800000Y-103852380D02*
X121800000Y-102852380D01*
X121704761Y-102995238D01*
X121609523Y-103090476D01*
X121514285Y-103138095D01*
G04 #@! TD*
M02*
