G04 #@! TF.GenerationSoftware,KiCad,Pcbnew,(5.0.1)-4*
G04 #@! TF.CreationDate,2018-11-29T17:47:57-05:00*
G04 #@! TF.ProjectId,MagSpoofTC,4D616753706F6F6654432E6B69636164,1.0*
G04 #@! TF.SameCoordinates,Original*
G04 #@! TF.FileFunction,Soldermask,Bot*
G04 #@! TF.FilePolarity,Negative*
%FSLAX46Y46*%
G04 Gerber Fmt 4.6, Leading zero omitted, Abs format (unit mm)*
G04 Created by KiCad (PCBNEW (5.0.1)-4) date 11/29/2018 5:47:57 PM*
%MOMM*%
%LPD*%
G01*
G04 APERTURE LIST*
%ADD10C,0.100000*%
G04 APERTURE END LIST*
D10*
G36*
X135946030Y-104104469D02*
X135946033Y-104104470D01*
X135946034Y-104104470D01*
X136134535Y-104161651D01*
X136134537Y-104161652D01*
X136308260Y-104254509D01*
X136460528Y-104379472D01*
X136585491Y-104531740D01*
X136678348Y-104705463D01*
X136735531Y-104893970D01*
X136754838Y-105090000D01*
X136735531Y-105286030D01*
X136678348Y-105474537D01*
X136585491Y-105648260D01*
X136460528Y-105800528D01*
X136308260Y-105925491D01*
X136308258Y-105925492D01*
X136134535Y-106018349D01*
X135946034Y-106075530D01*
X135946033Y-106075530D01*
X135946030Y-106075531D01*
X135799124Y-106090000D01*
X135000876Y-106090000D01*
X134853970Y-106075531D01*
X134853967Y-106075530D01*
X134853966Y-106075530D01*
X134665465Y-106018349D01*
X134491742Y-105925492D01*
X134491740Y-105925491D01*
X134339472Y-105800528D01*
X134214509Y-105648260D01*
X134121652Y-105474537D01*
X134064469Y-105286030D01*
X134045162Y-105090000D01*
X134064469Y-104893970D01*
X134121652Y-104705463D01*
X134214509Y-104531740D01*
X134339472Y-104379472D01*
X134491740Y-104254509D01*
X134665463Y-104161652D01*
X134665465Y-104161651D01*
X134853966Y-104104470D01*
X134853967Y-104104470D01*
X134853970Y-104104469D01*
X135000876Y-104090000D01*
X135799124Y-104090000D01*
X135946030Y-104104469D01*
X135946030Y-104104469D01*
G37*
G36*
X128326030Y-104104469D02*
X128326033Y-104104470D01*
X128326034Y-104104470D01*
X128514535Y-104161651D01*
X128514537Y-104161652D01*
X128688260Y-104254509D01*
X128840528Y-104379472D01*
X128965491Y-104531740D01*
X129058348Y-104705463D01*
X129115531Y-104893970D01*
X129134838Y-105090000D01*
X129115531Y-105286030D01*
X129058348Y-105474537D01*
X128965491Y-105648260D01*
X128840528Y-105800528D01*
X128688260Y-105925491D01*
X128688258Y-105925492D01*
X128514535Y-106018349D01*
X128326034Y-106075530D01*
X128326033Y-106075530D01*
X128326030Y-106075531D01*
X128179124Y-106090000D01*
X127380876Y-106090000D01*
X127233970Y-106075531D01*
X127233967Y-106075530D01*
X127233966Y-106075530D01*
X127045465Y-106018349D01*
X126871742Y-105925492D01*
X126871740Y-105925491D01*
X126719472Y-105800528D01*
X126594509Y-105648260D01*
X126501652Y-105474537D01*
X126444469Y-105286030D01*
X126425162Y-105090000D01*
X126444469Y-104893970D01*
X126501652Y-104705463D01*
X126594509Y-104531740D01*
X126719472Y-104379472D01*
X126871740Y-104254509D01*
X127045463Y-104161652D01*
X127045465Y-104161651D01*
X127233966Y-104104470D01*
X127233967Y-104104470D01*
X127233970Y-104104469D01*
X127380876Y-104090000D01*
X128179124Y-104090000D01*
X128326030Y-104104469D01*
X128326030Y-104104469D01*
G37*
G36*
X106719281Y-100249865D02*
X106838378Y-100261595D01*
X106991189Y-100307950D01*
X107067595Y-100331127D01*
X107124052Y-100361304D01*
X107278842Y-100444041D01*
X107464002Y-100595998D01*
X107615959Y-100781158D01*
X107698696Y-100935948D01*
X107728873Y-100992405D01*
X107728873Y-100992406D01*
X107798405Y-101221622D01*
X107821883Y-101460000D01*
X107798405Y-101698378D01*
X107755605Y-101839472D01*
X107728873Y-101927595D01*
X107698696Y-101984052D01*
X107615959Y-102138842D01*
X107464002Y-102324002D01*
X107278842Y-102475959D01*
X107142640Y-102548760D01*
X107122266Y-102562374D01*
X107104939Y-102579701D01*
X107091325Y-102600076D01*
X107081947Y-102622715D01*
X107077167Y-102646748D01*
X107077167Y-102671252D01*
X107081948Y-102695286D01*
X107091325Y-102717925D01*
X107104939Y-102738299D01*
X107122266Y-102755626D01*
X107142641Y-102769240D01*
X107165280Y-102778618D01*
X107201565Y-102784000D01*
X107816000Y-102784000D01*
X107816000Y-105216000D01*
X105384000Y-105216000D01*
X105384000Y-102784000D01*
X105998435Y-102784000D01*
X106022821Y-102781598D01*
X106046270Y-102774485D01*
X106067881Y-102762934D01*
X106086823Y-102747388D01*
X106102369Y-102728446D01*
X106113920Y-102706835D01*
X106121033Y-102683386D01*
X106123435Y-102659000D01*
X106121033Y-102634614D01*
X106113920Y-102611165D01*
X106102369Y-102589554D01*
X106086823Y-102570612D01*
X106057360Y-102548760D01*
X105921158Y-102475959D01*
X105735998Y-102324002D01*
X105584041Y-102138842D01*
X105501304Y-101984052D01*
X105471127Y-101927595D01*
X105444395Y-101839472D01*
X105401595Y-101698378D01*
X105378117Y-101460000D01*
X105401595Y-101221622D01*
X105471127Y-100992406D01*
X105471127Y-100992405D01*
X105501304Y-100935948D01*
X105584041Y-100781158D01*
X105735998Y-100595998D01*
X105921158Y-100444041D01*
X106075948Y-100361304D01*
X106132405Y-100331127D01*
X106208811Y-100307950D01*
X106361622Y-100261595D01*
X106480719Y-100249865D01*
X106540267Y-100244000D01*
X106659733Y-100244000D01*
X106719281Y-100249865D01*
X106719281Y-100249865D01*
G37*
G36*
X128326030Y-101564469D02*
X128326033Y-101564470D01*
X128326034Y-101564470D01*
X128514535Y-101621651D01*
X128514537Y-101621652D01*
X128688260Y-101714509D01*
X128840528Y-101839472D01*
X128965491Y-101991740D01*
X128965492Y-101991742D01*
X129058349Y-102165465D01*
X129115530Y-102353966D01*
X129115531Y-102353970D01*
X129134838Y-102550000D01*
X129115531Y-102746030D01*
X129115530Y-102746033D01*
X129115530Y-102746034D01*
X129106900Y-102774485D01*
X129058348Y-102934537D01*
X128965491Y-103108260D01*
X128840528Y-103260528D01*
X128688260Y-103385491D01*
X128688258Y-103385492D01*
X128514535Y-103478349D01*
X128326034Y-103535530D01*
X128326033Y-103535530D01*
X128326030Y-103535531D01*
X128179124Y-103550000D01*
X127380876Y-103550000D01*
X127233970Y-103535531D01*
X127233967Y-103535530D01*
X127233966Y-103535530D01*
X127045465Y-103478349D01*
X126871742Y-103385492D01*
X126871740Y-103385491D01*
X126719472Y-103260528D01*
X126594509Y-103108260D01*
X126501652Y-102934537D01*
X126453101Y-102774485D01*
X126444470Y-102746034D01*
X126444470Y-102746033D01*
X126444469Y-102746030D01*
X126425162Y-102550000D01*
X126444469Y-102353970D01*
X126444470Y-102353966D01*
X126501651Y-102165465D01*
X126594508Y-101991742D01*
X126594509Y-101991740D01*
X126719472Y-101839472D01*
X126871740Y-101714509D01*
X127045463Y-101621652D01*
X127045465Y-101621651D01*
X127233966Y-101564470D01*
X127233967Y-101564470D01*
X127233970Y-101564469D01*
X127380876Y-101550000D01*
X128179124Y-101550000D01*
X128326030Y-101564469D01*
X128326030Y-101564469D01*
G37*
G36*
X135946030Y-101564469D02*
X135946033Y-101564470D01*
X135946034Y-101564470D01*
X136134535Y-101621651D01*
X136134537Y-101621652D01*
X136308260Y-101714509D01*
X136460528Y-101839472D01*
X136585491Y-101991740D01*
X136585492Y-101991742D01*
X136678349Y-102165465D01*
X136735530Y-102353966D01*
X136735531Y-102353970D01*
X136754838Y-102550000D01*
X136735531Y-102746030D01*
X136735530Y-102746033D01*
X136735530Y-102746034D01*
X136726900Y-102774485D01*
X136678348Y-102934537D01*
X136585491Y-103108260D01*
X136460528Y-103260528D01*
X136308260Y-103385491D01*
X136308258Y-103385492D01*
X136134535Y-103478349D01*
X135946034Y-103535530D01*
X135946033Y-103535530D01*
X135946030Y-103535531D01*
X135799124Y-103550000D01*
X135000876Y-103550000D01*
X134853970Y-103535531D01*
X134853967Y-103535530D01*
X134853966Y-103535530D01*
X134665465Y-103478349D01*
X134491742Y-103385492D01*
X134491740Y-103385491D01*
X134339472Y-103260528D01*
X134214509Y-103108260D01*
X134121652Y-102934537D01*
X134073101Y-102774485D01*
X134064470Y-102746034D01*
X134064470Y-102746033D01*
X134064469Y-102746030D01*
X134045162Y-102550000D01*
X134064469Y-102353970D01*
X134064470Y-102353966D01*
X134121651Y-102165465D01*
X134214508Y-101991742D01*
X134214509Y-101991740D01*
X134339472Y-101839472D01*
X134491740Y-101714509D01*
X134665463Y-101621652D01*
X134665465Y-101621651D01*
X134853966Y-101564470D01*
X134853967Y-101564470D01*
X134853970Y-101564469D01*
X135000876Y-101550000D01*
X135799124Y-101550000D01*
X135946030Y-101564469D01*
X135946030Y-101564469D01*
G37*
G36*
X128326030Y-99024469D02*
X128326033Y-99024470D01*
X128326034Y-99024470D01*
X128514535Y-99081651D01*
X128514537Y-99081652D01*
X128688260Y-99174509D01*
X128840528Y-99299472D01*
X128965491Y-99451740D01*
X129058348Y-99625463D01*
X129115531Y-99813970D01*
X129134838Y-100010000D01*
X129115531Y-100206030D01*
X129115530Y-100206033D01*
X129115530Y-100206034D01*
X129077584Y-100331127D01*
X129058348Y-100394537D01*
X128965491Y-100568260D01*
X128840528Y-100720528D01*
X128688260Y-100845491D01*
X128688258Y-100845492D01*
X128514535Y-100938349D01*
X128326034Y-100995530D01*
X128326033Y-100995530D01*
X128326030Y-100995531D01*
X128179124Y-101010000D01*
X127380876Y-101010000D01*
X127233970Y-100995531D01*
X127233967Y-100995530D01*
X127233966Y-100995530D01*
X127045465Y-100938349D01*
X126871742Y-100845492D01*
X126871740Y-100845491D01*
X126719472Y-100720528D01*
X126594509Y-100568260D01*
X126501652Y-100394537D01*
X126482417Y-100331127D01*
X126444470Y-100206034D01*
X126444470Y-100206033D01*
X126444469Y-100206030D01*
X126425162Y-100010000D01*
X126444469Y-99813970D01*
X126501652Y-99625463D01*
X126594509Y-99451740D01*
X126719472Y-99299472D01*
X126871740Y-99174509D01*
X127045463Y-99081652D01*
X127045465Y-99081651D01*
X127233966Y-99024470D01*
X127233967Y-99024470D01*
X127233970Y-99024469D01*
X127380876Y-99010000D01*
X128179124Y-99010000D01*
X128326030Y-99024469D01*
X128326030Y-99024469D01*
G37*
G36*
X135946030Y-99024469D02*
X135946033Y-99024470D01*
X135946034Y-99024470D01*
X136134535Y-99081651D01*
X136134537Y-99081652D01*
X136308260Y-99174509D01*
X136460528Y-99299472D01*
X136585491Y-99451740D01*
X136678348Y-99625463D01*
X136735531Y-99813970D01*
X136754838Y-100010000D01*
X136735531Y-100206030D01*
X136735530Y-100206033D01*
X136735530Y-100206034D01*
X136697584Y-100331127D01*
X136678348Y-100394537D01*
X136585491Y-100568260D01*
X136460528Y-100720528D01*
X136308260Y-100845491D01*
X136308258Y-100845492D01*
X136134535Y-100938349D01*
X135946034Y-100995530D01*
X135946033Y-100995530D01*
X135946030Y-100995531D01*
X135799124Y-101010000D01*
X135000876Y-101010000D01*
X134853970Y-100995531D01*
X134853967Y-100995530D01*
X134853966Y-100995530D01*
X134665465Y-100938349D01*
X134491742Y-100845492D01*
X134491740Y-100845491D01*
X134339472Y-100720528D01*
X134214509Y-100568260D01*
X134121652Y-100394537D01*
X134102417Y-100331127D01*
X134064470Y-100206034D01*
X134064470Y-100206033D01*
X134064469Y-100206030D01*
X134045162Y-100010000D01*
X134064469Y-99813970D01*
X134121652Y-99625463D01*
X134214509Y-99451740D01*
X134339472Y-99299472D01*
X134491740Y-99174509D01*
X134665463Y-99081652D01*
X134665465Y-99081651D01*
X134853966Y-99024470D01*
X134853967Y-99024470D01*
X134853970Y-99024469D01*
X135000876Y-99010000D01*
X135799124Y-99010000D01*
X135946030Y-99024469D01*
X135946030Y-99024469D01*
G37*
G36*
X128326030Y-96484469D02*
X128326033Y-96484470D01*
X128326034Y-96484470D01*
X128514535Y-96541651D01*
X128514537Y-96541652D01*
X128688260Y-96634509D01*
X128840528Y-96759472D01*
X128965491Y-96911740D01*
X129058348Y-97085463D01*
X129115531Y-97273970D01*
X129134838Y-97470000D01*
X129115531Y-97666030D01*
X129115530Y-97666033D01*
X129115530Y-97666034D01*
X129066335Y-97828210D01*
X129058348Y-97854537D01*
X128965491Y-98028260D01*
X128840528Y-98180528D01*
X128688260Y-98305491D01*
X128688258Y-98305492D01*
X128514535Y-98398349D01*
X128326034Y-98455530D01*
X128326033Y-98455530D01*
X128326030Y-98455531D01*
X128179124Y-98470000D01*
X127380876Y-98470000D01*
X127233970Y-98455531D01*
X127233967Y-98455530D01*
X127233966Y-98455530D01*
X127045465Y-98398349D01*
X126871742Y-98305492D01*
X126871740Y-98305491D01*
X126719472Y-98180528D01*
X126594509Y-98028260D01*
X126501652Y-97854537D01*
X126493666Y-97828210D01*
X126444470Y-97666034D01*
X126444470Y-97666033D01*
X126444469Y-97666030D01*
X126425162Y-97470000D01*
X126444469Y-97273970D01*
X126501652Y-97085463D01*
X126594509Y-96911740D01*
X126719472Y-96759472D01*
X126871740Y-96634509D01*
X127045463Y-96541652D01*
X127045465Y-96541651D01*
X127233966Y-96484470D01*
X127233967Y-96484470D01*
X127233970Y-96484469D01*
X127380876Y-96470000D01*
X128179124Y-96470000D01*
X128326030Y-96484469D01*
X128326030Y-96484469D01*
G37*
G36*
X135946030Y-96484469D02*
X135946033Y-96484470D01*
X135946034Y-96484470D01*
X136134535Y-96541651D01*
X136134537Y-96541652D01*
X136308260Y-96634509D01*
X136460528Y-96759472D01*
X136585491Y-96911740D01*
X136678348Y-97085463D01*
X136735531Y-97273970D01*
X136754838Y-97470000D01*
X136735531Y-97666030D01*
X136735530Y-97666033D01*
X136735530Y-97666034D01*
X136686335Y-97828210D01*
X136678348Y-97854537D01*
X136585491Y-98028260D01*
X136460528Y-98180528D01*
X136308260Y-98305491D01*
X136308258Y-98305492D01*
X136134535Y-98398349D01*
X135946034Y-98455530D01*
X135946033Y-98455530D01*
X135946030Y-98455531D01*
X135799124Y-98470000D01*
X135000876Y-98470000D01*
X134853970Y-98455531D01*
X134853967Y-98455530D01*
X134853966Y-98455530D01*
X134665465Y-98398349D01*
X134491742Y-98305492D01*
X134491740Y-98305491D01*
X134339472Y-98180528D01*
X134214509Y-98028260D01*
X134121652Y-97854537D01*
X134113666Y-97828210D01*
X134064470Y-97666034D01*
X134064470Y-97666033D01*
X134064469Y-97666030D01*
X134045162Y-97470000D01*
X134064469Y-97273970D01*
X134121652Y-97085463D01*
X134214509Y-96911740D01*
X134339472Y-96759472D01*
X134491740Y-96634509D01*
X134665463Y-96541652D01*
X134665465Y-96541651D01*
X134853966Y-96484470D01*
X134853967Y-96484470D01*
X134853970Y-96484469D01*
X135000876Y-96470000D01*
X135799124Y-96470000D01*
X135946030Y-96484469D01*
X135946030Y-96484469D01*
G37*
G36*
X118008503Y-95731789D02*
X118208991Y-95792607D01*
X118393764Y-95891369D01*
X118555718Y-96024282D01*
X118688631Y-96186236D01*
X118787393Y-96371009D01*
X118848211Y-96571497D01*
X118868746Y-96780000D01*
X118848211Y-96988503D01*
X118787393Y-97188991D01*
X118688631Y-97373764D01*
X118555718Y-97535718D01*
X118393764Y-97668631D01*
X118208991Y-97767393D01*
X118008503Y-97828211D01*
X117852251Y-97843600D01*
X117747749Y-97843600D01*
X117591497Y-97828211D01*
X117391009Y-97767393D01*
X117206236Y-97668631D01*
X117044282Y-97535718D01*
X116911369Y-97373764D01*
X116812607Y-97188991D01*
X116751789Y-96988503D01*
X116731254Y-96780000D01*
X116751789Y-96571497D01*
X116812607Y-96371009D01*
X116911369Y-96186236D01*
X117044282Y-96024282D01*
X117206236Y-95891369D01*
X117391009Y-95792607D01*
X117591497Y-95731789D01*
X117747749Y-95716400D01*
X117852251Y-95716400D01*
X118008503Y-95731789D01*
X118008503Y-95731789D01*
G37*
G36*
X121403600Y-97843600D02*
X119276400Y-97843600D01*
X119276400Y-95716400D01*
X121403600Y-95716400D01*
X121403600Y-97843600D01*
X121403600Y-97843600D01*
G37*
G36*
X118008503Y-93191789D02*
X118208991Y-93252607D01*
X118393764Y-93351369D01*
X118555718Y-93484282D01*
X118688631Y-93646236D01*
X118787393Y-93831009D01*
X118848211Y-94031497D01*
X118868746Y-94240000D01*
X118848211Y-94448503D01*
X118787393Y-94648991D01*
X118688631Y-94833764D01*
X118555718Y-94995718D01*
X118393764Y-95128631D01*
X118208991Y-95227393D01*
X118008503Y-95288211D01*
X117852251Y-95303600D01*
X117747749Y-95303600D01*
X117591497Y-95288211D01*
X117391009Y-95227393D01*
X117206236Y-95128631D01*
X117044282Y-94995718D01*
X116911369Y-94833764D01*
X116812607Y-94648991D01*
X116751789Y-94448503D01*
X116731254Y-94240000D01*
X116751789Y-94031497D01*
X116812607Y-93831009D01*
X116911369Y-93646236D01*
X117044282Y-93484282D01*
X117206236Y-93351369D01*
X117391009Y-93252607D01*
X117591497Y-93191789D01*
X117747749Y-93176400D01*
X117852251Y-93176400D01*
X118008503Y-93191789D01*
X118008503Y-93191789D01*
G37*
G36*
X120548503Y-93191789D02*
X120748991Y-93252607D01*
X120933764Y-93351369D01*
X121095718Y-93484282D01*
X121228631Y-93646236D01*
X121327393Y-93831009D01*
X121388211Y-94031497D01*
X121408746Y-94240000D01*
X121388211Y-94448503D01*
X121327393Y-94648991D01*
X121228631Y-94833764D01*
X121095718Y-94995718D01*
X120933764Y-95128631D01*
X120748991Y-95227393D01*
X120548503Y-95288211D01*
X120392251Y-95303600D01*
X120287749Y-95303600D01*
X120131497Y-95288211D01*
X119931009Y-95227393D01*
X119746236Y-95128631D01*
X119584282Y-94995718D01*
X119451369Y-94833764D01*
X119352607Y-94648991D01*
X119291789Y-94448503D01*
X119271254Y-94240000D01*
X119291789Y-94031497D01*
X119352607Y-93831009D01*
X119451369Y-93646236D01*
X119584282Y-93484282D01*
X119746236Y-93351369D01*
X119931009Y-93252607D01*
X120131497Y-93191789D01*
X120287749Y-93176400D01*
X120392251Y-93176400D01*
X120548503Y-93191789D01*
X120548503Y-93191789D01*
G37*
G36*
X120548503Y-90651789D02*
X120748991Y-90712607D01*
X120933764Y-90811369D01*
X121095718Y-90944282D01*
X121228631Y-91106236D01*
X121327393Y-91291009D01*
X121388211Y-91491497D01*
X121408746Y-91700000D01*
X121388211Y-91908503D01*
X121327393Y-92108991D01*
X121228631Y-92293764D01*
X121095718Y-92455718D01*
X120933764Y-92588631D01*
X120748991Y-92687393D01*
X120548503Y-92748211D01*
X120392251Y-92763600D01*
X120287749Y-92763600D01*
X120131497Y-92748211D01*
X119931009Y-92687393D01*
X119746236Y-92588631D01*
X119584282Y-92455718D01*
X119451369Y-92293764D01*
X119352607Y-92108991D01*
X119291789Y-91908503D01*
X119271254Y-91700000D01*
X119291789Y-91491497D01*
X119352607Y-91291009D01*
X119451369Y-91106236D01*
X119584282Y-90944282D01*
X119746236Y-90811369D01*
X119931009Y-90712607D01*
X120131497Y-90651789D01*
X120287749Y-90636400D01*
X120392251Y-90636400D01*
X120548503Y-90651789D01*
X120548503Y-90651789D01*
G37*
G36*
X118008503Y-90651789D02*
X118208991Y-90712607D01*
X118393764Y-90811369D01*
X118555718Y-90944282D01*
X118688631Y-91106236D01*
X118787393Y-91291009D01*
X118848211Y-91491497D01*
X118868746Y-91700000D01*
X118848211Y-91908503D01*
X118787393Y-92108991D01*
X118688631Y-92293764D01*
X118555718Y-92455718D01*
X118393764Y-92588631D01*
X118208991Y-92687393D01*
X118008503Y-92748211D01*
X117852251Y-92763600D01*
X117747749Y-92763600D01*
X117591497Y-92748211D01*
X117391009Y-92687393D01*
X117206236Y-92588631D01*
X117044282Y-92455718D01*
X116911369Y-92293764D01*
X116812607Y-92108991D01*
X116751789Y-91908503D01*
X116731254Y-91700000D01*
X116751789Y-91491497D01*
X116812607Y-91291009D01*
X116911369Y-91106236D01*
X117044282Y-90944282D01*
X117206236Y-90811369D01*
X117391009Y-90712607D01*
X117591497Y-90651789D01*
X117747749Y-90636400D01*
X117852251Y-90636400D01*
X118008503Y-90651789D01*
X118008503Y-90651789D01*
G37*
G36*
X126896029Y-88164469D02*
X126896032Y-88164470D01*
X126896033Y-88164470D01*
X127084534Y-88221651D01*
X127084536Y-88221652D01*
X127084539Y-88221653D01*
X127258258Y-88314507D01*
X127410528Y-88439472D01*
X127535491Y-88591740D01*
X127628348Y-88765463D01*
X127685531Y-88953970D01*
X127700000Y-89100876D01*
X127700000Y-89899123D01*
X127685531Y-90046031D01*
X127628349Y-90234536D01*
X127535491Y-90408260D01*
X127410528Y-90560528D01*
X127258260Y-90685491D01*
X127084537Y-90778348D01*
X127084535Y-90778349D01*
X126896034Y-90835530D01*
X126896033Y-90835530D01*
X126896030Y-90835531D01*
X126700000Y-90854838D01*
X126503971Y-90835531D01*
X126503968Y-90835530D01*
X126503967Y-90835530D01*
X126315466Y-90778349D01*
X126315464Y-90778348D01*
X126141741Y-90685491D01*
X125989473Y-90560528D01*
X125864510Y-90408260D01*
X125771651Y-90234533D01*
X125714469Y-90046035D01*
X125700000Y-89899124D01*
X125700000Y-89100877D01*
X125714469Y-88953971D01*
X125714470Y-88953967D01*
X125771651Y-88765466D01*
X125771652Y-88765464D01*
X125771653Y-88765461D01*
X125864507Y-88591742D01*
X125989472Y-88439472D01*
X126141740Y-88314509D01*
X126315463Y-88221652D01*
X126315465Y-88221651D01*
X126503966Y-88164470D01*
X126503967Y-88164470D01*
X126503970Y-88164469D01*
X126700000Y-88145162D01*
X126896029Y-88164469D01*
X126896029Y-88164469D01*
G37*
G36*
X134516029Y-88164469D02*
X134516032Y-88164470D01*
X134516033Y-88164470D01*
X134704534Y-88221651D01*
X134704536Y-88221652D01*
X134704539Y-88221653D01*
X134878258Y-88314507D01*
X135030528Y-88439472D01*
X135155491Y-88591740D01*
X135248348Y-88765463D01*
X135305531Y-88953970D01*
X135320000Y-89100876D01*
X135320000Y-89899123D01*
X135305531Y-90046031D01*
X135248349Y-90234536D01*
X135155491Y-90408260D01*
X135030528Y-90560528D01*
X134878260Y-90685491D01*
X134704537Y-90778348D01*
X134704535Y-90778349D01*
X134516034Y-90835530D01*
X134516033Y-90835530D01*
X134516030Y-90835531D01*
X134320000Y-90854838D01*
X134123971Y-90835531D01*
X134123968Y-90835530D01*
X134123967Y-90835530D01*
X133935466Y-90778349D01*
X133935464Y-90778348D01*
X133761741Y-90685491D01*
X133609473Y-90560528D01*
X133484510Y-90408260D01*
X133391651Y-90234533D01*
X133334469Y-90046035D01*
X133320000Y-89899124D01*
X133320000Y-89100877D01*
X133334469Y-88953971D01*
X133334470Y-88953967D01*
X133391651Y-88765466D01*
X133391652Y-88765464D01*
X133391653Y-88765461D01*
X133484507Y-88591742D01*
X133609472Y-88439472D01*
X133761740Y-88314509D01*
X133935463Y-88221652D01*
X133935465Y-88221651D01*
X134123966Y-88164470D01*
X134123967Y-88164470D01*
X134123970Y-88164469D01*
X134320000Y-88145162D01*
X134516029Y-88164469D01*
X134516029Y-88164469D01*
G37*
G36*
X131976029Y-88164469D02*
X131976032Y-88164470D01*
X131976033Y-88164470D01*
X132164534Y-88221651D01*
X132164536Y-88221652D01*
X132164539Y-88221653D01*
X132338258Y-88314507D01*
X132490528Y-88439472D01*
X132615491Y-88591740D01*
X132708348Y-88765463D01*
X132765531Y-88953970D01*
X132780000Y-89100876D01*
X132780000Y-89899123D01*
X132765531Y-90046031D01*
X132708349Y-90234536D01*
X132615491Y-90408260D01*
X132490528Y-90560528D01*
X132338260Y-90685491D01*
X132164537Y-90778348D01*
X132164535Y-90778349D01*
X131976034Y-90835530D01*
X131976033Y-90835530D01*
X131976030Y-90835531D01*
X131780000Y-90854838D01*
X131583971Y-90835531D01*
X131583968Y-90835530D01*
X131583967Y-90835530D01*
X131395466Y-90778349D01*
X131395464Y-90778348D01*
X131221741Y-90685491D01*
X131069473Y-90560528D01*
X130944510Y-90408260D01*
X130851651Y-90234533D01*
X130794469Y-90046035D01*
X130780000Y-89899124D01*
X130780000Y-89100877D01*
X130794469Y-88953971D01*
X130794470Y-88953967D01*
X130851651Y-88765466D01*
X130851652Y-88765464D01*
X130851653Y-88765461D01*
X130944507Y-88591742D01*
X131069472Y-88439472D01*
X131221740Y-88314509D01*
X131395463Y-88221652D01*
X131395465Y-88221651D01*
X131583966Y-88164470D01*
X131583967Y-88164470D01*
X131583970Y-88164469D01*
X131780000Y-88145162D01*
X131976029Y-88164469D01*
X131976029Y-88164469D01*
G37*
G36*
X129436029Y-88164469D02*
X129436032Y-88164470D01*
X129436033Y-88164470D01*
X129624534Y-88221651D01*
X129624536Y-88221652D01*
X129624539Y-88221653D01*
X129798258Y-88314507D01*
X129950528Y-88439472D01*
X130075491Y-88591740D01*
X130168348Y-88765463D01*
X130225531Y-88953970D01*
X130240000Y-89100876D01*
X130240000Y-89899123D01*
X130225531Y-90046031D01*
X130168349Y-90234536D01*
X130075491Y-90408260D01*
X129950528Y-90560528D01*
X129798260Y-90685491D01*
X129624537Y-90778348D01*
X129624535Y-90778349D01*
X129436034Y-90835530D01*
X129436033Y-90835530D01*
X129436030Y-90835531D01*
X129240000Y-90854838D01*
X129043971Y-90835531D01*
X129043968Y-90835530D01*
X129043967Y-90835530D01*
X128855466Y-90778349D01*
X128855464Y-90778348D01*
X128681741Y-90685491D01*
X128529473Y-90560528D01*
X128404510Y-90408260D01*
X128311651Y-90234533D01*
X128254469Y-90046035D01*
X128240000Y-89899124D01*
X128240000Y-89100877D01*
X128254469Y-88953971D01*
X128254470Y-88953967D01*
X128311651Y-88765466D01*
X128311652Y-88765464D01*
X128311653Y-88765461D01*
X128404507Y-88591742D01*
X128529472Y-88439472D01*
X128681740Y-88314509D01*
X128855463Y-88221652D01*
X128855465Y-88221651D01*
X129043966Y-88164470D01*
X129043967Y-88164470D01*
X129043970Y-88164469D01*
X129240000Y-88145162D01*
X129436029Y-88164469D01*
X129436029Y-88164469D01*
G37*
G36*
X116729876Y-81646605D02*
X116948172Y-81737026D01*
X117144633Y-81868297D01*
X117311703Y-82035367D01*
X117442974Y-82231828D01*
X117533395Y-82450124D01*
X117579490Y-82681859D01*
X117579490Y-82918141D01*
X117533395Y-83149876D01*
X117442974Y-83368172D01*
X117311703Y-83564633D01*
X117144633Y-83731703D01*
X116948172Y-83862974D01*
X116729876Y-83953395D01*
X116498141Y-83999490D01*
X116261859Y-83999490D01*
X116030124Y-83953395D01*
X115811828Y-83862974D01*
X115615367Y-83731703D01*
X115448297Y-83564633D01*
X115317026Y-83368172D01*
X115226605Y-83149876D01*
X115180510Y-82918141D01*
X115180510Y-82681859D01*
X115226605Y-82450124D01*
X115317026Y-82231828D01*
X115448297Y-82035367D01*
X115615367Y-81868297D01*
X115811828Y-81737026D01*
X116030124Y-81646605D01*
X116261859Y-81600510D01*
X116498141Y-81600510D01*
X116729876Y-81646605D01*
X116729876Y-81646605D01*
G37*
G36*
X106569876Y-81646605D02*
X106788172Y-81737026D01*
X106984633Y-81868297D01*
X107151703Y-82035367D01*
X107282974Y-82231828D01*
X107373395Y-82450124D01*
X107419490Y-82681859D01*
X107419490Y-82918141D01*
X107373395Y-83149876D01*
X107282974Y-83368172D01*
X107151703Y-83564633D01*
X106984633Y-83731703D01*
X106788172Y-83862974D01*
X106569876Y-83953395D01*
X106338141Y-83999490D01*
X106101859Y-83999490D01*
X105870124Y-83953395D01*
X105651828Y-83862974D01*
X105455367Y-83731703D01*
X105288297Y-83564633D01*
X105157026Y-83368172D01*
X105066605Y-83149876D01*
X105020510Y-82918141D01*
X105020510Y-82681859D01*
X105066605Y-82450124D01*
X105157026Y-82231828D01*
X105288297Y-82035367D01*
X105455367Y-81868297D01*
X105651828Y-81737026D01*
X105870124Y-81646605D01*
X106101859Y-81600510D01*
X106338141Y-81600510D01*
X106569876Y-81646605D01*
X106569876Y-81646605D01*
G37*
G36*
X126896029Y-80544469D02*
X126896032Y-80544470D01*
X126896033Y-80544470D01*
X127084534Y-80601651D01*
X127084536Y-80601652D01*
X127084539Y-80601653D01*
X127258258Y-80694507D01*
X127410528Y-80819472D01*
X127535491Y-80971740D01*
X127628348Y-81145463D01*
X127685531Y-81333970D01*
X127700000Y-81480876D01*
X127700000Y-82279123D01*
X127685531Y-82426031D01*
X127628349Y-82614536D01*
X127535491Y-82788260D01*
X127410528Y-82940528D01*
X127258260Y-83065491D01*
X127258258Y-83065492D01*
X127084535Y-83158349D01*
X126896034Y-83215530D01*
X126896033Y-83215530D01*
X126896030Y-83215531D01*
X126700000Y-83234838D01*
X126503971Y-83215531D01*
X126503968Y-83215530D01*
X126503967Y-83215530D01*
X126315466Y-83158349D01*
X126141743Y-83065492D01*
X126141741Y-83065491D01*
X125989473Y-82940528D01*
X125864510Y-82788260D01*
X125771651Y-82614533D01*
X125714469Y-82426035D01*
X125700000Y-82279124D01*
X125700000Y-81480877D01*
X125714469Y-81333971D01*
X125714470Y-81333967D01*
X125771651Y-81145466D01*
X125771652Y-81145464D01*
X125771653Y-81145461D01*
X125864507Y-80971742D01*
X125989472Y-80819472D01*
X126141740Y-80694509D01*
X126315463Y-80601652D01*
X126315465Y-80601651D01*
X126503966Y-80544470D01*
X126503967Y-80544470D01*
X126503970Y-80544469D01*
X126700000Y-80525162D01*
X126896029Y-80544469D01*
X126896029Y-80544469D01*
G37*
G36*
X134516029Y-80544469D02*
X134516032Y-80544470D01*
X134516033Y-80544470D01*
X134704534Y-80601651D01*
X134704536Y-80601652D01*
X134704539Y-80601653D01*
X134878258Y-80694507D01*
X135030528Y-80819472D01*
X135155491Y-80971740D01*
X135248348Y-81145463D01*
X135305531Y-81333970D01*
X135320000Y-81480876D01*
X135320000Y-82279123D01*
X135305531Y-82426031D01*
X135248349Y-82614536D01*
X135155491Y-82788260D01*
X135030528Y-82940528D01*
X134878260Y-83065491D01*
X134878258Y-83065492D01*
X134704535Y-83158349D01*
X134516034Y-83215530D01*
X134516033Y-83215530D01*
X134516030Y-83215531D01*
X134320000Y-83234838D01*
X134123971Y-83215531D01*
X134123968Y-83215530D01*
X134123967Y-83215530D01*
X133935466Y-83158349D01*
X133761743Y-83065492D01*
X133761741Y-83065491D01*
X133609473Y-82940528D01*
X133484510Y-82788260D01*
X133391651Y-82614533D01*
X133334469Y-82426035D01*
X133320000Y-82279124D01*
X133320000Y-81480877D01*
X133334469Y-81333971D01*
X133334470Y-81333967D01*
X133391651Y-81145466D01*
X133391652Y-81145464D01*
X133391653Y-81145461D01*
X133484507Y-80971742D01*
X133609472Y-80819472D01*
X133761740Y-80694509D01*
X133935463Y-80601652D01*
X133935465Y-80601651D01*
X134123966Y-80544470D01*
X134123967Y-80544470D01*
X134123970Y-80544469D01*
X134320000Y-80525162D01*
X134516029Y-80544469D01*
X134516029Y-80544469D01*
G37*
G36*
X129436029Y-80544469D02*
X129436032Y-80544470D01*
X129436033Y-80544470D01*
X129624534Y-80601651D01*
X129624536Y-80601652D01*
X129624539Y-80601653D01*
X129798258Y-80694507D01*
X129950528Y-80819472D01*
X130075491Y-80971740D01*
X130168348Y-81145463D01*
X130225531Y-81333970D01*
X130240000Y-81480876D01*
X130240000Y-82279123D01*
X130225531Y-82426031D01*
X130168349Y-82614536D01*
X130075491Y-82788260D01*
X129950528Y-82940528D01*
X129798260Y-83065491D01*
X129798258Y-83065492D01*
X129624535Y-83158349D01*
X129436034Y-83215530D01*
X129436033Y-83215530D01*
X129436030Y-83215531D01*
X129240000Y-83234838D01*
X129043971Y-83215531D01*
X129043968Y-83215530D01*
X129043967Y-83215530D01*
X128855466Y-83158349D01*
X128681743Y-83065492D01*
X128681741Y-83065491D01*
X128529473Y-82940528D01*
X128404510Y-82788260D01*
X128311651Y-82614533D01*
X128254469Y-82426035D01*
X128240000Y-82279124D01*
X128240000Y-81480877D01*
X128254469Y-81333971D01*
X128254470Y-81333967D01*
X128311651Y-81145466D01*
X128311652Y-81145464D01*
X128311653Y-81145461D01*
X128404507Y-80971742D01*
X128529472Y-80819472D01*
X128681740Y-80694509D01*
X128855463Y-80601652D01*
X128855465Y-80601651D01*
X129043966Y-80544470D01*
X129043967Y-80544470D01*
X129043970Y-80544469D01*
X129240000Y-80525162D01*
X129436029Y-80544469D01*
X129436029Y-80544469D01*
G37*
G36*
X131976029Y-80544469D02*
X131976032Y-80544470D01*
X131976033Y-80544470D01*
X132164534Y-80601651D01*
X132164536Y-80601652D01*
X132164539Y-80601653D01*
X132338258Y-80694507D01*
X132490528Y-80819472D01*
X132615491Y-80971740D01*
X132708348Y-81145463D01*
X132765531Y-81333970D01*
X132780000Y-81480876D01*
X132780000Y-82279123D01*
X132765531Y-82426031D01*
X132708349Y-82614536D01*
X132615491Y-82788260D01*
X132490528Y-82940528D01*
X132338260Y-83065491D01*
X132338258Y-83065492D01*
X132164535Y-83158349D01*
X131976034Y-83215530D01*
X131976033Y-83215530D01*
X131976030Y-83215531D01*
X131780000Y-83234838D01*
X131583971Y-83215531D01*
X131583968Y-83215530D01*
X131583967Y-83215530D01*
X131395466Y-83158349D01*
X131221743Y-83065492D01*
X131221741Y-83065491D01*
X131069473Y-82940528D01*
X130944510Y-82788260D01*
X130851651Y-82614533D01*
X130794469Y-82426035D01*
X130780000Y-82279124D01*
X130780000Y-81480877D01*
X130794469Y-81333971D01*
X130794470Y-81333967D01*
X130851651Y-81145466D01*
X130851652Y-81145464D01*
X130851653Y-81145461D01*
X130944507Y-80971742D01*
X131069472Y-80819472D01*
X131221740Y-80694509D01*
X131395463Y-80601652D01*
X131395465Y-80601651D01*
X131583966Y-80544470D01*
X131583967Y-80544470D01*
X131583970Y-80544469D01*
X131780000Y-80525162D01*
X131976029Y-80544469D01*
X131976029Y-80544469D01*
G37*
M02*
